<svg xmlns="http://www.w3.org/2000/svg" xmlns:xlink="http://www.w3.org/1999/xlink" width="736" height="1100" viewBox="0 0 736 1100"><defs><clipPath id="hx" clipPathUnits="userSpaceOnUse"><path d="M1.0000,0.0000L0.5000,0.8660L-0.5000,0.8660L-1.0000,0.0000L-0.5000,-0.8660L0.5000,-0.8660Z"/></clipPath><mask id="m0" maskUnits="userSpaceOnUse" x="0" y="0" width="736" height="1100"><g transform="translate(116.00,128.99)"><g transform="scale(28)"><path d="M1.0000,0.0000L0.5000,0.8660L-0.5000,0.8660L-1.0000,0.0000L-0.5000,-0.8660L0.5000,-0.8660Z" fill="#fff"/></g><g transform="rotate(240) scale(28,28)"><path d="M0.5,0.866L1.0,0.0L0.5,-0.866L-0.5,-0.866L-1.0,0.0L-0.5,0.866L0.5,0.866Z" fill="#000" fill-rule="nonzero" clip-path="url(#hx)"/></g></g></mask><mask id="m1" maskUnits="userSpaceOnUse" x="0" y="0" width="736" height="1100"><g transform="translate(116.00,177.49)"><g transform="scale(28)"><path d="M1.0000,0.0000L0.5000,0.8660L-0.5000,0.8660L-1.0000,0.0000L-0.5000,-0.8660L0.5000,-0.8660Z" fill="#fff"/></g><g transform="rotate(240) scale(28,28)"><path d="M0.5,0.866L1.0,0.0L0.5,-0.866L-0.5,-0.866L-1.0,0.0L-0.5,0.866L0.5,0.866Z" fill="#000" fill-rule="nonzero" clip-path="url(#hx)"/></g></g></mask><mask id="m2" maskUnits="userSpaceOnUse" x="0" y="0" width="736" height="1100"><g transform="translate(116.00,225.99)"><g transform="scale(28)"><path d="M1.0000,0.0000L0.5000,0.8660L-0.5000,0.8660L-1.0000,0.0000L-0.5000,-0.8660L0.5000,-0.8660Z" fill="#fff"/></g><g transform="rotate(240) scale(28,28)"><path d="M0.5,0.866L1.0,0.0L0.5,-0.866L-0.5,-0.866L-1.0,0.0L-0.5,0.866L0.5,0.866Z" fill="#000" fill-rule="nonzero" clip-path="url(#hx)"/></g></g></mask><mask id="m3" maskUnits="userSpaceOnUse" x="0" y="0" width="736" height="1100"><g transform="translate(158.00,104.75)"><g transform="scale(28)"><path d="M1.0000,0.0000L0.5000,0.8660L-0.5000,0.8660L-1.0000,0.0000L-0.5000,-0.8660L0.5000,-0.8660Z" fill="#fff"/></g><g transform="rotate(240) scale(28,28)"><path d="M0.5,0.866L1.0,0.0L0.5,-0.866L-0.5,-0.866L-1.0,0.0L-0.5,0.866L0.5,0.866Z" fill="#000" fill-rule="nonzero" clip-path="url(#hx)"/></g></g></mask><mask id="m4" maskUnits="userSpaceOnUse" x="0" y="0" width="736" height="1100"><g transform="translate(158.00,153.24)"><g transform="scale(28)"><path d="M1.0000,0.0000L0.5000,0.8660L-0.5000,0.8660L-1.0000,0.0000L-0.5000,-0.8660L0.5000,-0.8660Z" fill="#fff"/></g><g transform="rotate(240) scale(28,28)"><path d="M0.5,0.866L1.0,0.0L0.5,-0.866L-0.5,-0.866L-1.0,0.0L-0.5,0.866L0.5,0.866Z" fill="#000" fill-rule="nonzero" clip-path="url(#hx)"/></g></g></mask><mask id="m5" maskUnits="userSpaceOnUse" x="0" y="0" width="736" height="1100"><g transform="translate(158.00,201.74)"><g transform="scale(28)"><path d="M1.0000,0.0000L0.5000,0.8660L-0.5000,0.8660L-1.0000,0.0000L-0.5000,-0.8660L0.5000,-0.8660Z" fill="#fff"/></g><g transform="rotate(240) scale(28,28)"><path d="M0.5,0.866L1.0,0.0L0.5,-0.866L-0.5,-0.866L-1.0,0.0L-0.5,0.866L0.5,0.866Z" fill="#000" fill-rule="nonzero" clip-path="url(#hx)"/></g></g></mask><mask id="m6" maskUnits="userSpaceOnUse" x="0" y="0" width="736" height="1100"><g transform="translate(158.00,250.24)"><g transform="scale(28)"><path d="M1.0000,0.0000L0.5000,0.8660L-0.5000,0.8660L-1.0000,0.0000L-0.5000,-0.8660L0.5000,-0.8660Z" fill="#fff"/></g><g transform="rotate(240) scale(28,28)"><path d="M0.5,0.866L1.0,0.0L0.5,-0.866L-0.5,-0.866L-1.0,0.0L-0.5,0.866L0.5,0.866Z" fill="#000" fill-rule="nonzero" clip-path="url(#hx)"/></g></g></mask><mask id="m7" maskUnits="userSpaceOnUse" x="0" y="0" width="736" height="1100"><g transform="translate(158.00,298.74)"><g transform="scale(28)"><path d="M1.0000,0.0000L0.5000,0.8660L-0.5000,0.8660L-1.0000,0.0000L-0.5000,-0.8660L0.5000,-0.8660Z" fill="#fff"/></g><g transform="rotate(240) scale(28,28)"><path d="M0.5,0.866L1.0,0.0L0.5,-0.866L-0.5,-0.866L-1.0,0.0L-0.5,0.866L0.5,0.866Z" fill="#000" fill-rule="nonzero" clip-path="url(#hx)"/></g></g></mask><mask id="m8" maskUnits="userSpaceOnUse" x="0" y="0" width="736" height="1100"><g transform="translate(200.00,32.00)"><g transform="scale(28)"><path d="M1.0000,0.0000L0.5000,0.8660L-0.5000,0.8660L-1.0000,0.0000L-0.5000,-0.8660L0.5000,-0.8660Z" fill="#fff"/></g><g transform="rotate(240) scale(28,28)"><path d="M0.5,0.866L1.0,0.0L0.5,-0.866L-0.5,-0.866L-1.0,0.0L-0.5,0.866L0.5,0.866Z" fill="#000" fill-rule="nonzero" clip-path="url(#hx)"/></g></g></mask><mask id="m9" maskUnits="userSpaceOnUse" x="0" y="0" width="736" height="1100"><g transform="translate(200.00,80.50)"><g transform="scale(28)"><path d="M1.0000,0.0000L0.5000,0.8660L-0.5000,0.8660L-1.0000,0.0000L-0.5000,-0.8660L0.5000,-0.8660Z" fill="#fff"/></g><g transform="rotate(240) scale(28,28)"><path d="M0.5,0.866L1.0,0.0L0.5,-0.866L-0.5,-0.866L-1.0,0.0L-0.5,0.866L0.5,0.866Z" fill="#000" fill-rule="nonzero" clip-path="url(#hx)"/></g></g></mask><mask id="m10" maskUnits="userSpaceOnUse" x="0" y="0" width="736" height="1100"><g transform="translate(200.00,128.99)"><g transform="scale(28)"><path d="M1.0000,0.0000L0.5000,0.8660L-0.5000,0.8660L-1.0000,0.0000L-0.5000,-0.8660L0.5000,-0.8660Z" fill="#fff"/></g><g transform="rotate(240) scale(28,28)"><path d="M0.5,0.866L1.0,0.0L0.5,-0.866L-0.5,-0.866L-1.0,0.0L-0.5,0.866L0.5,0.866Z" fill="#000" fill-rule="nonzero" clip-path="url(#hx)"/></g></g></mask><mask id="m11" maskUnits="userSpaceOnUse" x="0" y="0" width="736" height="1100"><g transform="translate(200.00,177.49)"><g transform="scale(28)"><path d="M1.0000,0.0000L0.5000,0.8660L-0.5000,0.8660L-1.0000,0.0000L-0.5000,-0.8660L0.5000,-0.8660Z" fill="#fff"/></g><g transform="rotate(240) scale(28,28)"><path d="M0.5,0.866L1.0,0.0L0.5,-0.866L-0.5,-0.866L-1.0,0.0L-0.5,0.866L0.5,0.866Z" fill="#000" fill-rule="nonzero" clip-path="url(#hx)"/></g></g></mask><mask id="m12" maskUnits="userSpaceOnUse" x="0" y="0" width="736" height="1100"><g transform="translate(200.00,225.99)"><g transform="scale(28)"><path d="M1.0000,0.0000L0.5000,0.8660L-0.5000,0.8660L-1.0000,0.0000L-0.5000,-0.8660L0.5000,-0.8660Z" fill="#fff"/></g><g transform="rotate(240) scale(28,28)"><path d="M0.5,0.866L1.0,0.0L0.5,-0.866L-0.5,-0.866L-1.0,0.0L-0.5,0.866L0.5,0.866Z" fill="#000" fill-rule="nonzero" clip-path="url(#hx)"/></g></g></mask><mask id="m13" maskUnits="userSpaceOnUse" x="0" y="0" width="736" height="1100"><g transform="translate(200.00,274.49)"><g transform="scale(28)"><path d="M1.0000,0.0000L0.5000,0.8660L-0.5000,0.8660L-1.0000,0.0000L-0.5000,-0.8660L0.5000,-0.8660Z" fill="#fff"/></g><g transform="rotate(240) scale(28,28)"><path d="M0.5,0.866L1.0,0.0L0.5,-0.866L-0.5,-0.866L-1.0,0.0L-0.5,0.866L0.5,0.866Z" fill="#000" fill-rule="nonzero" clip-path="url(#hx)"/></g></g></mask><mask id="m14" maskUnits="userSpaceOnUse" x="0" y="0" width="736" height="1100"><g transform="translate(200.00,371.48)"><g transform="scale(28)"><path d="M1.0000,0.0000L0.5000,0.8660L-0.5000,0.8660L-1.0000,0.0000L-0.5000,-0.8660L0.5000,-0.8660Z" fill="#fff"/></g><g transform="rotate(300) scale(28,28)"><path d="M0.5,0.866L1.0,0.0L0.5,-0.866L-0.5,-0.866L-1.0,0.0L-0.5,0.866L0.5,0.866Z" fill="#000" fill-rule="nonzero" clip-path="url(#hx)"/></g></g></mask><mask id="m15" maskUnits="userSpaceOnUse" x="0" y="0" width="736" height="1100"><g transform="translate(242.00,104.75)"><g transform="scale(28)"><path d="M1.0000,0.0000L0.5000,0.8660L-0.5000,0.8660L-1.0000,0.0000L-0.5000,-0.8660L0.5000,-0.8660Z" fill="#fff"/></g><g transform="rotate(240) scale(28,28)"><path d="M0.5,0.866L1.0,0.0L0.5,-0.866L-0.5,-0.866L-1.0,0.0L-0.5,0.866L0.5,0.866Z" fill="#000" fill-rule="nonzero" clip-path="url(#hx)"/></g></g></mask><mask id="m16" maskUnits="userSpaceOnUse" x="0" y="0" width="736" height="1100"><g transform="translate(242.00,153.24)"><g transform="scale(28)"><path d="M1.0000,0.0000L0.5000,0.8660L-0.5000,0.8660L-1.0000,0.0000L-0.5000,-0.8660L0.5000,-0.8660Z" fill="#fff"/></g><g transform="rotate(240) scale(28,28)"><path d="M0.5,0.866L1.0,0.0L0.5,-0.866L-0.5,-0.866L-1.0,0.0L-0.5,0.866L0.5,0.866Z" fill="#000" fill-rule="nonzero" clip-path="url(#hx)"/></g></g></mask><mask id="m17" maskUnits="userSpaceOnUse" x="0" y="0" width="736" height="1100"><g transform="translate(242.00,201.74)"><g transform="scale(28)"><path d="M1.0000,0.0000L0.5000,0.8660L-0.5000,0.8660L-1.0000,0.0000L-0.5000,-0.8660L0.5000,-0.8660Z" fill="#fff"/></g><g transform="rotate(240) scale(28,28)"><path d="M0.5,0.866L1.0,0.0L0.5,-0.866L-0.5,-0.866L-1.0,0.0L-0.5,0.866L0.5,0.866Z" fill="#000" fill-rule="nonzero" clip-path="url(#hx)"/></g></g></mask><mask id="m18" maskUnits="userSpaceOnUse" x="0" y="0" width="736" height="1100"><g transform="translate(242.00,250.24)"><g transform="scale(28)"><path d="M1.0000,0.0000L0.5000,0.8660L-0.5000,0.8660L-1.0000,0.0000L-0.5000,-0.8660L0.5000,-0.8660Z" fill="#fff"/></g><g transform="rotate(240) scale(28,28)"><path d="M0.5,0.866L1.0,0.0L0.5,-0.866L-0.5,-0.866L-1.0,0.0L-0.5,0.866L0.5,0.866Z" fill="#000" fill-rule="nonzero" clip-path="url(#hx)"/></g></g></mask><mask id="m19" maskUnits="userSpaceOnUse" x="0" y="0" width="736" height="1100"><g transform="translate(242.00,298.74)"><g transform="scale(28)"><path d="M1.0000,0.0000L0.5000,0.8660L-0.5000,0.8660L-1.0000,0.0000L-0.5000,-0.8660L0.5000,-0.8660Z" fill="#fff"/></g><g transform="rotate(240) scale(28,28)"><path d="M0.5,0.866L1.0,0.0L0.5,-0.866L-0.5,-0.866L-1.0,0.0L-0.5,0.866L0.5,0.866Z" fill="#000" fill-rule="nonzero" clip-path="url(#hx)"/></g></g></mask><mask id="m20" maskUnits="userSpaceOnUse" x="0" y="0" width="736" height="1100"><g transform="translate(284.00,80.50)"><g transform="scale(28)"><path d="M1.0000,0.0000L0.5000,0.8660L-0.5000,0.8660L-1.0000,0.0000L-0.5000,-0.8660L0.5000,-0.8660Z" fill="#fff"/></g><g transform="rotate(240) scale(28,28)"><path d="M0.5,0.866L1.0,0.0L0.5,-0.866L-0.5,-0.866L-1.0,0.0L-0.5,0.866L0.5,0.866Z" fill="#000" fill-rule="nonzero" clip-path="url(#hx)"/></g></g></mask><mask id="m21" maskUnits="userSpaceOnUse" x="0" y="0" width="736" height="1100"><g transform="translate(284.00,128.99)"><g transform="scale(28)"><path d="M1.0000,0.0000L0.5000,0.8660L-0.5000,0.8660L-1.0000,0.0000L-0.5000,-0.8660L0.5000,-0.8660Z" fill="#fff"/></g><g transform="rotate(240) scale(28,28)"><path d="M0.5,0.866L1.0,0.0L0.5,-0.866L-0.5,-0.866L-1.0,0.0L-0.5,0.866L0.5,0.866Z" fill="#000" fill-rule="nonzero" clip-path="url(#hx)"/></g></g></mask><mask id="m22" maskUnits="userSpaceOnUse" x="0" y="0" width="736" height="1100"><g transform="translate(284.00,177.49)"><g transform="scale(28)"><path d="M1.0000,0.0000L0.5000,0.8660L-0.5000,0.8660L-1.0000,0.0000L-0.5000,-0.8660L0.5000,-0.8660Z" fill="#fff"/></g><g transform="rotate(240) scale(28,28)"><path d="M0.5,0.866L1.0,0.0L0.5,-0.866L-0.5,-0.866L-1.0,0.0L-0.5,0.866L0.5,0.866Z" fill="#000" fill-rule="nonzero" clip-path="url(#hx)"/></g></g></mask><mask id="m23" maskUnits="userSpaceOnUse" x="0" y="0" width="736" height="1100"><g transform="translate(284.00,225.99)"><g transform="scale(28)"><path d="M1.0000,0.0000L0.5000,0.8660L-0.5000,0.8660L-1.0000,0.0000L-0.5000,-0.8660L0.5000,-0.8660Z" fill="#fff"/></g><g transform="rotate(240) scale(28,28)"><path d="M0.5,0.866L1.0,0.0L0.5,-0.866L-0.5,-0.866L-1.0,0.0L-0.5,0.866L0.5,0.866Z" fill="#000" fill-rule="nonzero" clip-path="url(#hx)"/></g></g></mask><mask id="m24" maskUnits="userSpaceOnUse" x="0" y="0" width="736" height="1100"><g transform="translate(284.00,274.49)"><g transform="scale(28)"><path d="M1.0000,0.0000L0.5000,0.8660L-0.5000,0.8660L-1.0000,0.0000L-0.5000,-0.8660L0.5000,-0.8660Z" fill="#fff"/></g><g transform="rotate(240) scale(28,28)"><path d="M0.5,0.866L1.0,0.0L0.5,-0.866L-0.5,-0.866L-1.0,0.0L-0.5,0.866L0.5,0.866Z" fill="#000" fill-rule="nonzero" clip-path="url(#hx)"/></g></g></mask><mask id="m25" maskUnits="userSpaceOnUse" x="0" y="0" width="736" height="1100"><g transform="translate(284.00,516.97)"><g transform="scale(28)"><path d="M1.0000,0.0000L0.5000,0.8660L-0.5000,0.8660L-1.0000,0.0000L-0.5000,-0.8660L0.5000,-0.8660Z" fill="#fff"/></g><g transform="rotate(120) scale(28,28)"><path d="M0.5,0.866L1.0,0.0L0.5,-0.866L-0.5,-0.866L-1.0,0.0L-0.5,0.866L0.5,0.866Z" fill="#000" fill-rule="nonzero" clip-path="url(#hx)"/></g></g></mask><mask id="m26" maskUnits="userSpaceOnUse" x="0" y="0" width="736" height="1100"><g transform="translate(326.00,56.25)"><g transform="scale(28)"><path d="M1.0000,0.0000L0.5000,0.8660L-0.5000,0.8660L-1.0000,0.0000L-0.5000,-0.8660L0.5000,-0.8660Z" fill="#fff"/></g><g transform="rotate(240) scale(28,28)"><path d="M0.5,0.866L1.0,0.0L0.5,-0.866L-0.5,-0.866L-1.0,0.0L-0.5,0.866L0.5,0.866Z" fill="#000" fill-rule="nonzero" clip-path="url(#hx)"/></g></g></mask><mask id="m27" maskUnits="userSpaceOnUse" x="0" y="0" width="736" height="1100"><g transform="translate(326.00,104.75)"><g transform="scale(28)"><path d="M1.0000,0.0000L0.5000,0.8660L-0.5000,0.8660L-1.0000,0.0000L-0.5000,-0.8660L0.5000,-0.8660Z" fill="#fff"/></g><g transform="rotate(240) scale(28,28)"><path d="M0.5,0.866L1.0,0.0L0.5,-0.866L-0.5,-0.866L-1.0,0.0L-0.5,0.866L0.5,0.866Z" fill="#000" fill-rule="nonzero" clip-path="url(#hx)"/></g></g></mask><mask id="m28" maskUnits="userSpaceOnUse" x="0" y="0" width="736" height="1100"><g transform="translate(326.00,153.24)"><g transform="scale(28)"><path d="M1.0000,0.0000L0.5000,0.8660L-0.5000,0.8660L-1.0000,0.0000L-0.5000,-0.8660L0.5000,-0.8660Z" fill="#fff"/></g><g transform="rotate(240) scale(28,28)"><path d="M0.5,0.866L1.0,0.0L0.5,-0.866L-0.5,-0.866L-1.0,0.0L-0.5,0.866L0.5,0.866Z" fill="#000" fill-rule="nonzero" clip-path="url(#hx)"/></g></g></mask><mask id="m29" maskUnits="userSpaceOnUse" x="0" y="0" width="736" height="1100"><g transform="translate(326.00,201.74)"><g transform="scale(28)"><path d="M1.0000,0.0000L0.5000,0.8660L-0.5000,0.8660L-1.0000,0.0000L-0.5000,-0.8660L0.5000,-0.8660Z" fill="#fff"/></g><g transform="rotate(240) scale(28,28)"><path d="M0.5,0.866L1.0,0.0L0.5,-0.866L-0.5,-0.866L-1.0,0.0L-0.5,0.866L0.5,0.866Z" fill="#000" fill-rule="nonzero" clip-path="url(#hx)"/></g></g></mask><mask id="m30" maskUnits="userSpaceOnUse" x="0" y="0" width="736" height="1100"><g transform="translate(368.00,32.00)"><g transform="scale(28)"><path d="M1.0000,0.0000L0.5000,0.8660L-0.5000,0.8660L-1.0000,0.0000L-0.5000,-0.8660L0.5000,-0.8660Z" fill="#fff"/></g><g transform="rotate(240) scale(28,28)"><path d="M0.5,0.866L1.0,0.0L0.5,-0.866L-0.5,-0.866L-1.0,0.0L-0.5,0.866L0.5,0.866Z" fill="#000" fill-rule="nonzero" clip-path="url(#hx)"/></g></g></mask><mask id="m31" maskUnits="userSpaceOnUse" x="0" y="0" width="736" height="1100"><g transform="translate(368.00,128.99)"><g transform="scale(28)"><path d="M1.0000,0.0000L0.5000,0.8660L-0.5000,0.8660L-1.0000,0.0000L-0.5000,-0.8660L0.5000,-0.8660Z" fill="#fff"/></g><g transform="rotate(240) scale(28,28)"><path d="M0.5,0.866L1.0,0.0L0.5,-0.866L-0.5,-0.866L-1.0,0.0L-0.5,0.866L0.5,0.866Z" fill="#000" fill-rule="nonzero" clip-path="url(#hx)"/></g></g></mask><mask id="m32" maskUnits="userSpaceOnUse" x="0" y="0" width="736" height="1100"><g transform="translate(368.00,177.49)"><g transform="scale(28)"><path d="M1.0000,0.0000L0.5000,0.8660L-0.5000,0.8660L-1.0000,0.0000L-0.5000,-0.8660L0.5000,-0.8660Z" fill="#fff"/></g><g transform="rotate(240) scale(28,28)"><path d="M0.5,0.866L1.0,0.0L0.5,-0.866L-0.5,-0.866L-1.0,0.0L-0.5,0.866L0.5,0.866Z" fill="#000" fill-rule="nonzero" clip-path="url(#hx)"/></g></g></mask></defs><g transform="translate(368,550) rotate(0) translate(-368,-550)"><g style="mix-blend-mode:multiply" opacity="1"><g transform="translate(116.00,128.99)" mask="url(#m0)"><g transform="scale(28)"><path d="M1.0000,0.0000L0.5000,0.8660L-0.5000,0.8660L-1.0000,0.0000L-0.5000,-0.8660L0.5000,-0.8660Z" fill="#111111"/></g></g><g transform="translate(116.00,177.49)" mask="url(#m1)"><g transform="scale(28)"><path d="M1.0000,0.0000L0.5000,0.8660L-0.5000,0.8660L-1.0000,0.0000L-0.5000,-0.8660L0.5000,-0.8660Z" fill="#111111"/></g></g><g transform="translate(116.00,225.99)" mask="url(#m2)"><g transform="scale(28)"><path d="M1.0000,0.0000L0.5000,0.8660L-0.5000,0.8660L-1.0000,0.0000L-0.5000,-0.8660L0.5000,-0.8660Z" fill="#111111"/></g></g><g transform="translate(158.00,104.75)" mask="url(#m3)"><g transform="scale(28)"><path d="M1.0000,0.0000L0.5000,0.8660L-0.5000,0.8660L-1.0000,0.0000L-0.5000,-0.8660L0.5000,-0.8660Z" fill="#111111"/></g></g><g transform="translate(158.00,153.24)" mask="url(#m4)"><g transform="scale(28)"><path d="M1.0000,0.0000L0.5000,0.8660L-0.5000,0.8660L-1.0000,0.0000L-0.5000,-0.8660L0.5000,-0.8660Z" fill="#111111"/></g></g><g transform="translate(158.00,201.74)" mask="url(#m5)"><g transform="scale(28)"><path d="M1.0000,0.0000L0.5000,0.8660L-0.5000,0.8660L-1.0000,0.0000L-0.5000,-0.8660L0.5000,-0.8660Z" fill="#111111"/></g></g><g transform="translate(158.00,250.24)" mask="url(#m6)"><g transform="scale(28)"><path d="M1.0000,0.0000L0.5000,0.8660L-0.5000,0.8660L-1.0000,0.0000L-0.5000,-0.8660L0.5000,-0.8660Z" fill="#111111"/></g></g><g transform="translate(158.00,298.74)" mask="url(#m7)"><g transform="scale(28)"><path d="M1.0000,0.0000L0.5000,0.8660L-0.5000,0.8660L-1.0000,0.0000L-0.5000,-0.8660L0.5000,-0.8660Z" fill="#111111"/></g></g><g transform="translate(158.00,638.22)"><g transform="rotate(0) scale(28,28)"><path d="M0.5,-0.866L0.5,0.866L1.0,-0.0L0.5,-0.866Z" fill="#111111" fill-rule="nonzero" clip-path="url(#hx)"/></g></g><g transform="translate(158.00,686.72)"><g transform="rotate(0) scale(28,28)"><path d="M0.5,-0.866L0.5,0.866L1.0,-0.0L0.5,-0.866Z" fill="#111111" fill-rule="nonzero" clip-path="url(#hx)"/></g></g><g transform="translate(158.00,735.21)"><g transform="rotate(0) scale(28,28)"><path d="M0.5,-0.866L0.5,0.866L1.0,-0.0L0.5,-0.866Z" fill="#111111" fill-rule="nonzero" clip-path="url(#hx)"/></g></g><g transform="translate(158.00,880.70)"><g transform="rotate(0) scale(28,28)"><path d="M0.5,-0.866L0.5,0.866L1.0,-0.0L0.5,-0.866Z" fill="#111111" fill-rule="nonzero" clip-path="url(#hx)"/></g></g><g transform="translate(158.00,929.20)"><g transform="rotate(0) scale(28,28)"><path d="M0.5,-0.866L0.5,0.866L1.0,-0.0L0.5,-0.866Z" fill="#111111" fill-rule="nonzero" clip-path="url(#hx)"/></g></g><g transform="translate(158.00,977.70)"><g transform="rotate(0) scale(28,28)"><path d="M0.5,-0.866L0.5,0.866L1.0,-0.0L0.5,-0.866Z" fill="#111111" fill-rule="nonzero" clip-path="url(#hx)"/></g></g><g transform="translate(200.00,32.00)" mask="url(#m8)"><g transform="scale(28)"><path d="M1.0000,0.0000L0.5000,0.8660L-0.5000,0.8660L-1.0000,0.0000L-0.5000,-0.8660L0.5000,-0.8660Z" fill="#111111"/></g></g><g transform="translate(200.00,80.50)" mask="url(#m9)"><g transform="scale(28)"><path d="M1.0000,0.0000L0.5000,0.8660L-0.5000,0.8660L-1.0000,0.0000L-0.5000,-0.8660L0.5000,-0.8660Z" fill="#111111"/></g></g><g transform="translate(200.00,128.99)" mask="url(#m10)"><g transform="scale(28)"><path d="M1.0000,0.0000L0.5000,0.8660L-0.5000,0.8660L-1.0000,0.0000L-0.5000,-0.8660L0.5000,-0.8660Z" fill="#111111"/></g></g><g transform="translate(200.00,177.49)" mask="url(#m11)"><g transform="scale(28)"><path d="M1.0000,0.0000L0.5000,0.8660L-0.5000,0.8660L-1.0000,0.0000L-0.5000,-0.8660L0.5000,-0.8660Z" fill="#111111"/></g></g><g transform="translate(200.00,225.99)" mask="url(#m12)"><g transform="scale(28)"><path d="M1.0000,0.0000L0.5000,0.8660L-0.5000,0.8660L-1.0000,0.0000L-0.5000,-0.8660L0.5000,-0.8660Z" fill="#111111"/></g></g><g transform="translate(200.00,274.49)" mask="url(#m13)"><g transform="scale(28)"><path d="M1.0000,0.0000L0.5000,0.8660L-0.5000,0.8660L-1.0000,0.0000L-0.5000,-0.8660L0.5000,-0.8660Z" fill="#111111"/></g></g><g transform="translate(200.00,371.48)" mask="url(#m14)"><g transform="scale(28)"><path d="M1.0000,0.0000L0.5000,0.8660L-0.5000,0.8660L-1.0000,0.0000L-0.5000,-0.8660L0.5000,-0.8660Z" fill="#111111"/></g></g><g transform="translate(200.00,419.98)"><g transform="rotate(0) scale(28,28)"><path d="M0.5,-0.866L0.5,0.866L1.0,-0.0L0.5,-0.866Z" fill="#111111" fill-rule="nonzero" clip-path="url(#hx)"/></g></g><g transform="translate(200.00,468.48)"><g transform="rotate(0) scale(28,28)"><path d="M0.5,-0.866L0.5,0.866L1.0,-0.0L0.5,-0.866Z" fill="#111111" fill-rule="nonzero" clip-path="url(#hx)"/></g></g><g transform="translate(200.00,516.97)"><g transform="rotate(0) scale(28,28)"><path d="M0.5,-0.866L0.5,0.866L1.0,-0.0L0.5,-0.866Z" fill="#111111" fill-rule="nonzero" clip-path="url(#hx)"/></g></g><g transform="translate(200.00,613.97)"><g transform="rotate(240) scale(28,28)"><path d="M0.5,-0.866L0.5,0.866L1.0,-0.0L0.5,-0.866Z" fill="#111111" fill-rule="nonzero" clip-path="url(#hx)"/></g></g><g transform="translate(200.00,759.46)"><g transform="rotate(120) scale(28,28)"><path d="M0.5,-0.866L0.5,0.866L1.0,-0.0L0.5,-0.866Z" fill="#111111" fill-rule="nonzero" clip-path="url(#hx)"/></g></g><g transform="translate(200.00,856.46)"><g transform="rotate(240) scale(28,28)"><path d="M0.5,-0.866L0.5,0.866L1.0,-0.0L0.5,-0.866Z" fill="#111111" fill-rule="nonzero" clip-path="url(#hx)"/></g></g><g transform="translate(200.00,904.95)"><g transform="rotate(60) scale(28,28)"><path d="M0.5,-0.866L0.5,0.866L1.0,-0.0L0.5,-0.866Z" fill="#111111" fill-rule="nonzero" clip-path="url(#hx)"/></g></g><g transform="translate(200.00,1001.95)"><g transform="rotate(120) scale(28,28)"><path d="M0.5,-0.866L0.5,0.866L1.0,-0.0L0.5,-0.866Z" fill="#111111" fill-rule="nonzero" clip-path="url(#hx)"/></g></g><g transform="translate(242.00,104.75)" mask="url(#m15)"><g transform="scale(28)"><path d="M1.0000,0.0000L0.5000,0.8660L-0.5000,0.8660L-1.0000,0.0000L-0.5000,-0.8660L0.5000,-0.8660Z" fill="#111111"/></g></g><g transform="translate(242.00,153.24)" mask="url(#m16)"><g transform="scale(28)"><path d="M1.0000,0.0000L0.5000,0.8660L-0.5000,0.8660L-1.0000,0.0000L-0.5000,-0.8660L0.5000,-0.8660Z" fill="#111111"/></g></g><g transform="translate(242.00,201.74)" mask="url(#m17)"><g transform="scale(28)"><path d="M1.0000,0.0000L0.5000,0.8660L-0.5000,0.8660L-1.0000,0.0000L-0.5000,-0.8660L0.5000,-0.8660Z" fill="#111111"/></g></g><g transform="translate(242.00,250.24)" mask="url(#m18)"><g transform="scale(28)"><path d="M1.0000,0.0000L0.5000,0.8660L-0.5000,0.8660L-1.0000,0.0000L-0.5000,-0.8660L0.5000,-0.8660Z" fill="#111111"/></g></g><g transform="translate(242.00,298.74)" mask="url(#m19)"><g transform="scale(28)"><path d="M1.0000,0.0000L0.5000,0.8660L-0.5000,0.8660L-1.0000,0.0000L-0.5000,-0.8660L0.5000,-0.8660Z" fill="#111111"/></g></g><g transform="translate(242.00,395.73)"><g transform="rotate(240) scale(28,28)"><path d="M0.5,-0.866L0.5,0.866L1.0,-0.0L0.5,-0.866Z" fill="#111111" fill-rule="nonzero" clip-path="url(#hx)"/></g></g><g transform="translate(242.00,444.23)"><g transform="rotate(240) scale(28,28)"><path d="M0.5,-0.866L0.5,0.866L1.0,-0.0L0.5,-0.866Z" fill="#111111" fill-rule="nonzero" clip-path="url(#hx)"/></g><g transform="rotate(120) scale(28,28)"><path d="M0.5,-0.866L0.5,0.866L1.0,-0.0L0.5,-0.866Z" fill="#111111" fill-rule="nonzero" clip-path="url(#hx)"/></g></g><g transform="translate(242.00,589.72)"><g transform="rotate(240) scale(28,28)"><path d="M0.5,-0.866L0.5,0.866L1.0,-0.0L0.5,-0.866Z" fill="#111111" fill-rule="nonzero" clip-path="url(#hx)"/></g><g transform="rotate(300) scale(28,28)"><path d="M0.5,-0.866L0.5,0.866L1.0,-0.0L0.5,-0.866Z" fill="#111111" fill-rule="nonzero" clip-path="url(#hx)"/></g></g><g transform="translate(242.00,735.21)"><g transform="rotate(300) scale(28,28)"><path d="M0.5,-0.866L0.5,0.866L1.0,-0.0L0.5,-0.866Z" fill="#111111" fill-rule="nonzero" clip-path="url(#hx)"/></g></g><g transform="translate(242.00,783.71)"><g transform="rotate(240) scale(28,28)"><path d="M0.5,-0.866L0.5,0.866L1.0,-0.0L0.5,-0.866Z" fill="#111111" fill-rule="nonzero" clip-path="url(#hx)"/></g></g><g transform="translate(242.00,832.21)"><g transform="rotate(240) scale(28,28)"><path d="M0.5,-0.866L0.5,0.866L1.0,-0.0L0.5,-0.866Z" fill="#111111" fill-rule="nonzero" clip-path="url(#hx)"/></g><g transform="rotate(300) scale(28,28)"><path d="M0.5,-0.866L0.5,0.866L1.0,-0.0L0.5,-0.866Z" fill="#111111" fill-rule="nonzero" clip-path="url(#hx)"/></g></g><g transform="translate(242.00,1026.20)"><g transform="rotate(240) scale(28,28)"><path d="M0.5,-0.866L0.5,0.866L1.0,-0.0L0.5,-0.866Z" fill="#111111" fill-rule="nonzero" clip-path="url(#hx)"/></g></g><g transform="translate(284.00,80.50)" mask="url(#m20)"><g transform="scale(28)"><path d="M1.0000,0.0000L0.5000,0.8660L-0.5000,0.8660L-1.0000,0.0000L-0.5000,-0.8660L0.5000,-0.8660Z" fill="#111111"/></g></g><g transform="translate(284.00,128.99)" mask="url(#m21)"><g transform="scale(28)"><path d="M1.0000,0.0000L0.5000,0.8660L-0.5000,0.8660L-1.0000,0.0000L-0.5000,-0.8660L0.5000,-0.8660Z" fill="#111111"/></g></g><g transform="translate(284.00,177.49)" mask="url(#m22)"><g transform="scale(28)"><path d="M1.0000,0.0000L0.5000,0.8660L-0.5000,0.8660L-1.0000,0.0000L-0.5000,-0.8660L0.5000,-0.8660Z" fill="#111111"/></g></g><g transform="translate(284.00,225.99)" mask="url(#m23)"><g transform="scale(28)"><path d="M1.0000,0.0000L0.5000,0.8660L-0.5000,0.8660L-1.0000,0.0000L-0.5000,-0.8660L0.5000,-0.8660Z" fill="#111111"/></g></g><g transform="translate(284.00,274.49)" mask="url(#m24)"><g transform="scale(28)"><path d="M1.0000,0.0000L0.5000,0.8660L-0.5000,0.8660L-1.0000,0.0000L-0.5000,-0.8660L0.5000,-0.8660Z" fill="#111111"/></g></g><g transform="translate(284.00,371.48)"><g transform="rotate(240) scale(28,28)"><path d="M0.5,-0.866L0.5,0.866L1.0,-0.0L0.5,-0.866Z" fill="#111111" fill-rule="nonzero" clip-path="url(#hx)"/></g><g transform="rotate(300) scale(28,28)"><path d="M0.5,-0.866L0.5,0.866L1.0,-0.0L0.5,-0.866Z" fill="#111111" fill-rule="nonzero" clip-path="url(#hx)"/></g></g><g transform="translate(284.00,419.98)"><g transform="rotate(60) scale(28,28)"><path d="M0.5,-0.866L0.5,0.866L1.0,-0.0L0.5,-0.866Z" fill="#111111" fill-rule="nonzero" clip-path="url(#hx)"/></g><g transform="rotate(120) scale(28,28)"><path d="M0.5,-0.866L0.5,0.866L1.0,-0.0L0.5,-0.866Z" fill="#111111" fill-rule="nonzero" clip-path="url(#hx)"/></g></g><g transform="translate(284.00,468.48)"><g transform="rotate(120) scale(28,28)"><path d="M0.5,-0.866L0.5,0.866L1.0,-0.0L0.5,-0.866Z" fill="#111111" fill-rule="nonzero" clip-path="url(#hx)"/></g></g><g transform="translate(284.00,516.97)" mask="url(#m25)"><g transform="scale(28)"><path d="M1.0000,0.0000L0.5000,0.8660L-0.5000,0.8660L-1.0000,0.0000L-0.5000,-0.8660L0.5000,-0.8660Z" fill="#111111"/></g></g><g transform="translate(284.00,613.97)"><g transform="rotate(300) scale(28,28)"><path d="M0.5,-0.866L0.5,0.866L1.0,-0.0L0.5,-0.866Z" fill="#111111" fill-rule="nonzero" clip-path="url(#hx)"/></g><g transform="rotate(0) scale(28,28)"><path d="M0.5,-0.866L0.5,0.866L1.0,-0.0L0.5,-0.866Z" fill="#111111" fill-rule="nonzero" clip-path="url(#hx)"/></g></g><g transform="translate(284.00,662.47)"><g transform="rotate(0) scale(28,28)"><path d="M0.5,-0.866L0.5,0.866L1.0,-0.0L0.5,-0.866Z" fill="#111111" fill-rule="nonzero" clip-path="url(#hx)"/></g></g><g transform="translate(284.00,710.96)"><g transform="rotate(0) scale(28,28)"><path d="M0.5,-0.866L0.5,0.866L1.0,-0.0L0.5,-0.866Z" fill="#111111" fill-rule="nonzero" clip-path="url(#hx)"/></g></g><g transform="translate(284.00,759.46)"><g transform="rotate(240) scale(28,28)"><path d="M0.5,-0.866L0.5,0.866L1.0,-0.0L0.5,-0.866Z" fill="#111111" fill-rule="nonzero" clip-path="url(#hx)"/></g><g transform="rotate(300) scale(28,28)"><path d="M0.5,-0.866L0.5,0.866L1.0,-0.0L0.5,-0.866Z" fill="#111111" fill-rule="nonzero" clip-path="url(#hx)"/></g></g><g transform="translate(284.00,1001.95)"><g transform="rotate(240) scale(28,28)"><path d="M0.5,-0.866L0.5,0.866L1.0,-0.0L0.5,-0.866Z" fill="#111111" fill-rule="nonzero" clip-path="url(#hx)"/></g></g><g transform="translate(326.00,56.25)" mask="url(#m26)"><g transform="scale(28)"><path d="M1.0000,0.0000L0.5000,0.8660L-0.5000,0.8660L-1.0000,0.0000L-0.5000,-0.8660L0.5000,-0.8660Z" fill="#111111"/></g></g><g transform="translate(326.00,104.75)" mask="url(#m27)"><g transform="scale(28)"><path d="M1.0000,0.0000L0.5000,0.8660L-0.5000,0.8660L-1.0000,0.0000L-0.5000,-0.8660L0.5000,-0.8660Z" fill="#111111"/></g></g><g transform="translate(326.00,153.24)" mask="url(#m28)"><g transform="scale(28)"><path d="M1.0000,0.0000L0.5000,0.8660L-0.5000,0.8660L-1.0000,0.0000L-0.5000,-0.8660L0.5000,-0.8660Z" fill="#111111"/></g></g><g transform="translate(326.00,201.74)" mask="url(#m29)"><g transform="scale(28)"><path d="M1.0000,0.0000L0.5000,0.8660L-0.5000,0.8660L-1.0000,0.0000L-0.5000,-0.8660L0.5000,-0.8660Z" fill="#111111"/></g></g><g transform="translate(326.00,395.73)"><g transform="rotate(180) scale(28,28)"><path d="M0.5,-0.866L0.5,0.866L1.0,-0.0L0.5,-0.866Z" fill="#111111" fill-rule="nonzero" clip-path="url(#hx)"/></g></g><g transform="translate(326.00,492.73)"><g transform="rotate(120) scale(28,28)"><path d="M0.5,-0.866L0.5,0.866L1.0,-0.0L0.5,-0.866Z" fill="#111111" fill-rule="nonzero" clip-path="url(#hx)"/></g></g><g transform="translate(368.00,32.00)" mask="url(#m30)"><g transform="scale(28)"><path d="M1.0000,0.0000L0.5000,0.8660L-0.5000,0.8660L-1.0000,0.0000L-0.5000,-0.8660L0.5000,-0.8660Z" fill="#111111"/></g></g><g transform="translate(368.00,128.99)" mask="url(#m31)"><g transform="scale(28)"><path d="M1.0000,0.0000L0.5000,0.8660L-0.5000,0.8660L-1.0000,0.0000L-0.5000,-0.8660L0.5000,-0.8660Z" fill="#111111"/></g></g><g transform="translate(368.00,177.49)" mask="url(#m32)"><g transform="scale(28)"><path d="M1.0000,0.0000L0.5000,0.8660L-0.5000,0.8660L-1.0000,0.0000L-0.5000,-0.8660L0.5000,-0.8660Z" fill="#111111"/></g></g><g transform="translate(368.00,419.98)"><g transform="rotate(0) scale(28,28)"><path d="M0.5,-0.866L0.5,0.866L1.0,-0.0L0.5,-0.866Z" fill="#111111" fill-rule="nonzero" clip-path="url(#hx)"/></g></g><g transform="translate(368.00,468.48)"><g transform="rotate(0) scale(28,28)"><path d="M0.5,-0.866L0.5,0.866L1.0,-0.0L0.5,-0.866Z" fill="#111111" fill-rule="nonzero" clip-path="url(#hx)"/></g></g><g transform="translate(368.00,516.97)"><g transform="rotate(0) scale(28,28)"><path d="M0.5,-0.866L0.5,0.866L1.0,-0.0L0.5,-0.866Z" fill="#111111" fill-rule="nonzero" clip-path="url(#hx)"/></g></g><g transform="translate(368.00,613.97)"><g transform="rotate(0) scale(28,28)"><path d="M0.5,-0.866L0.5,0.866L1.0,-0.0L0.5,-0.866Z" fill="#111111" fill-rule="nonzero" clip-path="url(#hx)"/></g></g><g transform="translate(368.00,662.47)"><g transform="rotate(0) scale(28,28)"><path d="M0.5,-0.866L0.5,0.866L1.0,-0.0L0.5,-0.866Z" fill="#111111" fill-rule="nonzero" clip-path="url(#hx)"/></g></g><g transform="translate(368.00,710.96)"><g transform="rotate(0) scale(28,28)"><path d="M0.5,-0.866L0.5,0.866L1.0,-0.0L0.5,-0.866Z" fill="#111111" fill-rule="nonzero" clip-path="url(#hx)"/></g></g><g transform="translate(410.00,395.73)"><g transform="rotate(240) scale(28,28)"><path d="M0.5,-0.866L0.5,0.866L1.0,-0.0L0.5,-0.866Z" fill="#111111" fill-rule="nonzero" clip-path="url(#hx)"/></g></g><g transform="translate(410.00,444.23)"><g transform="rotate(60) scale(28,28)"><path d="M0.5,-0.866L0.5,0.866L1.0,-0.0L0.5,-0.866Z" fill="#111111" fill-rule="nonzero" clip-path="url(#hx)"/></g></g><g transform="translate(410.00,735.21)"><g transform="rotate(120) scale(28,28)"><path d="M0.5,-0.866L0.5,0.866L1.0,-0.0L0.5,-0.866Z" fill="#111111" fill-rule="nonzero" clip-path="url(#hx)"/></g></g><g transform="translate(410.00,880.70)"><g transform="rotate(0) scale(28,28)"><path d="M0.5,-0.866L0.5,0.866L1.0,-0.0L0.5,-0.866Z" fill="#111111" fill-rule="nonzero" clip-path="url(#hx)"/></g></g><g transform="translate(410.00,929.20)"><g transform="rotate(0) scale(28,28)"><path d="M0.5,-0.866L0.5,0.866L1.0,-0.0L0.5,-0.866Z" fill="#111111" fill-rule="nonzero" clip-path="url(#hx)"/></g></g><g transform="translate(410.00,977.70)"><g transform="rotate(0) scale(28,28)"><path d="M0.5,-0.866L0.5,0.866L1.0,-0.0L0.5,-0.866Z" fill="#111111" fill-rule="nonzero" clip-path="url(#hx)"/></g></g><g transform="translate(452.00,371.48)"><g transform="rotate(240) scale(28,28)"><path d="M0.5,-0.866L0.5,0.866L1.0,-0.0L0.5,-0.866Z" fill="#111111" fill-rule="nonzero" clip-path="url(#hx)"/></g><g transform="rotate(300) scale(28,28)"><path d="M0.5,-0.866L0.5,0.866L1.0,-0.0L0.5,-0.866Z" fill="#111111" fill-rule="nonzero" clip-path="url(#hx)"/></g></g><g transform="translate(452.00,419.98)"><g transform="rotate(60) scale(28,28)"><path d="M0.5,-0.866L0.5,0.866L1.0,-0.0L0.5,-0.866Z" fill="#111111" fill-rule="nonzero" clip-path="url(#hx)"/></g></g><g transform="translate(452.00,759.46)"><g transform="rotate(240) scale(28,28)"><path d="M0.5,-0.866L0.5,0.866L1.0,-0.0L0.5,-0.866Z" fill="#111111" fill-rule="nonzero" clip-path="url(#hx)"/></g></g><g transform="translate(452.00,1001.95)"><g transform="rotate(120) scale(28,28)"><path d="M0.5,-0.866L0.5,0.866L1.0,-0.0L0.5,-0.866Z" fill="#111111" fill-rule="nonzero" clip-path="url(#hx)"/></g></g><g transform="translate(494.00,395.73)"><g transform="rotate(300) scale(28,28)"><path d="M0.5,-0.866L0.5,0.866L1.0,-0.0L0.5,-0.866Z" fill="#111111" fill-rule="nonzero" clip-path="url(#hx)"/></g><g transform="rotate(0) scale(28,28)"><path d="M0.5,-0.866L0.5,0.866L1.0,-0.0L0.5,-0.866Z" fill="#111111" fill-rule="nonzero" clip-path="url(#hx)"/></g></g><g transform="translate(494.00,444.23)"><g transform="rotate(0) scale(28,28)"><path d="M0.5,-0.866L0.5,0.866L1.0,-0.0L0.5,-0.866Z" fill="#111111" fill-rule="nonzero" clip-path="url(#hx)"/></g><g transform="rotate(300) scale(28,28)"><path d="M0.5,-0.866L0.5,0.866L1.0,-0.0L0.5,-0.866Z" fill="#111111" fill-rule="nonzero" clip-path="url(#hx)"/></g></g><g transform="translate(494.00,492.73)"><g transform="rotate(0) scale(28,28)"><path d="M0.5,-0.866L0.5,0.866L1.0,-0.0L0.5,-0.866Z" fill="#111111" fill-rule="nonzero" clip-path="url(#hx)"/></g></g><g transform="translate(494.00,589.72)"><g transform="rotate(0) scale(28,28)"><path d="M0.5,-0.866L0.5,0.866L1.0,-0.0L0.5,-0.866Z" fill="#111111" fill-rule="nonzero" clip-path="url(#hx)"/></g></g><g transform="translate(494.00,638.22)"><g transform="rotate(0) scale(28,28)"><path d="M0.5,-0.866L0.5,0.866L1.0,-0.0L0.5,-0.866Z" fill="#111111" fill-rule="nonzero" clip-path="url(#hx)"/></g></g><g transform="translate(494.00,686.72)"><g transform="rotate(0) scale(28,28)"><path d="M0.5,-0.866L0.5,0.866L1.0,-0.0L0.5,-0.866Z" fill="#111111" fill-rule="nonzero" clip-path="url(#hx)"/></g></g><g transform="translate(494.00,735.21)"><g transform="rotate(240) scale(28,28)"><path d="M0.5,-0.866L0.5,0.866L1.0,-0.0L0.5,-0.866Z" fill="#111111" fill-rule="nonzero" clip-path="url(#hx)"/></g></g><g transform="translate(494.00,1026.20)"><g transform="rotate(240) scale(28,28)"><path d="M0.5,-0.866L0.5,0.866L1.0,-0.0L0.5,-0.866Z" fill="#111111" fill-rule="nonzero" clip-path="url(#hx)"/></g></g><g transform="translate(536.00,1001.95)"><g transform="rotate(240) scale(28,28)"><path d="M0.5,-0.866L0.5,0.866L1.0,-0.0L0.5,-0.866Z" fill="#111111" fill-rule="nonzero" clip-path="url(#hx)"/></g></g></g></g></svg>