<svg xmlns="http://www.w3.org/2000/svg" width="890" height="1349" viewBox="0 0 890 1349"><rect width="890" height="1349" fill="#f2f2f0"/><defs><clipPath id="hx" clipPathUnits="userSpaceOnUse"><path d="M1.0000,0.0000L0.5000,0.8660L-0.5000,0.8660L-1.0000,0.0000L-0.5000,-0.8660L0.5000,-0.8660Z"/></clipPath></defs><g transform="translate(148.00,351.77)"><g transform="scale(36)"><path d="M1.0000,0.0000L0.5000,0.8660L-0.5000,0.8660L-1.0000,0.0000L-0.5000,-0.8660L0.5000,-0.8660Z" fill="#fff"/></g><g transform="rotate(0) scale(36,36)"><path d="M0.831,-0.291L0.831,-0.291L0.665,-0.577C0.655,-0.571 0.645,-0.565 0.635,-0.558C0.421,-0.463 0.171,-0.615 0.165,-0.855C0.165,-0.858 0.165,-0.861 0.165,-0.864L0.164,-0.864C0.164,-0.864 0.164,-0.864 0.164,-0.865L-0.166,-0.865C-0.166,-0.861 -0.166,-0.858 -0.166,-0.855C-0.171,-0.614 -0.421,-0.461 -0.636,-0.557C-0.645,-0.564 -0.655,-0.57 -0.666,-0.576L-0.667,-0.573L-0.668,-0.574L-0.833,-0.288L-0.833,-0.288C-0.822,-0.282 -0.812,-0.276 -0.801,-0.27C-0.611,-0.133 -0.618,0.159 -0.823,0.285C-0.825,0.286 -0.828,0.288 -0.83,0.289L-0.83,0.29C-0.83,0.29 -0.831,0.29 -0.831,0.29L-0.831,0.29L-0.666,0.576C-0.663,0.574 -0.661,0.573 -0.658,0.571C-0.446,0.456 -0.189,0.595 -0.165,0.829C-0.165,0.841 -0.166,0.853 -0.166,0.865L-0.163,0.865C-0.163,0.865 -0.163,0.865 -0.163,0.865L-0.163,0.865L0.167,0.865L0.167,0.865C0.167,0.853 0.167,0.841 0.166,0.829C0.19,0.595 0.447,0.456 0.658,0.57C0.661,0.572 0.663,0.573 0.665,0.575L0.666,0.574C0.666,0.574 0.666,0.574 0.667,0.575L0.832,0.289C0.829,0.287 0.826,0.286 0.823,0.284C0.618,0.159 0.61,-0.134 0.8,-0.272C0.811,-0.277 0.821,-0.283 0.832,-0.289L0.83,-0.291L0.831,-0.291Z" fill="#000" fill-rule="nonzero" clip-path="url(#hx)"/></g></g><g transform="translate(148.00,414.12)"><g transform="scale(36)"><path d="M1.0000,0.0000L0.5000,0.8660L-0.5000,0.8660L-1.0000,0.0000L-0.5000,-0.8660L0.5000,-0.8660Z" fill="#fff"/></g><g transform="rotate(0) scale(36,36)"><path d="M0.831,-0.291L0.831,-0.291L0.665,-0.577C0.655,-0.571 0.645,-0.565 0.635,-0.558C0.421,-0.463 0.171,-0.615 0.165,-0.855C0.165,-0.858 0.165,-0.861 0.165,-0.864L0.164,-0.864C0.164,-0.864 0.164,-0.864 0.164,-0.865L-0.166,-0.865C-0.166,-0.861 -0.166,-0.858 -0.166,-0.855C-0.171,-0.614 -0.421,-0.461 -0.636,-0.557C-0.645,-0.564 -0.655,-0.57 -0.666,-0.576L-0.667,-0.573L-0.668,-0.574L-0.833,-0.288L-0.833,-0.288C-0.822,-0.282 -0.812,-0.276 -0.801,-0.27C-0.611,-0.133 -0.618,0.159 -0.823,0.285C-0.825,0.286 -0.828,0.288 -0.83,0.289L-0.83,0.29C-0.83,0.29 -0.831,0.29 -0.831,0.29L-0.831,0.29L-0.666,0.576C-0.663,0.574 -0.661,0.573 -0.658,0.571C-0.446,0.456 -0.189,0.595 -0.165,0.829C-0.165,0.841 -0.166,0.853 -0.166,0.865L-0.163,0.865C-0.163,0.865 -0.163,0.865 -0.163,0.865L-0.163,0.865L0.167,0.865L0.167,0.865C0.167,0.853 0.167,0.841 0.166,0.829C0.19,0.595 0.447,0.456 0.658,0.57C0.661,0.572 0.663,0.573 0.665,0.575L0.666,0.574C0.666,0.574 0.666,0.574 0.667,0.575L0.832,0.289C0.829,0.287 0.826,0.286 0.823,0.284C0.618,0.159 0.61,-0.134 0.8,-0.272C0.811,-0.277 0.821,-0.283 0.832,-0.289L0.83,-0.291L0.831,-0.291Z" fill="#000" fill-rule="nonzero" clip-path="url(#hx)"/></g></g><g transform="translate(148.00,538.83)"><g transform="scale(36)"><path d="M1.0000,0.0000L0.5000,0.8660L-0.5000,0.8660L-1.0000,0.0000L-0.5000,-0.8660L0.5000,-0.8660Z" fill="#fff"/></g><g transform="rotate(0) scale(36,36)"><path d="M0.831,-0.291L0.831,-0.291L0.665,-0.577C0.655,-0.571 0.645,-0.565 0.635,-0.558C0.421,-0.463 0.171,-0.615 0.165,-0.855C0.165,-0.858 0.165,-0.861 0.165,-0.864L0.164,-0.864C0.164,-0.864 0.164,-0.864 0.164,-0.865L-0.166,-0.865C-0.166,-0.861 -0.166,-0.858 -0.166,-0.855C-0.171,-0.614 -0.421,-0.461 -0.636,-0.557C-0.645,-0.564 -0.655,-0.57 -0.666,-0.576L-0.667,-0.573L-0.668,-0.574L-0.833,-0.288L-0.833,-0.288C-0.822,-0.282 -0.812,-0.276 -0.801,-0.27C-0.611,-0.133 -0.618,0.159 -0.823,0.285C-0.825,0.286 -0.828,0.288 -0.83,0.289L-0.83,0.29C-0.83,0.29 -0.831,0.29 -0.831,0.29L-0.831,0.29L-0.666,0.576C-0.663,0.574 -0.661,0.573 -0.658,0.571C-0.446,0.456 -0.189,0.595 -0.165,0.829C-0.165,0.841 -0.166,0.853 -0.166,0.865L-0.163,0.865C-0.163,0.865 -0.163,0.865 -0.163,0.865L-0.163,0.865L0.167,0.865L0.167,0.865C0.167,0.853 0.167,0.841 0.166,0.829C0.19,0.595 0.447,0.456 0.658,0.57C0.661,0.572 0.663,0.573 0.665,0.575L0.666,0.574C0.666,0.574 0.666,0.574 0.667,0.575L0.832,0.289C0.829,0.287 0.826,0.286 0.823,0.284C0.618,0.159 0.61,-0.134 0.8,-0.272C0.811,-0.277 0.821,-0.283 0.832,-0.289L0.83,-0.291L0.831,-0.291Z" fill="#000" fill-rule="nonzero" clip-path="url(#hx)"/></g></g><g transform="translate(148.00,725.89)"><g transform="scale(36)"><path d="M1.0000,0.0000L0.5000,0.8660L-0.5000,0.8660L-1.0000,0.0000L-0.5000,-0.8660L0.5000,-0.8660Z" fill="#fff"/></g><g transform="rotate(180) scale(36,36)"><path d="M0.831,-0.291L0.831,-0.291L0.665,-0.577C0.655,-0.571 0.645,-0.565 0.635,-0.558C0.421,-0.463 0.171,-0.615 0.165,-0.855C0.165,-0.858 0.165,-0.861 0.165,-0.864L0.164,-0.864C0.164,-0.864 0.164,-0.864 0.164,-0.865L-0.166,-0.865C-0.166,-0.861 -0.166,-0.858 -0.166,-0.855C-0.171,-0.614 -0.421,-0.461 -0.636,-0.557C-0.645,-0.564 -0.655,-0.57 -0.666,-0.576L-0.667,-0.573L-0.668,-0.574L-0.833,-0.288L-0.833,-0.288C-0.822,-0.282 -0.812,-0.276 -0.801,-0.27C-0.611,-0.133 -0.618,0.159 -0.823,0.285C-0.825,0.286 -0.828,0.288 -0.83,0.289L-0.83,0.29C-0.83,0.29 -0.831,0.29 -0.831,0.29L-0.831,0.29L-0.666,0.576C-0.663,0.574 -0.661,0.573 -0.658,0.571C-0.446,0.456 -0.189,0.595 -0.165,0.829C-0.165,0.841 -0.166,0.853 -0.166,0.865L-0.163,0.865C-0.163,0.865 -0.163,0.865 -0.163,0.865L-0.163,0.865L0.167,0.865L0.167,0.865C0.167,0.853 0.167,0.841 0.166,0.829C0.19,0.595 0.447,0.456 0.658,0.57C0.661,0.572 0.663,0.573 0.665,0.575L0.666,0.574C0.666,0.574 0.666,0.574 0.667,0.575L0.832,0.289C0.829,0.287 0.826,0.286 0.823,0.284C0.618,0.159 0.61,-0.134 0.8,-0.272C0.811,-0.277 0.821,-0.283 0.832,-0.289L0.83,-0.291L0.831,-0.291Z" fill="#000" fill-rule="nonzero" clip-path="url(#hx)"/></g></g><g transform="translate(148.00,788.25)"><g transform="scale(36)"><path d="M1.0000,0.0000L0.5000,0.8660L-0.5000,0.8660L-1.0000,0.0000L-0.5000,-0.8660L0.5000,-0.8660Z" fill="#fff"/></g><g transform="rotate(180) scale(36,36)"><path d="M0.831,-0.291L0.831,-0.291L0.665,-0.577C0.655,-0.571 0.645,-0.565 0.635,-0.558C0.421,-0.463 0.171,-0.615 0.165,-0.855C0.165,-0.858 0.165,-0.861 0.165,-0.864L0.164,-0.864C0.164,-0.864 0.164,-0.864 0.164,-0.865L-0.166,-0.865C-0.166,-0.861 -0.166,-0.858 -0.166,-0.855C-0.171,-0.614 -0.421,-0.461 -0.636,-0.557C-0.645,-0.564 -0.655,-0.57 -0.666,-0.576L-0.667,-0.573L-0.668,-0.574L-0.833,-0.288L-0.833,-0.288C-0.822,-0.282 -0.812,-0.276 -0.801,-0.27C-0.611,-0.133 -0.618,0.159 -0.823,0.285C-0.825,0.286 -0.828,0.288 -0.83,0.289L-0.83,0.29C-0.83,0.29 -0.831,0.29 -0.831,0.29L-0.831,0.29L-0.666,0.576C-0.663,0.574 -0.661,0.573 -0.658,0.571C-0.446,0.456 -0.189,0.595 -0.165,0.829C-0.165,0.841 -0.166,0.853 -0.166,0.865L-0.163,0.865C-0.163,0.865 -0.163,0.865 -0.163,0.865L-0.163,0.865L0.167,0.865L0.167,0.865C0.167,0.853 0.167,0.841 0.166,0.829C0.19,0.595 0.447,0.456 0.658,0.57C0.661,0.572 0.663,0.573 0.665,0.575L0.666,0.574C0.666,0.574 0.666,0.574 0.667,0.575L0.832,0.289C0.829,0.287 0.826,0.286 0.823,0.284C0.618,0.159 0.61,-0.134 0.8,-0.272C0.811,-0.277 0.821,-0.283 0.832,-0.289L0.83,-0.291L0.831,-0.291Z" fill="#000" fill-rule="nonzero" clip-path="url(#hx)"/></g></g><g transform="translate(148.00,850.60)"><g transform="scale(36)"><path d="M1.0000,0.0000L0.5000,0.8660L-0.5000,0.8660L-1.0000,0.0000L-0.5000,-0.8660L0.5000,-0.8660Z" fill="#fff"/></g><g transform="rotate(180) scale(36,36)"><path d="M0.831,-0.291L0.831,-0.291L0.665,-0.577C0.655,-0.571 0.645,-0.565 0.635,-0.558C0.421,-0.463 0.171,-0.615 0.165,-0.855C0.165,-0.858 0.165,-0.861 0.165,-0.864L0.164,-0.864C0.164,-0.864 0.164,-0.864 0.164,-0.865L-0.166,-0.865C-0.166,-0.861 -0.166,-0.858 -0.166,-0.855C-0.171,-0.614 -0.421,-0.461 -0.636,-0.557C-0.645,-0.564 -0.655,-0.57 -0.666,-0.576L-0.667,-0.573L-0.668,-0.574L-0.833,-0.288L-0.833,-0.288C-0.822,-0.282 -0.812,-0.276 -0.801,-0.27C-0.611,-0.133 -0.618,0.159 -0.823,0.285C-0.825,0.286 -0.828,0.288 -0.83,0.289L-0.83,0.29C-0.83,0.29 -0.831,0.29 -0.831,0.29L-0.831,0.29L-0.666,0.576C-0.663,0.574 -0.661,0.573 -0.658,0.571C-0.446,0.456 -0.189,0.595 -0.165,0.829C-0.165,0.841 -0.166,0.853 -0.166,0.865L-0.163,0.865C-0.163,0.865 -0.163,0.865 -0.163,0.865L-0.163,0.865L0.167,0.865L0.167,0.865C0.167,0.853 0.167,0.841 0.166,0.829C0.19,0.595 0.447,0.456 0.658,0.57C0.661,0.572 0.663,0.573 0.665,0.575L0.666,0.574C0.666,0.574 0.666,0.574 0.667,0.575L0.832,0.289C0.829,0.287 0.826,0.286 0.823,0.284C0.618,0.159 0.61,-0.134 0.8,-0.272C0.811,-0.277 0.821,-0.283 0.832,-0.289L0.83,-0.291L0.831,-0.291Z" fill="#000" fill-rule="nonzero" clip-path="url(#hx)"/></g></g><g transform="translate(202.00,320.59)"><g transform="scale(36)"><path d="M1.0000,0.0000L0.5000,0.8660L-0.5000,0.8660L-1.0000,0.0000L-0.5000,-0.8660L0.5000,-0.8660Z" fill="#fff"/></g><g transform="rotate(0) scale(36,36)"><path d="M0.831,-0.291L0.831,-0.291L0.665,-0.577C0.655,-0.571 0.645,-0.565 0.635,-0.558C0.421,-0.463 0.171,-0.615 0.165,-0.855C0.165,-0.858 0.165,-0.861 0.165,-0.864L0.164,-0.864C0.164,-0.864 0.164,-0.864 0.164,-0.865L-0.166,-0.865C-0.166,-0.861 -0.166,-0.858 -0.166,-0.855C-0.171,-0.614 -0.421,-0.461 -0.636,-0.557C-0.645,-0.564 -0.655,-0.57 -0.666,-0.576L-0.667,-0.573L-0.668,-0.574L-0.833,-0.288L-0.833,-0.288C-0.822,-0.282 -0.812,-0.276 -0.801,-0.27C-0.611,-0.133 -0.618,0.159 -0.823,0.285C-0.825,0.286 -0.828,0.288 -0.83,0.289L-0.83,0.29C-0.83,0.29 -0.831,0.29 -0.831,0.29L-0.831,0.29L-0.666,0.576C-0.663,0.574 -0.661,0.573 -0.658,0.571C-0.446,0.456 -0.189,0.595 -0.165,0.829C-0.165,0.841 -0.166,0.853 -0.166,0.865L-0.163,0.865C-0.163,0.865 -0.163,0.865 -0.163,0.865L-0.163,0.865L0.167,0.865L0.167,0.865C0.167,0.853 0.167,0.841 0.166,0.829C0.19,0.595 0.447,0.456 0.658,0.57C0.661,0.572 0.663,0.573 0.665,0.575L0.666,0.574C0.666,0.574 0.666,0.574 0.667,0.575L0.832,0.289C0.829,0.287 0.826,0.286 0.823,0.284C0.618,0.159 0.61,-0.134 0.8,-0.272C0.811,-0.277 0.821,-0.283 0.832,-0.289L0.83,-0.291L0.831,-0.291Z" fill="#000" fill-rule="nonzero" clip-path="url(#hx)"/></g></g><g transform="translate(202.00,445.30)"><g transform="scale(36)"><path d="M1.0000,0.0000L0.5000,0.8660L-0.5000,0.8660L-1.0000,0.0000L-0.5000,-0.8660L0.5000,-0.8660Z" fill="#fff"/></g><g transform="rotate(0) scale(36,36)"><path d="M0.831,-0.291L0.831,-0.291L0.665,-0.577C0.655,-0.571 0.645,-0.565 0.635,-0.558C0.421,-0.463 0.171,-0.615 0.165,-0.855C0.165,-0.858 0.165,-0.861 0.165,-0.864L0.164,-0.864C0.164,-0.864 0.164,-0.864 0.164,-0.865L-0.166,-0.865C-0.166,-0.861 -0.166,-0.858 -0.166,-0.855C-0.171,-0.614 -0.421,-0.461 -0.636,-0.557C-0.645,-0.564 -0.655,-0.57 -0.666,-0.576L-0.667,-0.573L-0.668,-0.574L-0.833,-0.288L-0.833,-0.288C-0.822,-0.282 -0.812,-0.276 -0.801,-0.27C-0.611,-0.133 -0.618,0.159 -0.823,0.285C-0.825,0.286 -0.828,0.288 -0.83,0.289L-0.83,0.29C-0.83,0.29 -0.831,0.29 -0.831,0.29L-0.831,0.29L-0.666,0.576C-0.663,0.574 -0.661,0.573 -0.658,0.571C-0.446,0.456 -0.189,0.595 -0.165,0.829C-0.165,0.841 -0.166,0.853 -0.166,0.865L-0.163,0.865C-0.163,0.865 -0.163,0.865 -0.163,0.865L-0.163,0.865L0.167,0.865L0.167,0.865C0.167,0.853 0.167,0.841 0.166,0.829C0.19,0.595 0.447,0.456 0.658,0.57C0.661,0.572 0.663,0.573 0.665,0.575L0.666,0.574C0.666,0.574 0.666,0.574 0.667,0.575L0.832,0.289C0.829,0.287 0.826,0.286 0.823,0.284C0.618,0.159 0.61,-0.134 0.8,-0.272C0.811,-0.277 0.821,-0.283 0.832,-0.289L0.83,-0.291L0.831,-0.291Z" fill="#000" fill-rule="nonzero" clip-path="url(#hx)"/></g></g><g transform="translate(202.00,570.01)"><g transform="scale(36)"><path d="M1.0000,0.0000L0.5000,0.8660L-0.5000,0.8660L-1.0000,0.0000L-0.5000,-0.8660L0.5000,-0.8660Z" fill="#fff"/></g><g transform="rotate(0) scale(36,36)"><path d="M0.831,-0.291L0.831,-0.291L0.665,-0.577C0.655,-0.571 0.645,-0.565 0.635,-0.558C0.421,-0.463 0.171,-0.615 0.165,-0.855C0.165,-0.858 0.165,-0.861 0.165,-0.864L0.164,-0.864C0.164,-0.864 0.164,-0.864 0.164,-0.865L-0.166,-0.865C-0.166,-0.861 -0.166,-0.858 -0.166,-0.855C-0.171,-0.614 -0.421,-0.461 -0.636,-0.557C-0.645,-0.564 -0.655,-0.57 -0.666,-0.576L-0.667,-0.573L-0.668,-0.574L-0.833,-0.288L-0.833,-0.288C-0.822,-0.282 -0.812,-0.276 -0.801,-0.27C-0.611,-0.133 -0.618,0.159 -0.823,0.285C-0.825,0.286 -0.828,0.288 -0.83,0.289L-0.83,0.29C-0.83,0.29 -0.831,0.29 -0.831,0.29L-0.831,0.29L-0.666,0.576C-0.663,0.574 -0.661,0.573 -0.658,0.571C-0.446,0.456 -0.189,0.595 -0.165,0.829C-0.165,0.841 -0.166,0.853 -0.166,0.865L-0.163,0.865C-0.163,0.865 -0.163,0.865 -0.163,0.865L-0.163,0.865L0.167,0.865L0.167,0.865C0.167,0.853 0.167,0.841 0.166,0.829C0.19,0.595 0.447,0.456 0.658,0.57C0.661,0.572 0.663,0.573 0.665,0.575L0.666,0.574C0.666,0.574 0.666,0.574 0.667,0.575L0.832,0.289C0.829,0.287 0.826,0.286 0.823,0.284C0.618,0.159 0.61,-0.134 0.8,-0.272C0.811,-0.277 0.821,-0.283 0.832,-0.289L0.83,-0.291L0.831,-0.291Z" fill="#000" fill-rule="nonzero" clip-path="url(#hx)"/></g></g><g transform="translate(202.00,694.72)"><g transform="scale(36)"><path d="M1.0000,0.0000L0.5000,0.8660L-0.5000,0.8660L-1.0000,0.0000L-0.5000,-0.8660L0.5000,-0.8660Z" fill="#fff"/></g><g transform="rotate(180) scale(36,36)"><path d="M0.831,-0.291L0.831,-0.291L0.665,-0.577C0.655,-0.571 0.645,-0.565 0.635,-0.558C0.421,-0.463 0.171,-0.615 0.165,-0.855C0.165,-0.858 0.165,-0.861 0.165,-0.864L0.164,-0.864C0.164,-0.864 0.164,-0.864 0.164,-0.865L-0.166,-0.865C-0.166,-0.861 -0.166,-0.858 -0.166,-0.855C-0.171,-0.614 -0.421,-0.461 -0.636,-0.557C-0.645,-0.564 -0.655,-0.57 -0.666,-0.576L-0.667,-0.573L-0.668,-0.574L-0.833,-0.288L-0.833,-0.288C-0.822,-0.282 -0.812,-0.276 -0.801,-0.27C-0.611,-0.133 -0.618,0.159 -0.823,0.285C-0.825,0.286 -0.828,0.288 -0.83,0.289L-0.83,0.29C-0.83,0.29 -0.831,0.29 -0.831,0.29L-0.831,0.29L-0.666,0.576C-0.663,0.574 -0.661,0.573 -0.658,0.571C-0.446,0.456 -0.189,0.595 -0.165,0.829C-0.165,0.841 -0.166,0.853 -0.166,0.865L-0.163,0.865C-0.163,0.865 -0.163,0.865 -0.163,0.865L-0.163,0.865L0.167,0.865L0.167,0.865C0.167,0.853 0.167,0.841 0.166,0.829C0.19,0.595 0.447,0.456 0.658,0.57C0.661,0.572 0.663,0.573 0.665,0.575L0.666,0.574C0.666,0.574 0.666,0.574 0.667,0.575L0.832,0.289C0.829,0.287 0.826,0.286 0.823,0.284C0.618,0.159 0.61,-0.134 0.8,-0.272C0.811,-0.277 0.821,-0.283 0.832,-0.289L0.83,-0.291L0.831,-0.291Z" fill="#000" fill-rule="nonzero" clip-path="url(#hx)"/></g></g><g transform="translate(202.00,881.78)"><g transform="scale(36)"><path d="M1.0000,0.0000L0.5000,0.8660L-0.5000,0.8660L-1.0000,0.0000L-0.5000,-0.8660L0.5000,-0.8660Z" fill="#fff"/></g><g transform="rotate(180) scale(36,36)"><path d="M0.831,-0.291L0.831,-0.291L0.665,-0.577C0.655,-0.571 0.645,-0.565 0.635,-0.558C0.421,-0.463 0.171,-0.615 0.165,-0.855C0.165,-0.858 0.165,-0.861 0.165,-0.864L0.164,-0.864C0.164,-0.864 0.164,-0.864 0.164,-0.865L-0.166,-0.865C-0.166,-0.861 -0.166,-0.858 -0.166,-0.855C-0.171,-0.614 -0.421,-0.461 -0.636,-0.557C-0.645,-0.564 -0.655,-0.57 -0.666,-0.576L-0.667,-0.573L-0.668,-0.574L-0.833,-0.288L-0.833,-0.288C-0.822,-0.282 -0.812,-0.276 -0.801,-0.27C-0.611,-0.133 -0.618,0.159 -0.823,0.285C-0.825,0.286 -0.828,0.288 -0.83,0.289L-0.83,0.29C-0.83,0.29 -0.831,0.29 -0.831,0.29L-0.831,0.29L-0.666,0.576C-0.663,0.574 -0.661,0.573 -0.658,0.571C-0.446,0.456 -0.189,0.595 -0.165,0.829C-0.165,0.841 -0.166,0.853 -0.166,0.865L-0.163,0.865C-0.163,0.865 -0.163,0.865 -0.163,0.865L-0.163,0.865L0.167,0.865L0.167,0.865C0.167,0.853 0.167,0.841 0.166,0.829C0.19,0.595 0.447,0.456 0.658,0.57C0.661,0.572 0.663,0.573 0.665,0.575L0.666,0.574C0.666,0.574 0.666,0.574 0.667,0.575L0.832,0.289C0.829,0.287 0.826,0.286 0.823,0.284C0.618,0.159 0.61,-0.134 0.8,-0.272C0.811,-0.277 0.821,-0.283 0.832,-0.289L0.83,-0.291L0.831,-0.291Z" fill="#000" fill-rule="nonzero" clip-path="url(#hx)"/></g></g><g transform="translate(256.00,351.77)"><g transform="scale(36)"><path d="M1.0000,0.0000L0.5000,0.8660L-0.5000,0.8660L-1.0000,0.0000L-0.5000,-0.8660L0.5000,-0.8660Z" fill="#fff"/></g><g transform="rotate(0) scale(36,36)"><path d="M0.831,-0.291L0.831,-0.291L0.665,-0.577C0.655,-0.571 0.645,-0.565 0.635,-0.558C0.421,-0.463 0.171,-0.615 0.165,-0.855C0.165,-0.858 0.165,-0.861 0.165,-0.864L0.164,-0.864C0.164,-0.864 0.164,-0.864 0.164,-0.865L-0.166,-0.865C-0.166,-0.861 -0.166,-0.858 -0.166,-0.855C-0.171,-0.614 -0.421,-0.461 -0.636,-0.557C-0.645,-0.564 -0.655,-0.57 -0.666,-0.576L-0.667,-0.573L-0.668,-0.574L-0.833,-0.288L-0.833,-0.288C-0.822,-0.282 -0.812,-0.276 -0.801,-0.27C-0.611,-0.133 -0.618,0.159 -0.823,0.285C-0.825,0.286 -0.828,0.288 -0.83,0.289L-0.83,0.29C-0.83,0.29 -0.831,0.29 -0.831,0.29L-0.831,0.29L-0.666,0.576C-0.663,0.574 -0.661,0.573 -0.658,0.571C-0.446,0.456 -0.189,0.595 -0.165,0.829C-0.165,0.841 -0.166,0.853 -0.166,0.865L-0.163,0.865C-0.163,0.865 -0.163,0.865 -0.163,0.865L-0.163,0.865L0.167,0.865L0.167,0.865C0.167,0.853 0.167,0.841 0.166,0.829C0.19,0.595 0.447,0.456 0.658,0.57C0.661,0.572 0.663,0.573 0.665,0.575L0.666,0.574C0.666,0.574 0.666,0.574 0.667,0.575L0.832,0.289C0.829,0.287 0.826,0.286 0.823,0.284C0.618,0.159 0.61,-0.134 0.8,-0.272C0.811,-0.277 0.821,-0.283 0.832,-0.289L0.83,-0.291L0.831,-0.291Z" fill="#000" fill-rule="nonzero" clip-path="url(#hx)"/></g></g><g transform="translate(256.00,476.48)"><g transform="scale(36)"><path d="M1.0000,0.0000L0.5000,0.8660L-0.5000,0.8660L-1.0000,0.0000L-0.5000,-0.8660L0.5000,-0.8660Z" fill="#fff"/></g><g transform="rotate(0) scale(36,36)"><path d="M0.831,-0.291L0.831,-0.291L0.665,-0.577C0.655,-0.571 0.645,-0.565 0.635,-0.558C0.421,-0.463 0.171,-0.615 0.165,-0.855C0.165,-0.858 0.165,-0.861 0.165,-0.864L0.164,-0.864C0.164,-0.864 0.164,-0.864 0.164,-0.865L-0.166,-0.865C-0.166,-0.861 -0.166,-0.858 -0.166,-0.855C-0.171,-0.614 -0.421,-0.461 -0.636,-0.557C-0.645,-0.564 -0.655,-0.57 -0.666,-0.576L-0.667,-0.573L-0.668,-0.574L-0.833,-0.288L-0.833,-0.288C-0.822,-0.282 -0.812,-0.276 -0.801,-0.27C-0.611,-0.133 -0.618,0.159 -0.823,0.285C-0.825,0.286 -0.828,0.288 -0.83,0.289L-0.83,0.29C-0.83,0.29 -0.831,0.29 -0.831,0.29L-0.831,0.29L-0.666,0.576C-0.663,0.574 -0.661,0.573 -0.658,0.571C-0.446,0.456 -0.189,0.595 -0.165,0.829C-0.165,0.841 -0.166,0.853 -0.166,0.865L-0.163,0.865C-0.163,0.865 -0.163,0.865 -0.163,0.865L-0.163,0.865L0.167,0.865L0.167,0.865C0.167,0.853 0.167,0.841 0.166,0.829C0.19,0.595 0.447,0.456 0.658,0.57C0.661,0.572 0.663,0.573 0.665,0.575L0.666,0.574C0.666,0.574 0.666,0.574 0.667,0.575L0.832,0.289C0.829,0.287 0.826,0.286 0.823,0.284C0.618,0.159 0.61,-0.134 0.8,-0.272C0.811,-0.277 0.821,-0.283 0.832,-0.289L0.83,-0.291L0.831,-0.291Z" fill="#000" fill-rule="nonzero" clip-path="url(#hx)"/></g></g><g transform="translate(256.00,538.83)"><g transform="scale(36)"><path d="M1.0000,0.0000L0.5000,0.8660L-0.5000,0.8660L-1.0000,0.0000L-0.5000,-0.8660L0.5000,-0.8660Z" fill="#fff"/></g><g transform="rotate(0) scale(36,36)"><path d="M0.831,-0.291L0.831,-0.291L0.665,-0.577C0.655,-0.571 0.645,-0.565 0.635,-0.558C0.421,-0.463 0.171,-0.615 0.165,-0.855C0.165,-0.858 0.165,-0.861 0.165,-0.864L0.164,-0.864C0.164,-0.864 0.164,-0.864 0.164,-0.865L-0.166,-0.865C-0.166,-0.861 -0.166,-0.858 -0.166,-0.855C-0.171,-0.614 -0.421,-0.461 -0.636,-0.557C-0.645,-0.564 -0.655,-0.57 -0.666,-0.576L-0.667,-0.573L-0.668,-0.574L-0.833,-0.288L-0.833,-0.288C-0.822,-0.282 -0.812,-0.276 -0.801,-0.27C-0.611,-0.133 -0.618,0.159 -0.823,0.285C-0.825,0.286 -0.828,0.288 -0.83,0.289L-0.83,0.29C-0.83,0.29 -0.831,0.29 -0.831,0.29L-0.831,0.29L-0.666,0.576C-0.663,0.574 -0.661,0.573 -0.658,0.571C-0.446,0.456 -0.189,0.595 -0.165,0.829C-0.165,0.841 -0.166,0.853 -0.166,0.865L-0.163,0.865C-0.163,0.865 -0.163,0.865 -0.163,0.865L-0.163,0.865L0.167,0.865L0.167,0.865C0.167,0.853 0.167,0.841 0.166,0.829C0.19,0.595 0.447,0.456 0.658,0.57C0.661,0.572 0.663,0.573 0.665,0.575L0.666,0.574C0.666,0.574 0.666,0.574 0.667,0.575L0.832,0.289C0.829,0.287 0.826,0.286 0.823,0.284C0.618,0.159 0.61,-0.134 0.8,-0.272C0.811,-0.277 0.821,-0.283 0.832,-0.289L0.83,-0.291L0.831,-0.291Z" fill="#000" fill-rule="nonzero" clip-path="url(#hx)"/></g></g><g transform="translate(256.00,725.89)"><g transform="scale(36)"><path d="M1.0000,0.0000L0.5000,0.8660L-0.5000,0.8660L-1.0000,0.0000L-0.5000,-0.8660L0.5000,-0.8660Z" fill="#fff"/></g><g transform="rotate(180) scale(36,36)"><path d="M0.831,-0.291L0.831,-0.291L0.665,-0.577C0.655,-0.571 0.645,-0.565 0.635,-0.558C0.421,-0.463 0.171,-0.615 0.165,-0.855C0.165,-0.858 0.165,-0.861 0.165,-0.864L0.164,-0.864C0.164,-0.864 0.164,-0.864 0.164,-0.865L-0.166,-0.865C-0.166,-0.861 -0.166,-0.858 -0.166,-0.855C-0.171,-0.614 -0.421,-0.461 -0.636,-0.557C-0.645,-0.564 -0.655,-0.57 -0.666,-0.576L-0.667,-0.573L-0.668,-0.574L-0.833,-0.288L-0.833,-0.288C-0.822,-0.282 -0.812,-0.276 -0.801,-0.27C-0.611,-0.133 -0.618,0.159 -0.823,0.285C-0.825,0.286 -0.828,0.288 -0.83,0.289L-0.83,0.29C-0.83,0.29 -0.831,0.29 -0.831,0.29L-0.831,0.29L-0.666,0.576C-0.663,0.574 -0.661,0.573 -0.658,0.571C-0.446,0.456 -0.189,0.595 -0.165,0.829C-0.165,0.841 -0.166,0.853 -0.166,0.865L-0.163,0.865C-0.163,0.865 -0.163,0.865 -0.163,0.865L-0.163,0.865L0.167,0.865L0.167,0.865C0.167,0.853 0.167,0.841 0.166,0.829C0.19,0.595 0.447,0.456 0.658,0.57C0.661,0.572 0.663,0.573 0.665,0.575L0.666,0.574C0.666,0.574 0.666,0.574 0.667,0.575L0.832,0.289C0.829,0.287 0.826,0.286 0.823,0.284C0.618,0.159 0.61,-0.134 0.8,-0.272C0.811,-0.277 0.821,-0.283 0.832,-0.289L0.83,-0.291L0.831,-0.291Z" fill="#000" fill-rule="nonzero" clip-path="url(#hx)"/></g></g><g transform="translate(256.00,788.25)"><g transform="scale(36)"><path d="M1.0000,0.0000L0.5000,0.8660L-0.5000,0.8660L-1.0000,0.0000L-0.5000,-0.8660L0.5000,-0.8660Z" fill="#fff"/></g><g transform="rotate(180) scale(36,36)"><path d="M0.831,-0.291L0.831,-0.291L0.665,-0.577C0.655,-0.571 0.645,-0.565 0.635,-0.558C0.421,-0.463 0.171,-0.615 0.165,-0.855C0.165,-0.858 0.165,-0.861 0.165,-0.864L0.164,-0.864C0.164,-0.864 0.164,-0.864 0.164,-0.865L-0.166,-0.865C-0.166,-0.861 -0.166,-0.858 -0.166,-0.855C-0.171,-0.614 -0.421,-0.461 -0.636,-0.557C-0.645,-0.564 -0.655,-0.57 -0.666,-0.576L-0.667,-0.573L-0.668,-0.574L-0.833,-0.288L-0.833,-0.288C-0.822,-0.282 -0.812,-0.276 -0.801,-0.27C-0.611,-0.133 -0.618,0.159 -0.823,0.285C-0.825,0.286 -0.828,0.288 -0.83,0.289L-0.83,0.29C-0.83,0.29 -0.831,0.29 -0.831,0.29L-0.831,0.29L-0.666,0.576C-0.663,0.574 -0.661,0.573 -0.658,0.571C-0.446,0.456 -0.189,0.595 -0.165,0.829C-0.165,0.841 -0.166,0.853 -0.166,0.865L-0.163,0.865C-0.163,0.865 -0.163,0.865 -0.163,0.865L-0.163,0.865L0.167,0.865L0.167,0.865C0.167,0.853 0.167,0.841 0.166,0.829C0.19,0.595 0.447,0.456 0.658,0.57C0.661,0.572 0.663,0.573 0.665,0.575L0.666,0.574C0.666,0.574 0.666,0.574 0.667,0.575L0.832,0.289C0.829,0.287 0.826,0.286 0.823,0.284C0.618,0.159 0.61,-0.134 0.8,-0.272C0.811,-0.277 0.821,-0.283 0.832,-0.289L0.83,-0.291L0.831,-0.291Z" fill="#000" fill-rule="nonzero" clip-path="url(#hx)"/></g></g><g transform="translate(256.00,850.60)"><g transform="scale(36)"><path d="M1.0000,0.0000L0.5000,0.8660L-0.5000,0.8660L-1.0000,0.0000L-0.5000,-0.8660L0.5000,-0.8660Z" fill="#fff"/></g><g transform="rotate(180) scale(36,36)"><path d="M0.831,-0.291L0.831,-0.291L0.665,-0.577C0.655,-0.571 0.645,-0.565 0.635,-0.558C0.421,-0.463 0.171,-0.615 0.165,-0.855C0.165,-0.858 0.165,-0.861 0.165,-0.864L0.164,-0.864C0.164,-0.864 0.164,-0.864 0.164,-0.865L-0.166,-0.865C-0.166,-0.861 -0.166,-0.858 -0.166,-0.855C-0.171,-0.614 -0.421,-0.461 -0.636,-0.557C-0.645,-0.564 -0.655,-0.57 -0.666,-0.576L-0.667,-0.573L-0.668,-0.574L-0.833,-0.288L-0.833,-0.288C-0.822,-0.282 -0.812,-0.276 -0.801,-0.27C-0.611,-0.133 -0.618,0.159 -0.823,0.285C-0.825,0.286 -0.828,0.288 -0.83,0.289L-0.83,0.29C-0.83,0.29 -0.831,0.29 -0.831,0.29L-0.831,0.29L-0.666,0.576C-0.663,0.574 -0.661,0.573 -0.658,0.571C-0.446,0.456 -0.189,0.595 -0.165,0.829C-0.165,0.841 -0.166,0.853 -0.166,0.865L-0.163,0.865C-0.163,0.865 -0.163,0.865 -0.163,0.865L-0.163,0.865L0.167,0.865L0.167,0.865C0.167,0.853 0.167,0.841 0.166,0.829C0.19,0.595 0.447,0.456 0.658,0.57C0.661,0.572 0.663,0.573 0.665,0.575L0.666,0.574C0.666,0.574 0.666,0.574 0.667,0.575L0.832,0.289C0.829,0.287 0.826,0.286 0.823,0.284C0.618,0.159 0.61,-0.134 0.8,-0.272C0.811,-0.277 0.821,-0.283 0.832,-0.289L0.83,-0.291L0.831,-0.291Z" fill="#000" fill-rule="nonzero" clip-path="url(#hx)"/></g></g><g transform="translate(364.00,663.54)"><g transform="scale(36)"><path d="M1.0000,0.0000L0.5000,0.8660L-0.5000,0.8660L-1.0000,0.0000L-0.5000,-0.8660L0.5000,-0.8660Z" fill="#fff"/></g><g transform="rotate(180) scale(36,36)"><path d="M0.831,-0.291L0.831,-0.291L0.665,-0.577C0.655,-0.571 0.645,-0.565 0.635,-0.558C0.421,-0.463 0.171,-0.615 0.165,-0.855C0.165,-0.858 0.165,-0.861 0.165,-0.864L0.164,-0.864C0.164,-0.864 0.164,-0.864 0.164,-0.865L-0.166,-0.865C-0.166,-0.861 -0.166,-0.858 -0.166,-0.855C-0.171,-0.614 -0.421,-0.461 -0.636,-0.557C-0.645,-0.564 -0.655,-0.57 -0.666,-0.576L-0.667,-0.573L-0.668,-0.574L-0.833,-0.288L-0.833,-0.288C-0.822,-0.282 -0.812,-0.276 -0.801,-0.27C-0.611,-0.133 -0.618,0.159 -0.823,0.285C-0.825,0.286 -0.828,0.288 -0.83,0.289L-0.83,0.29C-0.83,0.29 -0.831,0.29 -0.831,0.29L-0.831,0.29L-0.666,0.576C-0.663,0.574 -0.661,0.573 -0.658,0.571C-0.446,0.456 -0.189,0.595 -0.165,0.829C-0.165,0.841 -0.166,0.853 -0.166,0.865L-0.163,0.865C-0.163,0.865 -0.163,0.865 -0.163,0.865L-0.163,0.865L0.167,0.865L0.167,0.865C0.167,0.853 0.167,0.841 0.166,0.829C0.19,0.595 0.447,0.456 0.658,0.57C0.661,0.572 0.663,0.573 0.665,0.575L0.666,0.574C0.666,0.574 0.666,0.574 0.667,0.575L0.832,0.289C0.829,0.287 0.826,0.286 0.823,0.284C0.618,0.159 0.61,-0.134 0.8,-0.272C0.811,-0.277 0.821,-0.283 0.832,-0.289L0.83,-0.291L0.831,-0.291Z" fill="#000" fill-rule="nonzero" clip-path="url(#hx)"/></g></g><g transform="translate(364.00,725.89)"><g transform="scale(36)"><path d="M1.0000,0.0000L0.5000,0.8660L-0.5000,0.8660L-1.0000,0.0000L-0.5000,-0.8660L0.5000,-0.8660Z" fill="#fff"/></g><g transform="rotate(180) scale(36,36)"><path d="M0.831,-0.291L0.831,-0.291L0.665,-0.577C0.655,-0.571 0.645,-0.565 0.635,-0.558C0.421,-0.463 0.171,-0.615 0.165,-0.855C0.165,-0.858 0.165,-0.861 0.165,-0.864L0.164,-0.864C0.164,-0.864 0.164,-0.864 0.164,-0.865L-0.166,-0.865C-0.166,-0.861 -0.166,-0.858 -0.166,-0.855C-0.171,-0.614 -0.421,-0.461 -0.636,-0.557C-0.645,-0.564 -0.655,-0.57 -0.666,-0.576L-0.667,-0.573L-0.668,-0.574L-0.833,-0.288L-0.833,-0.288C-0.822,-0.282 -0.812,-0.276 -0.801,-0.27C-0.611,-0.133 -0.618,0.159 -0.823,0.285C-0.825,0.286 -0.828,0.288 -0.83,0.289L-0.83,0.29C-0.83,0.29 -0.831,0.29 -0.831,0.29L-0.831,0.29L-0.666,0.576C-0.663,0.574 -0.661,0.573 -0.658,0.571C-0.446,0.456 -0.189,0.595 -0.165,0.829C-0.165,0.841 -0.166,0.853 -0.166,0.865L-0.163,0.865C-0.163,0.865 -0.163,0.865 -0.163,0.865L-0.163,0.865L0.167,0.865L0.167,0.865C0.167,0.853 0.167,0.841 0.166,0.829C0.19,0.595 0.447,0.456 0.658,0.57C0.661,0.572 0.663,0.573 0.665,0.575L0.666,0.574C0.666,0.574 0.666,0.574 0.667,0.575L0.832,0.289C0.829,0.287 0.826,0.286 0.823,0.284C0.618,0.159 0.61,-0.134 0.8,-0.272C0.811,-0.277 0.821,-0.283 0.832,-0.289L0.83,-0.291L0.831,-0.291Z" fill="#000" fill-rule="nonzero" clip-path="url(#hx)"/></g></g><g transform="translate(364.00,788.25)"><g transform="scale(36)"><path d="M1.0000,0.0000L0.5000,0.8660L-0.5000,0.8660L-1.0000,0.0000L-0.5000,-0.8660L0.5000,-0.8660Z" fill="#fff"/></g><g transform="rotate(180) scale(36,36)"><path d="M0.831,-0.291L0.831,-0.291L0.665,-0.577C0.655,-0.571 0.645,-0.565 0.635,-0.558C0.421,-0.463 0.171,-0.615 0.165,-0.855C0.165,-0.858 0.165,-0.861 0.165,-0.864L0.164,-0.864C0.164,-0.864 0.164,-0.864 0.164,-0.865L-0.166,-0.865C-0.166,-0.861 -0.166,-0.858 -0.166,-0.855C-0.171,-0.614 -0.421,-0.461 -0.636,-0.557C-0.645,-0.564 -0.655,-0.57 -0.666,-0.576L-0.667,-0.573L-0.668,-0.574L-0.833,-0.288L-0.833,-0.288C-0.822,-0.282 -0.812,-0.276 -0.801,-0.27C-0.611,-0.133 -0.618,0.159 -0.823,0.285C-0.825,0.286 -0.828,0.288 -0.83,0.289L-0.83,0.29C-0.83,0.29 -0.831,0.29 -0.831,0.29L-0.831,0.29L-0.666,0.576C-0.663,0.574 -0.661,0.573 -0.658,0.571C-0.446,0.456 -0.189,0.595 -0.165,0.829C-0.165,0.841 -0.166,0.853 -0.166,0.865L-0.163,0.865C-0.163,0.865 -0.163,0.865 -0.163,0.865L-0.163,0.865L0.167,0.865L0.167,0.865C0.167,0.853 0.167,0.841 0.166,0.829C0.19,0.595 0.447,0.456 0.658,0.57C0.661,0.572 0.663,0.573 0.665,0.575L0.666,0.574C0.666,0.574 0.666,0.574 0.667,0.575L0.832,0.289C0.829,0.287 0.826,0.286 0.823,0.284C0.618,0.159 0.61,-0.134 0.8,-0.272C0.811,-0.277 0.821,-0.283 0.832,-0.289L0.83,-0.291L0.831,-0.291Z" fill="#000" fill-rule="nonzero" clip-path="url(#hx)"/></g></g><g transform="translate(364.00,850.60)"><g transform="scale(36)"><path d="M1.0000,0.0000L0.5000,0.8660L-0.5000,0.8660L-1.0000,0.0000L-0.5000,-0.8660L0.5000,-0.8660Z" fill="#fff"/></g><g transform="rotate(180) scale(36,36)"><path d="M0.831,-0.291L0.831,-0.291L0.665,-0.577C0.655,-0.571 0.645,-0.565 0.635,-0.558C0.421,-0.463 0.171,-0.615 0.165,-0.855C0.165,-0.858 0.165,-0.861 0.165,-0.864L0.164,-0.864C0.164,-0.864 0.164,-0.864 0.164,-0.865L-0.166,-0.865C-0.166,-0.861 -0.166,-0.858 -0.166,-0.855C-0.171,-0.614 -0.421,-0.461 -0.636,-0.557C-0.645,-0.564 -0.655,-0.57 -0.666,-0.576L-0.667,-0.573L-0.668,-0.574L-0.833,-0.288L-0.833,-0.288C-0.822,-0.282 -0.812,-0.276 -0.801,-0.27C-0.611,-0.133 -0.618,0.159 -0.823,0.285C-0.825,0.286 -0.828,0.288 -0.83,0.289L-0.83,0.29C-0.83,0.29 -0.831,0.29 -0.831,0.29L-0.831,0.29L-0.666,0.576C-0.663,0.574 -0.661,0.573 -0.658,0.571C-0.446,0.456 -0.189,0.595 -0.165,0.829C-0.165,0.841 -0.166,0.853 -0.166,0.865L-0.163,0.865C-0.163,0.865 -0.163,0.865 -0.163,0.865L-0.163,0.865L0.167,0.865L0.167,0.865C0.167,0.853 0.167,0.841 0.166,0.829C0.19,0.595 0.447,0.456 0.658,0.57C0.661,0.572 0.663,0.573 0.665,0.575L0.666,0.574C0.666,0.574 0.666,0.574 0.667,0.575L0.832,0.289C0.829,0.287 0.826,0.286 0.823,0.284C0.618,0.159 0.61,-0.134 0.8,-0.272C0.811,-0.277 0.821,-0.283 0.832,-0.289L0.83,-0.291L0.831,-0.291Z" fill="#000" fill-rule="nonzero" clip-path="url(#hx)"/></g></g><g transform="translate(418.00,320.59)"><g transform="scale(36)"><path d="M1.0000,0.0000L0.5000,0.8660L-0.5000,0.8660L-1.0000,0.0000L-0.5000,-0.8660L0.5000,-0.8660Z" fill="#fff"/></g><g transform="rotate(0) scale(36,36)"><path d="M0.831,-0.291L0.831,-0.291L0.665,-0.577C0.655,-0.571 0.645,-0.565 0.635,-0.558C0.421,-0.463 0.171,-0.615 0.165,-0.855C0.165,-0.858 0.165,-0.861 0.165,-0.864L0.164,-0.864C0.164,-0.864 0.164,-0.864 0.164,-0.865L-0.166,-0.865C-0.166,-0.861 -0.166,-0.858 -0.166,-0.855C-0.171,-0.614 -0.421,-0.461 -0.636,-0.557C-0.645,-0.564 -0.655,-0.57 -0.666,-0.576L-0.667,-0.573L-0.668,-0.574L-0.833,-0.288L-0.833,-0.288C-0.822,-0.282 -0.812,-0.276 -0.801,-0.27C-0.611,-0.133 -0.618,0.159 -0.823,0.285C-0.825,0.286 -0.828,0.288 -0.83,0.289L-0.83,0.29C-0.83,0.29 -0.831,0.29 -0.831,0.29L-0.831,0.29L-0.666,0.576C-0.663,0.574 -0.661,0.573 -0.658,0.571C-0.446,0.456 -0.189,0.595 -0.165,0.829C-0.165,0.841 -0.166,0.853 -0.166,0.865L-0.163,0.865C-0.163,0.865 -0.163,0.865 -0.163,0.865L-0.163,0.865L0.167,0.865L0.167,0.865C0.167,0.853 0.167,0.841 0.166,0.829C0.19,0.595 0.447,0.456 0.658,0.57C0.661,0.572 0.663,0.573 0.665,0.575L0.666,0.574C0.666,0.574 0.666,0.574 0.667,0.575L0.832,0.289C0.829,0.287 0.826,0.286 0.823,0.284C0.618,0.159 0.61,-0.134 0.8,-0.272C0.811,-0.277 0.821,-0.283 0.832,-0.289L0.83,-0.291L0.831,-0.291Z" fill="#000" fill-rule="nonzero" clip-path="url(#hx)"/></g></g><g transform="translate(418.00,445.30)"><g transform="scale(36)"><path d="M1.0000,0.0000L0.5000,0.8660L-0.5000,0.8660L-1.0000,0.0000L-0.5000,-0.8660L0.5000,-0.8660Z" fill="#fff"/></g><g transform="rotate(0) scale(36,36)"><path d="M0.831,-0.291L0.831,-0.291L0.665,-0.577C0.655,-0.571 0.645,-0.565 0.635,-0.558C0.421,-0.463 0.171,-0.615 0.165,-0.855C0.165,-0.858 0.165,-0.861 0.165,-0.864L0.164,-0.864C0.164,-0.864 0.164,-0.864 0.164,-0.865L-0.166,-0.865C-0.166,-0.861 -0.166,-0.858 -0.166,-0.855C-0.171,-0.614 -0.421,-0.461 -0.636,-0.557C-0.645,-0.564 -0.655,-0.57 -0.666,-0.576L-0.667,-0.573L-0.668,-0.574L-0.833,-0.288L-0.833,-0.288C-0.822,-0.282 -0.812,-0.276 -0.801,-0.27C-0.611,-0.133 -0.618,0.159 -0.823,0.285C-0.825,0.286 -0.828,0.288 -0.83,0.289L-0.83,0.29C-0.83,0.29 -0.831,0.29 -0.831,0.29L-0.831,0.29L-0.666,0.576C-0.663,0.574 -0.661,0.573 -0.658,0.571C-0.446,0.456 -0.189,0.595 -0.165,0.829C-0.165,0.841 -0.166,0.853 -0.166,0.865L-0.163,0.865C-0.163,0.865 -0.163,0.865 -0.163,0.865L-0.163,0.865L0.167,0.865L0.167,0.865C0.167,0.853 0.167,0.841 0.166,0.829C0.19,0.595 0.447,0.456 0.658,0.57C0.661,0.572 0.663,0.573 0.665,0.575L0.666,0.574C0.666,0.574 0.666,0.574 0.667,0.575L0.832,0.289C0.829,0.287 0.826,0.286 0.823,0.284C0.618,0.159 0.61,-0.134 0.8,-0.272C0.811,-0.277 0.821,-0.283 0.832,-0.289L0.83,-0.291L0.831,-0.291Z" fill="#000" fill-rule="nonzero" clip-path="url(#hx)"/></g></g><g transform="translate(418.00,507.65)"><g transform="scale(36)"><path d="M1.0000,0.0000L0.5000,0.8660L-0.5000,0.8660L-1.0000,0.0000L-0.5000,-0.8660L0.5000,-0.8660Z" fill="#fff"/></g><g transform="rotate(0) scale(36,36)"><path d="M0.831,-0.291L0.831,-0.291L0.665,-0.577C0.655,-0.571 0.645,-0.565 0.635,-0.558C0.421,-0.463 0.171,-0.615 0.165,-0.855C0.165,-0.858 0.165,-0.861 0.165,-0.864L0.164,-0.864C0.164,-0.864 0.164,-0.864 0.164,-0.865L-0.166,-0.865C-0.166,-0.861 -0.166,-0.858 -0.166,-0.855C-0.171,-0.614 -0.421,-0.461 -0.636,-0.557C-0.645,-0.564 -0.655,-0.57 -0.666,-0.576L-0.667,-0.573L-0.668,-0.574L-0.833,-0.288L-0.833,-0.288C-0.822,-0.282 -0.812,-0.276 -0.801,-0.27C-0.611,-0.133 -0.618,0.159 -0.823,0.285C-0.825,0.286 -0.828,0.288 -0.83,0.289L-0.83,0.29C-0.83,0.29 -0.831,0.29 -0.831,0.29L-0.831,0.29L-0.666,0.576C-0.663,0.574 -0.661,0.573 -0.658,0.571C-0.446,0.456 -0.189,0.595 -0.165,0.829C-0.165,0.841 -0.166,0.853 -0.166,0.865L-0.163,0.865C-0.163,0.865 -0.163,0.865 -0.163,0.865L-0.163,0.865L0.167,0.865L0.167,0.865C0.167,0.853 0.167,0.841 0.166,0.829C0.19,0.595 0.447,0.456 0.658,0.57C0.661,0.572 0.663,0.573 0.665,0.575L0.666,0.574C0.666,0.574 0.666,0.574 0.667,0.575L0.832,0.289C0.829,0.287 0.826,0.286 0.823,0.284C0.618,0.159 0.61,-0.134 0.8,-0.272C0.811,-0.277 0.821,-0.283 0.832,-0.289L0.83,-0.291L0.831,-0.291Z" fill="#000" fill-rule="nonzero" clip-path="url(#hx)"/></g></g><g transform="translate(418.00,570.01)"><g transform="scale(36)"><path d="M1.0000,0.0000L0.5000,0.8660L-0.5000,0.8660L-1.0000,0.0000L-0.5000,-0.8660L0.5000,-0.8660Z" fill="#fff"/></g><g transform="rotate(0) scale(36,36)"><path d="M0.831,-0.291L0.831,-0.291L0.665,-0.577C0.655,-0.571 0.645,-0.565 0.635,-0.558C0.421,-0.463 0.171,-0.615 0.165,-0.855C0.165,-0.858 0.165,-0.861 0.165,-0.864L0.164,-0.864C0.164,-0.864 0.164,-0.864 0.164,-0.865L-0.166,-0.865C-0.166,-0.861 -0.166,-0.858 -0.166,-0.855C-0.171,-0.614 -0.421,-0.461 -0.636,-0.557C-0.645,-0.564 -0.655,-0.57 -0.666,-0.576L-0.667,-0.573L-0.668,-0.574L-0.833,-0.288L-0.833,-0.288C-0.822,-0.282 -0.812,-0.276 -0.801,-0.27C-0.611,-0.133 -0.618,0.159 -0.823,0.285C-0.825,0.286 -0.828,0.288 -0.83,0.289L-0.83,0.29C-0.83,0.29 -0.831,0.29 -0.831,0.29L-0.831,0.29L-0.666,0.576C-0.663,0.574 -0.661,0.573 -0.658,0.571C-0.446,0.456 -0.189,0.595 -0.165,0.829C-0.165,0.841 -0.166,0.853 -0.166,0.865L-0.163,0.865C-0.163,0.865 -0.163,0.865 -0.163,0.865L-0.163,0.865L0.167,0.865L0.167,0.865C0.167,0.853 0.167,0.841 0.166,0.829C0.19,0.595 0.447,0.456 0.658,0.57C0.661,0.572 0.663,0.573 0.665,0.575L0.666,0.574C0.666,0.574 0.666,0.574 0.667,0.575L0.832,0.289C0.829,0.287 0.826,0.286 0.823,0.284C0.618,0.159 0.61,-0.134 0.8,-0.272C0.811,-0.277 0.821,-0.283 0.832,-0.289L0.83,-0.291L0.831,-0.291Z" fill="#000" fill-rule="nonzero" clip-path="url(#hx)"/></g></g><g transform="translate(418.00,694.72)"><g transform="scale(36)"><path d="M1.0000,0.0000L0.5000,0.8660L-0.5000,0.8660L-1.0000,0.0000L-0.5000,-0.8660L0.5000,-0.8660Z" fill="#fff"/></g><g transform="rotate(180) scale(36,36)"><path d="M0.831,-0.291L0.831,-0.291L0.665,-0.577C0.655,-0.571 0.645,-0.565 0.635,-0.558C0.421,-0.463 0.171,-0.615 0.165,-0.855C0.165,-0.858 0.165,-0.861 0.165,-0.864L0.164,-0.864C0.164,-0.864 0.164,-0.864 0.164,-0.865L-0.166,-0.865C-0.166,-0.861 -0.166,-0.858 -0.166,-0.855C-0.171,-0.614 -0.421,-0.461 -0.636,-0.557C-0.645,-0.564 -0.655,-0.57 -0.666,-0.576L-0.667,-0.573L-0.668,-0.574L-0.833,-0.288L-0.833,-0.288C-0.822,-0.282 -0.812,-0.276 -0.801,-0.27C-0.611,-0.133 -0.618,0.159 -0.823,0.285C-0.825,0.286 -0.828,0.288 -0.83,0.289L-0.83,0.29C-0.83,0.29 -0.831,0.29 -0.831,0.29L-0.831,0.29L-0.666,0.576C-0.663,0.574 -0.661,0.573 -0.658,0.571C-0.446,0.456 -0.189,0.595 -0.165,0.829C-0.165,0.841 -0.166,0.853 -0.166,0.865L-0.163,0.865C-0.163,0.865 -0.163,0.865 -0.163,0.865L-0.163,0.865L0.167,0.865L0.167,0.865C0.167,0.853 0.167,0.841 0.166,0.829C0.19,0.595 0.447,0.456 0.658,0.57C0.661,0.572 0.663,0.573 0.665,0.575L0.666,0.574C0.666,0.574 0.666,0.574 0.667,0.575L0.832,0.289C0.829,0.287 0.826,0.286 0.823,0.284C0.618,0.159 0.61,-0.134 0.8,-0.272C0.811,-0.277 0.821,-0.283 0.832,-0.289L0.83,-0.291L0.831,-0.291Z" fill="#000" fill-rule="nonzero" clip-path="url(#hx)"/></g></g><g transform="translate(472.00,725.89)"><g transform="scale(36)"><path d="M1.0000,0.0000L0.5000,0.8660L-0.5000,0.8660L-1.0000,0.0000L-0.5000,-0.8660L0.5000,-0.8660Z" fill="#fff"/></g><g transform="rotate(180) scale(36,36)"><path d="M0.831,-0.291L0.831,-0.291L0.665,-0.577C0.655,-0.571 0.645,-0.565 0.635,-0.558C0.421,-0.463 0.171,-0.615 0.165,-0.855C0.165,-0.858 0.165,-0.861 0.165,-0.864L0.164,-0.864C0.164,-0.864 0.164,-0.864 0.164,-0.865L-0.166,-0.865C-0.166,-0.861 -0.166,-0.858 -0.166,-0.855C-0.171,-0.614 -0.421,-0.461 -0.636,-0.557C-0.645,-0.564 -0.655,-0.57 -0.666,-0.576L-0.667,-0.573L-0.668,-0.574L-0.833,-0.288L-0.833,-0.288C-0.822,-0.282 -0.812,-0.276 -0.801,-0.27C-0.611,-0.133 -0.618,0.159 -0.823,0.285C-0.825,0.286 -0.828,0.288 -0.83,0.289L-0.83,0.29C-0.83,0.29 -0.831,0.29 -0.831,0.29L-0.831,0.29L-0.666,0.576C-0.663,0.574 -0.661,0.573 -0.658,0.571C-0.446,0.456 -0.189,0.595 -0.165,0.829C-0.165,0.841 -0.166,0.853 -0.166,0.865L-0.163,0.865C-0.163,0.865 -0.163,0.865 -0.163,0.865L-0.163,0.865L0.167,0.865L0.167,0.865C0.167,0.853 0.167,0.841 0.166,0.829C0.19,0.595 0.447,0.456 0.658,0.57C0.661,0.572 0.663,0.573 0.665,0.575L0.666,0.574C0.666,0.574 0.666,0.574 0.667,0.575L0.832,0.289C0.829,0.287 0.826,0.286 0.823,0.284C0.618,0.159 0.61,-0.134 0.8,-0.272C0.811,-0.277 0.821,-0.283 0.832,-0.289L0.83,-0.291L0.831,-0.291Z" fill="#000" fill-rule="nonzero" clip-path="url(#hx)"/></g></g><g transform="translate(472.00,788.25)"><g transform="scale(36)"><path d="M1.0000,0.0000L0.5000,0.8660L-0.5000,0.8660L-1.0000,0.0000L-0.5000,-0.8660L0.5000,-0.8660Z" fill="#fff"/></g><g transform="rotate(180) scale(36,36)"><path d="M0.831,-0.291L0.831,-0.291L0.665,-0.577C0.655,-0.571 0.645,-0.565 0.635,-0.558C0.421,-0.463 0.171,-0.615 0.165,-0.855C0.165,-0.858 0.165,-0.861 0.165,-0.864L0.164,-0.864C0.164,-0.864 0.164,-0.864 0.164,-0.865L-0.166,-0.865C-0.166,-0.861 -0.166,-0.858 -0.166,-0.855C-0.171,-0.614 -0.421,-0.461 -0.636,-0.557C-0.645,-0.564 -0.655,-0.57 -0.666,-0.576L-0.667,-0.573L-0.668,-0.574L-0.833,-0.288L-0.833,-0.288C-0.822,-0.282 -0.812,-0.276 -0.801,-0.27C-0.611,-0.133 -0.618,0.159 -0.823,0.285C-0.825,0.286 -0.828,0.288 -0.83,0.289L-0.83,0.29C-0.83,0.29 -0.831,0.29 -0.831,0.29L-0.831,0.29L-0.666,0.576C-0.663,0.574 -0.661,0.573 -0.658,0.571C-0.446,0.456 -0.189,0.595 -0.165,0.829C-0.165,0.841 -0.166,0.853 -0.166,0.865L-0.163,0.865C-0.163,0.865 -0.163,0.865 -0.163,0.865L-0.163,0.865L0.167,0.865L0.167,0.865C0.167,0.853 0.167,0.841 0.166,0.829C0.19,0.595 0.447,0.456 0.658,0.57C0.661,0.572 0.663,0.573 0.665,0.575L0.666,0.574C0.666,0.574 0.666,0.574 0.667,0.575L0.832,0.289C0.829,0.287 0.826,0.286 0.823,0.284C0.618,0.159 0.61,-0.134 0.8,-0.272C0.811,-0.277 0.821,-0.283 0.832,-0.289L0.83,-0.291L0.831,-0.291Z" fill="#000" fill-rule="nonzero" clip-path="url(#hx)"/></g></g><g transform="translate(526.00,320.59)"><g transform="scale(36)"><path d="M1.0000,0.0000L0.5000,0.8660L-0.5000,0.8660L-1.0000,0.0000L-0.5000,-0.8660L0.5000,-0.8660Z" fill="#fff"/></g><g transform="rotate(0) scale(36,36)"><path d="M0.831,-0.291L0.831,-0.291L0.665,-0.577C0.655,-0.571 0.645,-0.565 0.635,-0.558C0.421,-0.463 0.171,-0.615 0.165,-0.855C0.165,-0.858 0.165,-0.861 0.165,-0.864L0.164,-0.864C0.164,-0.864 0.164,-0.864 0.164,-0.865L-0.166,-0.865C-0.166,-0.861 -0.166,-0.858 -0.166,-0.855C-0.171,-0.614 -0.421,-0.461 -0.636,-0.557C-0.645,-0.564 -0.655,-0.57 -0.666,-0.576L-0.667,-0.573L-0.668,-0.574L-0.833,-0.288L-0.833,-0.288C-0.822,-0.282 -0.812,-0.276 -0.801,-0.27C-0.611,-0.133 -0.618,0.159 -0.823,0.285C-0.825,0.286 -0.828,0.288 -0.83,0.289L-0.83,0.29C-0.83,0.29 -0.831,0.29 -0.831,0.29L-0.831,0.29L-0.666,0.576C-0.663,0.574 -0.661,0.573 -0.658,0.571C-0.446,0.456 -0.189,0.595 -0.165,0.829C-0.165,0.841 -0.166,0.853 -0.166,0.865L-0.163,0.865C-0.163,0.865 -0.163,0.865 -0.163,0.865L-0.163,0.865L0.167,0.865L0.167,0.865C0.167,0.853 0.167,0.841 0.166,0.829C0.19,0.595 0.447,0.456 0.658,0.57C0.661,0.572 0.663,0.573 0.665,0.575L0.666,0.574C0.666,0.574 0.666,0.574 0.667,0.575L0.832,0.289C0.829,0.287 0.826,0.286 0.823,0.284C0.618,0.159 0.61,-0.134 0.8,-0.272C0.811,-0.277 0.821,-0.283 0.832,-0.289L0.83,-0.291L0.831,-0.291Z" fill="#000" fill-rule="nonzero" clip-path="url(#hx)"/></g></g><g transform="translate(526.00,382.95)"><g transform="scale(36)"><path d="M1.0000,0.0000L0.5000,0.8660L-0.5000,0.8660L-1.0000,0.0000L-0.5000,-0.8660L0.5000,-0.8660Z" fill="#fff"/></g><g transform="rotate(0) scale(36,36)"><path d="M0.831,-0.291L0.831,-0.291L0.665,-0.577C0.655,-0.571 0.645,-0.565 0.635,-0.558C0.421,-0.463 0.171,-0.615 0.165,-0.855C0.165,-0.858 0.165,-0.861 0.165,-0.864L0.164,-0.864C0.164,-0.864 0.164,-0.864 0.164,-0.865L-0.166,-0.865C-0.166,-0.861 -0.166,-0.858 -0.166,-0.855C-0.171,-0.614 -0.421,-0.461 -0.636,-0.557C-0.645,-0.564 -0.655,-0.57 -0.666,-0.576L-0.667,-0.573L-0.668,-0.574L-0.833,-0.288L-0.833,-0.288C-0.822,-0.282 -0.812,-0.276 -0.801,-0.27C-0.611,-0.133 -0.618,0.159 -0.823,0.285C-0.825,0.286 -0.828,0.288 -0.83,0.289L-0.83,0.29C-0.83,0.29 -0.831,0.29 -0.831,0.29L-0.831,0.29L-0.666,0.576C-0.663,0.574 -0.661,0.573 -0.658,0.571C-0.446,0.456 -0.189,0.595 -0.165,0.829C-0.165,0.841 -0.166,0.853 -0.166,0.865L-0.163,0.865C-0.163,0.865 -0.163,0.865 -0.163,0.865L-0.163,0.865L0.167,0.865L0.167,0.865C0.167,0.853 0.167,0.841 0.166,0.829C0.19,0.595 0.447,0.456 0.658,0.57C0.661,0.572 0.663,0.573 0.665,0.575L0.666,0.574C0.666,0.574 0.666,0.574 0.667,0.575L0.832,0.289C0.829,0.287 0.826,0.286 0.823,0.284C0.618,0.159 0.61,-0.134 0.8,-0.272C0.811,-0.277 0.821,-0.283 0.832,-0.289L0.83,-0.291L0.831,-0.291Z" fill="#000" fill-rule="nonzero" clip-path="url(#hx)"/></g></g><g transform="translate(526.00,445.30)"><g transform="scale(36)"><path d="M1.0000,0.0000L0.5000,0.8660L-0.5000,0.8660L-1.0000,0.0000L-0.5000,-0.8660L0.5000,-0.8660Z" fill="#fff"/></g><g transform="rotate(0) scale(36,36)"><path d="M0.831,-0.291L0.831,-0.291L0.665,-0.577C0.655,-0.571 0.645,-0.565 0.635,-0.558C0.421,-0.463 0.171,-0.615 0.165,-0.855C0.165,-0.858 0.165,-0.861 0.165,-0.864L0.164,-0.864C0.164,-0.864 0.164,-0.864 0.164,-0.865L-0.166,-0.865C-0.166,-0.861 -0.166,-0.858 -0.166,-0.855C-0.171,-0.614 -0.421,-0.461 -0.636,-0.557C-0.645,-0.564 -0.655,-0.57 -0.666,-0.576L-0.667,-0.573L-0.668,-0.574L-0.833,-0.288L-0.833,-0.288C-0.822,-0.282 -0.812,-0.276 -0.801,-0.27C-0.611,-0.133 -0.618,0.159 -0.823,0.285C-0.825,0.286 -0.828,0.288 -0.83,0.289L-0.83,0.29C-0.83,0.29 -0.831,0.29 -0.831,0.29L-0.831,0.29L-0.666,0.576C-0.663,0.574 -0.661,0.573 -0.658,0.571C-0.446,0.456 -0.189,0.595 -0.165,0.829C-0.165,0.841 -0.166,0.853 -0.166,0.865L-0.163,0.865C-0.163,0.865 -0.163,0.865 -0.163,0.865L-0.163,0.865L0.167,0.865L0.167,0.865C0.167,0.853 0.167,0.841 0.166,0.829C0.19,0.595 0.447,0.456 0.658,0.57C0.661,0.572 0.663,0.573 0.665,0.575L0.666,0.574C0.666,0.574 0.666,0.574 0.667,0.575L0.832,0.289C0.829,0.287 0.826,0.286 0.823,0.284C0.618,0.159 0.61,-0.134 0.8,-0.272C0.811,-0.277 0.821,-0.283 0.832,-0.289L0.83,-0.291L0.831,-0.291Z" fill="#000" fill-rule="nonzero" clip-path="url(#hx)"/></g></g><g transform="translate(526.00,507.65)"><g transform="scale(36)"><path d="M1.0000,0.0000L0.5000,0.8660L-0.5000,0.8660L-1.0000,0.0000L-0.5000,-0.8660L0.5000,-0.8660Z" fill="#fff"/></g><g transform="rotate(0) scale(36,36)"><path d="M0.831,-0.291L0.831,-0.291L0.665,-0.577C0.655,-0.571 0.645,-0.565 0.635,-0.558C0.421,-0.463 0.171,-0.615 0.165,-0.855C0.165,-0.858 0.165,-0.861 0.165,-0.864L0.164,-0.864C0.164,-0.864 0.164,-0.864 0.164,-0.865L-0.166,-0.865C-0.166,-0.861 -0.166,-0.858 -0.166,-0.855C-0.171,-0.614 -0.421,-0.461 -0.636,-0.557C-0.645,-0.564 -0.655,-0.57 -0.666,-0.576L-0.667,-0.573L-0.668,-0.574L-0.833,-0.288L-0.833,-0.288C-0.822,-0.282 -0.812,-0.276 -0.801,-0.27C-0.611,-0.133 -0.618,0.159 -0.823,0.285C-0.825,0.286 -0.828,0.288 -0.83,0.289L-0.83,0.29C-0.83,0.29 -0.831,0.29 -0.831,0.29L-0.831,0.29L-0.666,0.576C-0.663,0.574 -0.661,0.573 -0.658,0.571C-0.446,0.456 -0.189,0.595 -0.165,0.829C-0.165,0.841 -0.166,0.853 -0.166,0.865L-0.163,0.865C-0.163,0.865 -0.163,0.865 -0.163,0.865L-0.163,0.865L0.167,0.865L0.167,0.865C0.167,0.853 0.167,0.841 0.166,0.829C0.19,0.595 0.447,0.456 0.658,0.57C0.661,0.572 0.663,0.573 0.665,0.575L0.666,0.574C0.666,0.574 0.666,0.574 0.667,0.575L0.832,0.289C0.829,0.287 0.826,0.286 0.823,0.284C0.618,0.159 0.61,-0.134 0.8,-0.272C0.811,-0.277 0.821,-0.283 0.832,-0.289L0.83,-0.291L0.831,-0.291Z" fill="#000" fill-rule="nonzero" clip-path="url(#hx)"/></g></g><g transform="translate(526.00,570.01)"><g transform="scale(36)"><path d="M1.0000,0.0000L0.5000,0.8660L-0.5000,0.8660L-1.0000,0.0000L-0.5000,-0.8660L0.5000,-0.8660Z" fill="#fff"/></g><g transform="rotate(0) scale(36,36)"><path d="M0.831,-0.291L0.831,-0.291L0.665,-0.577C0.655,-0.571 0.645,-0.565 0.635,-0.558C0.421,-0.463 0.171,-0.615 0.165,-0.855C0.165,-0.858 0.165,-0.861 0.165,-0.864L0.164,-0.864C0.164,-0.864 0.164,-0.864 0.164,-0.865L-0.166,-0.865C-0.166,-0.861 -0.166,-0.858 -0.166,-0.855C-0.171,-0.614 -0.421,-0.461 -0.636,-0.557C-0.645,-0.564 -0.655,-0.57 -0.666,-0.576L-0.667,-0.573L-0.668,-0.574L-0.833,-0.288L-0.833,-0.288C-0.822,-0.282 -0.812,-0.276 -0.801,-0.27C-0.611,-0.133 -0.618,0.159 -0.823,0.285C-0.825,0.286 -0.828,0.288 -0.83,0.289L-0.83,0.29C-0.83,0.29 -0.831,0.29 -0.831,0.29L-0.831,0.29L-0.666,0.576C-0.663,0.574 -0.661,0.573 -0.658,0.571C-0.446,0.456 -0.189,0.595 -0.165,0.829C-0.165,0.841 -0.166,0.853 -0.166,0.865L-0.163,0.865C-0.163,0.865 -0.163,0.865 -0.163,0.865L-0.163,0.865L0.167,0.865L0.167,0.865C0.167,0.853 0.167,0.841 0.166,0.829C0.19,0.595 0.447,0.456 0.658,0.57C0.661,0.572 0.663,0.573 0.665,0.575L0.666,0.574C0.666,0.574 0.666,0.574 0.667,0.575L0.832,0.289C0.829,0.287 0.826,0.286 0.823,0.284C0.618,0.159 0.61,-0.134 0.8,-0.272C0.811,-0.277 0.821,-0.283 0.832,-0.289L0.83,-0.291L0.831,-0.291Z" fill="#000" fill-rule="nonzero" clip-path="url(#hx)"/></g></g><g transform="translate(526.00,819.42)"><g transform="scale(36)"><path d="M1.0000,0.0000L0.5000,0.8660L-0.5000,0.8660L-1.0000,0.0000L-0.5000,-0.8660L0.5000,-0.8660Z" fill="#fff"/></g><g transform="rotate(180) scale(36,36)"><path d="M0.831,-0.291L0.831,-0.291L0.665,-0.577C0.655,-0.571 0.645,-0.565 0.635,-0.558C0.421,-0.463 0.171,-0.615 0.165,-0.855C0.165,-0.858 0.165,-0.861 0.165,-0.864L0.164,-0.864C0.164,-0.864 0.164,-0.864 0.164,-0.865L-0.166,-0.865C-0.166,-0.861 -0.166,-0.858 -0.166,-0.855C-0.171,-0.614 -0.421,-0.461 -0.636,-0.557C-0.645,-0.564 -0.655,-0.57 -0.666,-0.576L-0.667,-0.573L-0.668,-0.574L-0.833,-0.288L-0.833,-0.288C-0.822,-0.282 -0.812,-0.276 -0.801,-0.27C-0.611,-0.133 -0.618,0.159 -0.823,0.285C-0.825,0.286 -0.828,0.288 -0.83,0.289L-0.83,0.29C-0.83,0.29 -0.831,0.29 -0.831,0.29L-0.831,0.29L-0.666,0.576C-0.663,0.574 -0.661,0.573 -0.658,0.571C-0.446,0.456 -0.189,0.595 -0.165,0.829C-0.165,0.841 -0.166,0.853 -0.166,0.865L-0.163,0.865C-0.163,0.865 -0.163,0.865 -0.163,0.865L-0.163,0.865L0.167,0.865L0.167,0.865C0.167,0.853 0.167,0.841 0.166,0.829C0.19,0.595 0.447,0.456 0.658,0.57C0.661,0.572 0.663,0.573 0.665,0.575L0.666,0.574C0.666,0.574 0.666,0.574 0.667,0.575L0.832,0.289C0.829,0.287 0.826,0.286 0.823,0.284C0.618,0.159 0.61,-0.134 0.8,-0.272C0.811,-0.277 0.821,-0.283 0.832,-0.289L0.83,-0.291L0.831,-0.291Z" fill="#000" fill-rule="nonzero" clip-path="url(#hx)"/></g></g><g transform="translate(580.00,351.77)"><g transform="scale(36)"><path d="M1.0000,0.0000L0.5000,0.8660L-0.5000,0.8660L-1.0000,0.0000L-0.5000,-0.8660L0.5000,-0.8660Z" fill="#fff"/></g><g transform="rotate(0) scale(36,36)"><path d="M0.831,-0.291L0.831,-0.291L0.665,-0.577C0.655,-0.571 0.645,-0.565 0.635,-0.558C0.421,-0.463 0.171,-0.615 0.165,-0.855C0.165,-0.858 0.165,-0.861 0.165,-0.864L0.164,-0.864C0.164,-0.864 0.164,-0.864 0.164,-0.865L-0.166,-0.865C-0.166,-0.861 -0.166,-0.858 -0.166,-0.855C-0.171,-0.614 -0.421,-0.461 -0.636,-0.557C-0.645,-0.564 -0.655,-0.57 -0.666,-0.576L-0.667,-0.573L-0.668,-0.574L-0.833,-0.288L-0.833,-0.288C-0.822,-0.282 -0.812,-0.276 -0.801,-0.27C-0.611,-0.133 -0.618,0.159 -0.823,0.285C-0.825,0.286 -0.828,0.288 -0.83,0.289L-0.83,0.29C-0.83,0.29 -0.831,0.29 -0.831,0.29L-0.831,0.29L-0.666,0.576C-0.663,0.574 -0.661,0.573 -0.658,0.571C-0.446,0.456 -0.189,0.595 -0.165,0.829C-0.165,0.841 -0.166,0.853 -0.166,0.865L-0.163,0.865C-0.163,0.865 -0.163,0.865 -0.163,0.865L-0.163,0.865L0.167,0.865L0.167,0.865C0.167,0.853 0.167,0.841 0.166,0.829C0.19,0.595 0.447,0.456 0.658,0.57C0.661,0.572 0.663,0.573 0.665,0.575L0.666,0.574C0.666,0.574 0.666,0.574 0.667,0.575L0.832,0.289C0.829,0.287 0.826,0.286 0.823,0.284C0.618,0.159 0.61,-0.134 0.8,-0.272C0.811,-0.277 0.821,-0.283 0.832,-0.289L0.83,-0.291L0.831,-0.291Z" fill="#000" fill-rule="nonzero" clip-path="url(#hx)"/></g></g><g transform="translate(580.00,663.54)"><g transform="scale(36)"><path d="M1.0000,0.0000L0.5000,0.8660L-0.5000,0.8660L-1.0000,0.0000L-0.5000,-0.8660L0.5000,-0.8660Z" fill="#fff"/></g><g transform="rotate(180) scale(36,36)"><path d="M0.831,-0.291L0.831,-0.291L0.665,-0.577C0.655,-0.571 0.645,-0.565 0.635,-0.558C0.421,-0.463 0.171,-0.615 0.165,-0.855C0.165,-0.858 0.165,-0.861 0.165,-0.864L0.164,-0.864C0.164,-0.864 0.164,-0.864 0.164,-0.865L-0.166,-0.865C-0.166,-0.861 -0.166,-0.858 -0.166,-0.855C-0.171,-0.614 -0.421,-0.461 -0.636,-0.557C-0.645,-0.564 -0.655,-0.57 -0.666,-0.576L-0.667,-0.573L-0.668,-0.574L-0.833,-0.288L-0.833,-0.288C-0.822,-0.282 -0.812,-0.276 -0.801,-0.27C-0.611,-0.133 -0.618,0.159 -0.823,0.285C-0.825,0.286 -0.828,0.288 -0.83,0.289L-0.83,0.29C-0.83,0.29 -0.831,0.29 -0.831,0.29L-0.831,0.29L-0.666,0.576C-0.663,0.574 -0.661,0.573 -0.658,0.571C-0.446,0.456 -0.189,0.595 -0.165,0.829C-0.165,0.841 -0.166,0.853 -0.166,0.865L-0.163,0.865C-0.163,0.865 -0.163,0.865 -0.163,0.865L-0.163,0.865L0.167,0.865L0.167,0.865C0.167,0.853 0.167,0.841 0.166,0.829C0.19,0.595 0.447,0.456 0.658,0.57C0.661,0.572 0.663,0.573 0.665,0.575L0.666,0.574C0.666,0.574 0.666,0.574 0.667,0.575L0.832,0.289C0.829,0.287 0.826,0.286 0.823,0.284C0.618,0.159 0.61,-0.134 0.8,-0.272C0.811,-0.277 0.821,-0.283 0.832,-0.289L0.83,-0.291L0.831,-0.291Z" fill="#000" fill-rule="nonzero" clip-path="url(#hx)"/></g></g><g transform="translate(580.00,725.89)"><g transform="scale(36)"><path d="M1.0000,0.0000L0.5000,0.8660L-0.5000,0.8660L-1.0000,0.0000L-0.5000,-0.8660L0.5000,-0.8660Z" fill="#fff"/></g><g transform="rotate(180) scale(36,36)"><path d="M0.831,-0.291L0.831,-0.291L0.665,-0.577C0.655,-0.571 0.645,-0.565 0.635,-0.558C0.421,-0.463 0.171,-0.615 0.165,-0.855C0.165,-0.858 0.165,-0.861 0.165,-0.864L0.164,-0.864C0.164,-0.864 0.164,-0.864 0.164,-0.865L-0.166,-0.865C-0.166,-0.861 -0.166,-0.858 -0.166,-0.855C-0.171,-0.614 -0.421,-0.461 -0.636,-0.557C-0.645,-0.564 -0.655,-0.57 -0.666,-0.576L-0.667,-0.573L-0.668,-0.574L-0.833,-0.288L-0.833,-0.288C-0.822,-0.282 -0.812,-0.276 -0.801,-0.27C-0.611,-0.133 -0.618,0.159 -0.823,0.285C-0.825,0.286 -0.828,0.288 -0.83,0.289L-0.83,0.29C-0.83,0.29 -0.831,0.29 -0.831,0.29L-0.831,0.29L-0.666,0.576C-0.663,0.574 -0.661,0.573 -0.658,0.571C-0.446,0.456 -0.189,0.595 -0.165,0.829C-0.165,0.841 -0.166,0.853 -0.166,0.865L-0.163,0.865C-0.163,0.865 -0.163,0.865 -0.163,0.865L-0.163,0.865L0.167,0.865L0.167,0.865C0.167,0.853 0.167,0.841 0.166,0.829C0.19,0.595 0.447,0.456 0.658,0.57C0.661,0.572 0.663,0.573 0.665,0.575L0.666,0.574C0.666,0.574 0.666,0.574 0.667,0.575L0.832,0.289C0.829,0.287 0.826,0.286 0.823,0.284C0.618,0.159 0.61,-0.134 0.8,-0.272C0.811,-0.277 0.821,-0.283 0.832,-0.289L0.83,-0.291L0.831,-0.291Z" fill="#000" fill-rule="nonzero" clip-path="url(#hx)"/></g></g><g transform="translate(580.00,788.25)"><g transform="scale(36)"><path d="M1.0000,0.0000L0.5000,0.8660L-0.5000,0.8660L-1.0000,0.0000L-0.5000,-0.8660L0.5000,-0.8660Z" fill="#fff"/></g><g transform="rotate(180) scale(36,36)"><path d="M0.831,-0.291L0.831,-0.291L0.665,-0.577C0.655,-0.571 0.645,-0.565 0.635,-0.558C0.421,-0.463 0.171,-0.615 0.165,-0.855C0.165,-0.858 0.165,-0.861 0.165,-0.864L0.164,-0.864C0.164,-0.864 0.164,-0.864 0.164,-0.865L-0.166,-0.865C-0.166,-0.861 -0.166,-0.858 -0.166,-0.855C-0.171,-0.614 -0.421,-0.461 -0.636,-0.557C-0.645,-0.564 -0.655,-0.57 -0.666,-0.576L-0.667,-0.573L-0.668,-0.574L-0.833,-0.288L-0.833,-0.288C-0.822,-0.282 -0.812,-0.276 -0.801,-0.27C-0.611,-0.133 -0.618,0.159 -0.823,0.285C-0.825,0.286 -0.828,0.288 -0.83,0.289L-0.83,0.29C-0.83,0.29 -0.831,0.29 -0.831,0.29L-0.831,0.29L-0.666,0.576C-0.663,0.574 -0.661,0.573 -0.658,0.571C-0.446,0.456 -0.189,0.595 -0.165,0.829C-0.165,0.841 -0.166,0.853 -0.166,0.865L-0.163,0.865C-0.163,0.865 -0.163,0.865 -0.163,0.865L-0.163,0.865L0.167,0.865L0.167,0.865C0.167,0.853 0.167,0.841 0.166,0.829C0.19,0.595 0.447,0.456 0.658,0.57C0.661,0.572 0.663,0.573 0.665,0.575L0.666,0.574C0.666,0.574 0.666,0.574 0.667,0.575L0.832,0.289C0.829,0.287 0.826,0.286 0.823,0.284C0.618,0.159 0.61,-0.134 0.8,-0.272C0.811,-0.277 0.821,-0.283 0.832,-0.289L0.83,-0.291L0.831,-0.291Z" fill="#000" fill-rule="nonzero" clip-path="url(#hx)"/></g></g><g transform="translate(580.00,850.60)"><g transform="scale(36)"><path d="M1.0000,0.0000L0.5000,0.8660L-0.5000,0.8660L-1.0000,0.0000L-0.5000,-0.8660L0.5000,-0.8660Z" fill="#fff"/></g><g transform="rotate(180) scale(36,36)"><path d="M0.831,-0.291L0.831,-0.291L0.665,-0.577C0.655,-0.571 0.645,-0.565 0.635,-0.558C0.421,-0.463 0.171,-0.615 0.165,-0.855C0.165,-0.858 0.165,-0.861 0.165,-0.864L0.164,-0.864C0.164,-0.864 0.164,-0.864 0.164,-0.865L-0.166,-0.865C-0.166,-0.861 -0.166,-0.858 -0.166,-0.855C-0.171,-0.614 -0.421,-0.461 -0.636,-0.557C-0.645,-0.564 -0.655,-0.57 -0.666,-0.576L-0.667,-0.573L-0.668,-0.574L-0.833,-0.288L-0.833,-0.288C-0.822,-0.282 -0.812,-0.276 -0.801,-0.27C-0.611,-0.133 -0.618,0.159 -0.823,0.285C-0.825,0.286 -0.828,0.288 -0.83,0.289L-0.83,0.29C-0.83,0.29 -0.831,0.29 -0.831,0.29L-0.831,0.29L-0.666,0.576C-0.663,0.574 -0.661,0.573 -0.658,0.571C-0.446,0.456 -0.189,0.595 -0.165,0.829C-0.165,0.841 -0.166,0.853 -0.166,0.865L-0.163,0.865C-0.163,0.865 -0.163,0.865 -0.163,0.865L-0.163,0.865L0.167,0.865L0.167,0.865C0.167,0.853 0.167,0.841 0.166,0.829C0.19,0.595 0.447,0.456 0.658,0.57C0.661,0.572 0.663,0.573 0.665,0.575L0.666,0.574C0.666,0.574 0.666,0.574 0.667,0.575L0.832,0.289C0.829,0.287 0.826,0.286 0.823,0.284C0.618,0.159 0.61,-0.134 0.8,-0.272C0.811,-0.277 0.821,-0.283 0.832,-0.289L0.83,-0.291L0.831,-0.291Z" fill="#000" fill-rule="nonzero" clip-path="url(#hx)"/></g></g><g transform="translate(634.00,320.59)"><g transform="scale(36)"><path d="M1.0000,0.0000L0.5000,0.8660L-0.5000,0.8660L-1.0000,0.0000L-0.5000,-0.8660L0.5000,-0.8660Z" fill="#fff"/></g><g transform="rotate(0) scale(36,36)"><path d="M0.831,-0.291L0.831,-0.291L0.665,-0.577C0.655,-0.571 0.645,-0.565 0.635,-0.558C0.421,-0.463 0.171,-0.615 0.165,-0.855C0.165,-0.858 0.165,-0.861 0.165,-0.864L0.164,-0.864C0.164,-0.864 0.164,-0.864 0.164,-0.865L-0.166,-0.865C-0.166,-0.861 -0.166,-0.858 -0.166,-0.855C-0.171,-0.614 -0.421,-0.461 -0.636,-0.557C-0.645,-0.564 -0.655,-0.57 -0.666,-0.576L-0.667,-0.573L-0.668,-0.574L-0.833,-0.288L-0.833,-0.288C-0.822,-0.282 -0.812,-0.276 -0.801,-0.27C-0.611,-0.133 -0.618,0.159 -0.823,0.285C-0.825,0.286 -0.828,0.288 -0.83,0.289L-0.83,0.29C-0.83,0.29 -0.831,0.29 -0.831,0.29L-0.831,0.29L-0.666,0.576C-0.663,0.574 -0.661,0.573 -0.658,0.571C-0.446,0.456 -0.189,0.595 -0.165,0.829C-0.165,0.841 -0.166,0.853 -0.166,0.865L-0.163,0.865C-0.163,0.865 -0.163,0.865 -0.163,0.865L-0.163,0.865L0.167,0.865L0.167,0.865C0.167,0.853 0.167,0.841 0.166,0.829C0.19,0.595 0.447,0.456 0.658,0.57C0.661,0.572 0.663,0.573 0.665,0.575L0.666,0.574C0.666,0.574 0.666,0.574 0.667,0.575L0.832,0.289C0.829,0.287 0.826,0.286 0.823,0.284C0.618,0.159 0.61,-0.134 0.8,-0.272C0.811,-0.277 0.821,-0.283 0.832,-0.289L0.83,-0.291L0.831,-0.291Z" fill="#000" fill-rule="nonzero" clip-path="url(#hx)"/></g></g><g transform="translate(634.00,382.95)"><g transform="scale(36)"><path d="M1.0000,0.0000L0.5000,0.8660L-0.5000,0.8660L-1.0000,0.0000L-0.5000,-0.8660L0.5000,-0.8660Z" fill="#fff"/></g><g transform="rotate(0) scale(36,36)"><path d="M0.831,-0.291L0.831,-0.291L0.665,-0.577C0.655,-0.571 0.645,-0.565 0.635,-0.558C0.421,-0.463 0.171,-0.615 0.165,-0.855C0.165,-0.858 0.165,-0.861 0.165,-0.864L0.164,-0.864C0.164,-0.864 0.164,-0.864 0.164,-0.865L-0.166,-0.865C-0.166,-0.861 -0.166,-0.858 -0.166,-0.855C-0.171,-0.614 -0.421,-0.461 -0.636,-0.557C-0.645,-0.564 -0.655,-0.57 -0.666,-0.576L-0.667,-0.573L-0.668,-0.574L-0.833,-0.288L-0.833,-0.288C-0.822,-0.282 -0.812,-0.276 -0.801,-0.27C-0.611,-0.133 -0.618,0.159 -0.823,0.285C-0.825,0.286 -0.828,0.288 -0.83,0.289L-0.83,0.29C-0.83,0.29 -0.831,0.29 -0.831,0.29L-0.831,0.29L-0.666,0.576C-0.663,0.574 -0.661,0.573 -0.658,0.571C-0.446,0.456 -0.189,0.595 -0.165,0.829C-0.165,0.841 -0.166,0.853 -0.166,0.865L-0.163,0.865C-0.163,0.865 -0.163,0.865 -0.163,0.865L-0.163,0.865L0.167,0.865L0.167,0.865C0.167,0.853 0.167,0.841 0.166,0.829C0.19,0.595 0.447,0.456 0.658,0.57C0.661,0.572 0.663,0.573 0.665,0.575L0.666,0.574C0.666,0.574 0.666,0.574 0.667,0.575L0.832,0.289C0.829,0.287 0.826,0.286 0.823,0.284C0.618,0.159 0.61,-0.134 0.8,-0.272C0.811,-0.277 0.821,-0.283 0.832,-0.289L0.83,-0.291L0.831,-0.291Z" fill="#000" fill-rule="nonzero" clip-path="url(#hx)"/></g></g><g transform="translate(634.00,445.30)"><g transform="scale(36)"><path d="M1.0000,0.0000L0.5000,0.8660L-0.5000,0.8660L-1.0000,0.0000L-0.5000,-0.8660L0.5000,-0.8660Z" fill="#fff"/></g><g transform="rotate(0) scale(36,36)"><path d="M0.831,-0.291L0.831,-0.291L0.665,-0.577C0.655,-0.571 0.645,-0.565 0.635,-0.558C0.421,-0.463 0.171,-0.615 0.165,-0.855C0.165,-0.858 0.165,-0.861 0.165,-0.864L0.164,-0.864C0.164,-0.864 0.164,-0.864 0.164,-0.865L-0.166,-0.865C-0.166,-0.861 -0.166,-0.858 -0.166,-0.855C-0.171,-0.614 -0.421,-0.461 -0.636,-0.557C-0.645,-0.564 -0.655,-0.57 -0.666,-0.576L-0.667,-0.573L-0.668,-0.574L-0.833,-0.288L-0.833,-0.288C-0.822,-0.282 -0.812,-0.276 -0.801,-0.27C-0.611,-0.133 -0.618,0.159 -0.823,0.285C-0.825,0.286 -0.828,0.288 -0.83,0.289L-0.83,0.29C-0.83,0.29 -0.831,0.29 -0.831,0.29L-0.831,0.29L-0.666,0.576C-0.663,0.574 -0.661,0.573 -0.658,0.571C-0.446,0.456 -0.189,0.595 -0.165,0.829C-0.165,0.841 -0.166,0.853 -0.166,0.865L-0.163,0.865C-0.163,0.865 -0.163,0.865 -0.163,0.865L-0.163,0.865L0.167,0.865L0.167,0.865C0.167,0.853 0.167,0.841 0.166,0.829C0.19,0.595 0.447,0.456 0.658,0.57C0.661,0.572 0.663,0.573 0.665,0.575L0.666,0.574C0.666,0.574 0.666,0.574 0.667,0.575L0.832,0.289C0.829,0.287 0.826,0.286 0.823,0.284C0.618,0.159 0.61,-0.134 0.8,-0.272C0.811,-0.277 0.821,-0.283 0.832,-0.289L0.83,-0.291L0.831,-0.291Z" fill="#000" fill-rule="nonzero" clip-path="url(#hx)"/></g></g><g transform="translate(688.00,351.77)"><g transform="scale(36)"><path d="M1.0000,0.0000L0.5000,0.8660L-0.5000,0.8660L-1.0000,0.0000L-0.5000,-0.8660L0.5000,-0.8660Z" fill="#fff"/></g><g transform="rotate(0) scale(36,36)"><path d="M0.831,-0.291L0.831,-0.291L0.665,-0.577C0.655,-0.571 0.645,-0.565 0.635,-0.558C0.421,-0.463 0.171,-0.615 0.165,-0.855C0.165,-0.858 0.165,-0.861 0.165,-0.864L0.164,-0.864C0.164,-0.864 0.164,-0.864 0.164,-0.865L-0.166,-0.865C-0.166,-0.861 -0.166,-0.858 -0.166,-0.855C-0.171,-0.614 -0.421,-0.461 -0.636,-0.557C-0.645,-0.564 -0.655,-0.57 -0.666,-0.576L-0.667,-0.573L-0.668,-0.574L-0.833,-0.288L-0.833,-0.288C-0.822,-0.282 -0.812,-0.276 -0.801,-0.27C-0.611,-0.133 -0.618,0.159 -0.823,0.285C-0.825,0.286 -0.828,0.288 -0.83,0.289L-0.83,0.29C-0.83,0.29 -0.831,0.29 -0.831,0.29L-0.831,0.29L-0.666,0.576C-0.663,0.574 -0.661,0.573 -0.658,0.571C-0.446,0.456 -0.189,0.595 -0.165,0.829C-0.165,0.841 -0.166,0.853 -0.166,0.865L-0.163,0.865C-0.163,0.865 -0.163,0.865 -0.163,0.865L-0.163,0.865L0.167,0.865L0.167,0.865C0.167,0.853 0.167,0.841 0.166,0.829C0.19,0.595 0.447,0.456 0.658,0.57C0.661,0.572 0.663,0.573 0.665,0.575L0.666,0.574C0.666,0.574 0.666,0.574 0.667,0.575L0.832,0.289C0.829,0.287 0.826,0.286 0.823,0.284C0.618,0.159 0.61,-0.134 0.8,-0.272C0.811,-0.277 0.821,-0.283 0.832,-0.289L0.83,-0.291L0.831,-0.291Z" fill="#000" fill-rule="nonzero" clip-path="url(#hx)"/></g></g><g transform="translate(688.00,663.54)"><g transform="scale(36)"><path d="M1.0000,0.0000L0.5000,0.8660L-0.5000,0.8660L-1.0000,0.0000L-0.5000,-0.8660L0.5000,-0.8660Z" fill="#fff"/></g><g transform="rotate(180) scale(36,36)"><path d="M0.831,-0.291L0.831,-0.291L0.665,-0.577C0.655,-0.571 0.645,-0.565 0.635,-0.558C0.421,-0.463 0.171,-0.615 0.165,-0.855C0.165,-0.858 0.165,-0.861 0.165,-0.864L0.164,-0.864C0.164,-0.864 0.164,-0.864 0.164,-0.865L-0.166,-0.865C-0.166,-0.861 -0.166,-0.858 -0.166,-0.855C-0.171,-0.614 -0.421,-0.461 -0.636,-0.557C-0.645,-0.564 -0.655,-0.57 -0.666,-0.576L-0.667,-0.573L-0.668,-0.574L-0.833,-0.288L-0.833,-0.288C-0.822,-0.282 -0.812,-0.276 -0.801,-0.27C-0.611,-0.133 -0.618,0.159 -0.823,0.285C-0.825,0.286 -0.828,0.288 -0.83,0.289L-0.83,0.29C-0.83,0.29 -0.831,0.29 -0.831,0.29L-0.831,0.29L-0.666,0.576C-0.663,0.574 -0.661,0.573 -0.658,0.571C-0.446,0.456 -0.189,0.595 -0.165,0.829C-0.165,0.841 -0.166,0.853 -0.166,0.865L-0.163,0.865C-0.163,0.865 -0.163,0.865 -0.163,0.865L-0.163,0.865L0.167,0.865L0.167,0.865C0.167,0.853 0.167,0.841 0.166,0.829C0.19,0.595 0.447,0.456 0.658,0.57C0.661,0.572 0.663,0.573 0.665,0.575L0.666,0.574C0.666,0.574 0.666,0.574 0.667,0.575L0.832,0.289C0.829,0.287 0.826,0.286 0.823,0.284C0.618,0.159 0.61,-0.134 0.8,-0.272C0.811,-0.277 0.821,-0.283 0.832,-0.289L0.83,-0.291L0.831,-0.291Z" fill="#000" fill-rule="nonzero" clip-path="url(#hx)"/></g></g><g transform="translate(688.00,725.89)"><g transform="scale(36)"><path d="M1.0000,0.0000L0.5000,0.8660L-0.5000,0.8660L-1.0000,0.0000L-0.5000,-0.8660L0.5000,-0.8660Z" fill="#fff"/></g><g transform="rotate(180) scale(36,36)"><path d="M0.831,-0.291L0.831,-0.291L0.665,-0.577C0.655,-0.571 0.645,-0.565 0.635,-0.558C0.421,-0.463 0.171,-0.615 0.165,-0.855C0.165,-0.858 0.165,-0.861 0.165,-0.864L0.164,-0.864C0.164,-0.864 0.164,-0.864 0.164,-0.865L-0.166,-0.865C-0.166,-0.861 -0.166,-0.858 -0.166,-0.855C-0.171,-0.614 -0.421,-0.461 -0.636,-0.557C-0.645,-0.564 -0.655,-0.57 -0.666,-0.576L-0.667,-0.573L-0.668,-0.574L-0.833,-0.288L-0.833,-0.288C-0.822,-0.282 -0.812,-0.276 -0.801,-0.27C-0.611,-0.133 -0.618,0.159 -0.823,0.285C-0.825,0.286 -0.828,0.288 -0.83,0.289L-0.83,0.29C-0.83,0.29 -0.831,0.29 -0.831,0.29L-0.831,0.29L-0.666,0.576C-0.663,0.574 -0.661,0.573 -0.658,0.571C-0.446,0.456 -0.189,0.595 -0.165,0.829C-0.165,0.841 -0.166,0.853 -0.166,0.865L-0.163,0.865C-0.163,0.865 -0.163,0.865 -0.163,0.865L-0.163,0.865L0.167,0.865L0.167,0.865C0.167,0.853 0.167,0.841 0.166,0.829C0.19,0.595 0.447,0.456 0.658,0.57C0.661,0.572 0.663,0.573 0.665,0.575L0.666,0.574C0.666,0.574 0.666,0.574 0.667,0.575L0.832,0.289C0.829,0.287 0.826,0.286 0.823,0.284C0.618,0.159 0.61,-0.134 0.8,-0.272C0.811,-0.277 0.821,-0.283 0.832,-0.289L0.83,-0.291L0.831,-0.291Z" fill="#000" fill-rule="nonzero" clip-path="url(#hx)"/></g></g><g transform="translate(688.00,788.25)"><g transform="scale(36)"><path d="M1.0000,0.0000L0.5000,0.8660L-0.5000,0.8660L-1.0000,0.0000L-0.5000,-0.8660L0.5000,-0.8660Z" fill="#fff"/></g><g transform="rotate(180) scale(36,36)"><path d="M0.831,-0.291L0.831,-0.291L0.665,-0.577C0.655,-0.571 0.645,-0.565 0.635,-0.558C0.421,-0.463 0.171,-0.615 0.165,-0.855C0.165,-0.858 0.165,-0.861 0.165,-0.864L0.164,-0.864C0.164,-0.864 0.164,-0.864 0.164,-0.865L-0.166,-0.865C-0.166,-0.861 -0.166,-0.858 -0.166,-0.855C-0.171,-0.614 -0.421,-0.461 -0.636,-0.557C-0.645,-0.564 -0.655,-0.57 -0.666,-0.576L-0.667,-0.573L-0.668,-0.574L-0.833,-0.288L-0.833,-0.288C-0.822,-0.282 -0.812,-0.276 -0.801,-0.27C-0.611,-0.133 -0.618,0.159 -0.823,0.285C-0.825,0.286 -0.828,0.288 -0.83,0.289L-0.83,0.29C-0.83,0.29 -0.831,0.29 -0.831,0.29L-0.831,0.29L-0.666,0.576C-0.663,0.574 -0.661,0.573 -0.658,0.571C-0.446,0.456 -0.189,0.595 -0.165,0.829C-0.165,0.841 -0.166,0.853 -0.166,0.865L-0.163,0.865C-0.163,0.865 -0.163,0.865 -0.163,0.865L-0.163,0.865L0.167,0.865L0.167,0.865C0.167,0.853 0.167,0.841 0.166,0.829C0.19,0.595 0.447,0.456 0.658,0.57C0.661,0.572 0.663,0.573 0.665,0.575L0.666,0.574C0.666,0.574 0.666,0.574 0.667,0.575L0.832,0.289C0.829,0.287 0.826,0.286 0.823,0.284C0.618,0.159 0.61,-0.134 0.8,-0.272C0.811,-0.277 0.821,-0.283 0.832,-0.289L0.83,-0.291L0.831,-0.291Z" fill="#000" fill-rule="nonzero" clip-path="url(#hx)"/></g></g><g transform="translate(688.00,850.60)"><g transform="scale(36)"><path d="M1.0000,0.0000L0.5000,0.8660L-0.5000,0.8660L-1.0000,0.0000L-0.5000,-0.8660L0.5000,-0.8660Z" fill="#fff"/></g><g transform="rotate(180) scale(36,36)"><path d="M0.831,-0.291L0.831,-0.291L0.665,-0.577C0.655,-0.571 0.645,-0.565 0.635,-0.558C0.421,-0.463 0.171,-0.615 0.165,-0.855C0.165,-0.858 0.165,-0.861 0.165,-0.864L0.164,-0.864C0.164,-0.864 0.164,-0.864 0.164,-0.865L-0.166,-0.865C-0.166,-0.861 -0.166,-0.858 -0.166,-0.855C-0.171,-0.614 -0.421,-0.461 -0.636,-0.557C-0.645,-0.564 -0.655,-0.57 -0.666,-0.576L-0.667,-0.573L-0.668,-0.574L-0.833,-0.288L-0.833,-0.288C-0.822,-0.282 -0.812,-0.276 -0.801,-0.27C-0.611,-0.133 -0.618,0.159 -0.823,0.285C-0.825,0.286 -0.828,0.288 -0.83,0.289L-0.83,0.29C-0.83,0.29 -0.831,0.29 -0.831,0.29L-0.831,0.29L-0.666,0.576C-0.663,0.574 -0.661,0.573 -0.658,0.571C-0.446,0.456 -0.189,0.595 -0.165,0.829C-0.165,0.841 -0.166,0.853 -0.166,0.865L-0.163,0.865C-0.163,0.865 -0.163,0.865 -0.163,0.865L-0.163,0.865L0.167,0.865L0.167,0.865C0.167,0.853 0.167,0.841 0.166,0.829C0.19,0.595 0.447,0.456 0.658,0.57C0.661,0.572 0.663,0.573 0.665,0.575L0.666,0.574C0.666,0.574 0.666,0.574 0.667,0.575L0.832,0.289C0.829,0.287 0.826,0.286 0.823,0.284C0.618,0.159 0.61,-0.134 0.8,-0.272C0.811,-0.277 0.821,-0.283 0.832,-0.289L0.83,-0.291L0.831,-0.291Z" fill="#000" fill-rule="nonzero" clip-path="url(#hx)"/></g></g><g transform="translate(742.00,320.59)"><g transform="scale(36)"><path d="M1.0000,0.0000L0.5000,0.8660L-0.5000,0.8660L-1.0000,0.0000L-0.5000,-0.8660L0.5000,-0.8660Z" fill="#fff"/></g><g transform="rotate(0) scale(36,36)"><path d="M0.831,-0.291L0.831,-0.291L0.665,-0.577C0.655,-0.571 0.645,-0.565 0.635,-0.558C0.421,-0.463 0.171,-0.615 0.165,-0.855C0.165,-0.858 0.165,-0.861 0.165,-0.864L0.164,-0.864C0.164,-0.864 0.164,-0.864 0.164,-0.865L-0.166,-0.865C-0.166,-0.861 -0.166,-0.858 -0.166,-0.855C-0.171,-0.614 -0.421,-0.461 -0.636,-0.557C-0.645,-0.564 -0.655,-0.57 -0.666,-0.576L-0.667,-0.573L-0.668,-0.574L-0.833,-0.288L-0.833,-0.288C-0.822,-0.282 -0.812,-0.276 -0.801,-0.27C-0.611,-0.133 -0.618,0.159 -0.823,0.285C-0.825,0.286 -0.828,0.288 -0.83,0.289L-0.83,0.29C-0.83,0.29 -0.831,0.29 -0.831,0.29L-0.831,0.29L-0.666,0.576C-0.663,0.574 -0.661,0.573 -0.658,0.571C-0.446,0.456 -0.189,0.595 -0.165,0.829C-0.165,0.841 -0.166,0.853 -0.166,0.865L-0.163,0.865C-0.163,0.865 -0.163,0.865 -0.163,0.865L-0.163,0.865L0.167,0.865L0.167,0.865C0.167,0.853 0.167,0.841 0.166,0.829C0.19,0.595 0.447,0.456 0.658,0.57C0.661,0.572 0.663,0.573 0.665,0.575L0.666,0.574C0.666,0.574 0.666,0.574 0.667,0.575L0.832,0.289C0.829,0.287 0.826,0.286 0.823,0.284C0.618,0.159 0.61,-0.134 0.8,-0.272C0.811,-0.277 0.821,-0.283 0.832,-0.289L0.83,-0.291L0.831,-0.291Z" fill="#000" fill-rule="nonzero" clip-path="url(#hx)"/></g></g><g transform="translate(742.00,382.95)"><g transform="scale(36)"><path d="M1.0000,0.0000L0.5000,0.8660L-0.5000,0.8660L-1.0000,0.0000L-0.5000,-0.8660L0.5000,-0.8660Z" fill="#fff"/></g><g transform="rotate(0) scale(36,36)"><path d="M0.831,-0.291L0.831,-0.291L0.665,-0.577C0.655,-0.571 0.645,-0.565 0.635,-0.558C0.421,-0.463 0.171,-0.615 0.165,-0.855C0.165,-0.858 0.165,-0.861 0.165,-0.864L0.164,-0.864C0.164,-0.864 0.164,-0.864 0.164,-0.865L-0.166,-0.865C-0.166,-0.861 -0.166,-0.858 -0.166,-0.855C-0.171,-0.614 -0.421,-0.461 -0.636,-0.557C-0.645,-0.564 -0.655,-0.57 -0.666,-0.576L-0.667,-0.573L-0.668,-0.574L-0.833,-0.288L-0.833,-0.288C-0.822,-0.282 -0.812,-0.276 -0.801,-0.27C-0.611,-0.133 -0.618,0.159 -0.823,0.285C-0.825,0.286 -0.828,0.288 -0.83,0.289L-0.83,0.29C-0.83,0.29 -0.831,0.29 -0.831,0.29L-0.831,0.29L-0.666,0.576C-0.663,0.574 -0.661,0.573 -0.658,0.571C-0.446,0.456 -0.189,0.595 -0.165,0.829C-0.165,0.841 -0.166,0.853 -0.166,0.865L-0.163,0.865C-0.163,0.865 -0.163,0.865 -0.163,0.865L-0.163,0.865L0.167,0.865L0.167,0.865C0.167,0.853 0.167,0.841 0.166,0.829C0.19,0.595 0.447,0.456 0.658,0.57C0.661,0.572 0.663,0.573 0.665,0.575L0.666,0.574C0.666,0.574 0.666,0.574 0.667,0.575L0.832,0.289C0.829,0.287 0.826,0.286 0.823,0.284C0.618,0.159 0.61,-0.134 0.8,-0.272C0.811,-0.277 0.821,-0.283 0.832,-0.289L0.83,-0.291L0.831,-0.291Z" fill="#000" fill-rule="nonzero" clip-path="url(#hx)"/></g></g><g transform="translate(742.00,445.30)"><g transform="scale(36)"><path d="M1.0000,0.0000L0.5000,0.8660L-0.5000,0.8660L-1.0000,0.0000L-0.5000,-0.8660L0.5000,-0.8660Z" fill="#fff"/></g><g transform="rotate(0) scale(36,36)"><path d="M0.831,-0.291L0.831,-0.291L0.665,-0.577C0.655,-0.571 0.645,-0.565 0.635,-0.558C0.421,-0.463 0.171,-0.615 0.165,-0.855C0.165,-0.858 0.165,-0.861 0.165,-0.864L0.164,-0.864C0.164,-0.864 0.164,-0.864 0.164,-0.865L-0.166,-0.865C-0.166,-0.861 -0.166,-0.858 -0.166,-0.855C-0.171,-0.614 -0.421,-0.461 -0.636,-0.557C-0.645,-0.564 -0.655,-0.57 -0.666,-0.576L-0.667,-0.573L-0.668,-0.574L-0.833,-0.288L-0.833,-0.288C-0.822,-0.282 -0.812,-0.276 -0.801,-0.27C-0.611,-0.133 -0.618,0.159 -0.823,0.285C-0.825,0.286 -0.828,0.288 -0.83,0.289L-0.83,0.29C-0.83,0.29 -0.831,0.29 -0.831,0.29L-0.831,0.29L-0.666,0.576C-0.663,0.574 -0.661,0.573 -0.658,0.571C-0.446,0.456 -0.189,0.595 -0.165,0.829C-0.165,0.841 -0.166,0.853 -0.166,0.865L-0.163,0.865C-0.163,0.865 -0.163,0.865 -0.163,0.865L-0.163,0.865L0.167,0.865L0.167,0.865C0.167,0.853 0.167,0.841 0.166,0.829C0.19,0.595 0.447,0.456 0.658,0.57C0.661,0.572 0.663,0.573 0.665,0.575L0.666,0.574C0.666,0.574 0.666,0.574 0.667,0.575L0.832,0.289C0.829,0.287 0.826,0.286 0.823,0.284C0.618,0.159 0.61,-0.134 0.8,-0.272C0.811,-0.277 0.821,-0.283 0.832,-0.289L0.83,-0.291L0.831,-0.291Z" fill="#000" fill-rule="nonzero" clip-path="url(#hx)"/></g></g><g transform="translate(742.00,507.65)"><g transform="scale(36)"><path d="M1.0000,0.0000L0.5000,0.8660L-0.5000,0.8660L-1.0000,0.0000L-0.5000,-0.8660L0.5000,-0.8660Z" fill="#fff"/></g><g transform="rotate(0) scale(36,36)"><path d="M0.831,-0.291L0.831,-0.291L0.665,-0.577C0.655,-0.571 0.645,-0.565 0.635,-0.558C0.421,-0.463 0.171,-0.615 0.165,-0.855C0.165,-0.858 0.165,-0.861 0.165,-0.864L0.164,-0.864C0.164,-0.864 0.164,-0.864 0.164,-0.865L-0.166,-0.865C-0.166,-0.861 -0.166,-0.858 -0.166,-0.855C-0.171,-0.614 -0.421,-0.461 -0.636,-0.557C-0.645,-0.564 -0.655,-0.57 -0.666,-0.576L-0.667,-0.573L-0.668,-0.574L-0.833,-0.288L-0.833,-0.288C-0.822,-0.282 -0.812,-0.276 -0.801,-0.27C-0.611,-0.133 -0.618,0.159 -0.823,0.285C-0.825,0.286 -0.828,0.288 -0.83,0.289L-0.83,0.29C-0.83,0.29 -0.831,0.29 -0.831,0.29L-0.831,0.29L-0.666,0.576C-0.663,0.574 -0.661,0.573 -0.658,0.571C-0.446,0.456 -0.189,0.595 -0.165,0.829C-0.165,0.841 -0.166,0.853 -0.166,0.865L-0.163,0.865C-0.163,0.865 -0.163,0.865 -0.163,0.865L-0.163,0.865L0.167,0.865L0.167,0.865C0.167,0.853 0.167,0.841 0.166,0.829C0.19,0.595 0.447,0.456 0.658,0.57C0.661,0.572 0.663,0.573 0.665,0.575L0.666,0.574C0.666,0.574 0.666,0.574 0.667,0.575L0.832,0.289C0.829,0.287 0.826,0.286 0.823,0.284C0.618,0.159 0.61,-0.134 0.8,-0.272C0.811,-0.277 0.821,-0.283 0.832,-0.289L0.83,-0.291L0.831,-0.291Z" fill="#000" fill-rule="nonzero" clip-path="url(#hx)"/></g></g><g transform="translate(742.00,570.01)"><g transform="scale(36)"><path d="M1.0000,0.0000L0.5000,0.8660L-0.5000,0.8660L-1.0000,0.0000L-0.5000,-0.8660L0.5000,-0.8660Z" fill="#fff"/></g><g transform="rotate(0) scale(36,36)"><path d="M0.831,-0.291L0.831,-0.291L0.665,-0.577C0.655,-0.571 0.645,-0.565 0.635,-0.558C0.421,-0.463 0.171,-0.615 0.165,-0.855C0.165,-0.858 0.165,-0.861 0.165,-0.864L0.164,-0.864C0.164,-0.864 0.164,-0.864 0.164,-0.865L-0.166,-0.865C-0.166,-0.861 -0.166,-0.858 -0.166,-0.855C-0.171,-0.614 -0.421,-0.461 -0.636,-0.557C-0.645,-0.564 -0.655,-0.57 -0.666,-0.576L-0.667,-0.573L-0.668,-0.574L-0.833,-0.288L-0.833,-0.288C-0.822,-0.282 -0.812,-0.276 -0.801,-0.27C-0.611,-0.133 -0.618,0.159 -0.823,0.285C-0.825,0.286 -0.828,0.288 -0.83,0.289L-0.83,0.29C-0.83,0.29 -0.831,0.29 -0.831,0.29L-0.831,0.29L-0.666,0.576C-0.663,0.574 -0.661,0.573 -0.658,0.571C-0.446,0.456 -0.189,0.595 -0.165,0.829C-0.165,0.841 -0.166,0.853 -0.166,0.865L-0.163,0.865C-0.163,0.865 -0.163,0.865 -0.163,0.865L-0.163,0.865L0.167,0.865L0.167,0.865C0.167,0.853 0.167,0.841 0.166,0.829C0.19,0.595 0.447,0.456 0.658,0.57C0.661,0.572 0.663,0.573 0.665,0.575L0.666,0.574C0.666,0.574 0.666,0.574 0.667,0.575L0.832,0.289C0.829,0.287 0.826,0.286 0.823,0.284C0.618,0.159 0.61,-0.134 0.8,-0.272C0.811,-0.277 0.821,-0.283 0.832,-0.289L0.83,-0.291L0.831,-0.291Z" fill="#000" fill-rule="nonzero" clip-path="url(#hx)"/></g></g><g transform="translate(742.00,632.36)"><g transform="scale(36)"><path d="M1.0000,0.0000L0.5000,0.8660L-0.5000,0.8660L-1.0000,0.0000L-0.5000,-0.8660L0.5000,-0.8660Z" fill="#fff"/></g><g transform="rotate(180) scale(36,36)"><path d="M0.831,-0.291L0.831,-0.291L0.665,-0.577C0.655,-0.571 0.645,-0.565 0.635,-0.558C0.421,-0.463 0.171,-0.615 0.165,-0.855C0.165,-0.858 0.165,-0.861 0.165,-0.864L0.164,-0.864C0.164,-0.864 0.164,-0.864 0.164,-0.865L-0.166,-0.865C-0.166,-0.861 -0.166,-0.858 -0.166,-0.855C-0.171,-0.614 -0.421,-0.461 -0.636,-0.557C-0.645,-0.564 -0.655,-0.57 -0.666,-0.576L-0.667,-0.573L-0.668,-0.574L-0.833,-0.288L-0.833,-0.288C-0.822,-0.282 -0.812,-0.276 -0.801,-0.27C-0.611,-0.133 -0.618,0.159 -0.823,0.285C-0.825,0.286 -0.828,0.288 -0.83,0.289L-0.83,0.29C-0.83,0.29 -0.831,0.29 -0.831,0.29L-0.831,0.29L-0.666,0.576C-0.663,0.574 -0.661,0.573 -0.658,0.571C-0.446,0.456 -0.189,0.595 -0.165,0.829C-0.165,0.841 -0.166,0.853 -0.166,0.865L-0.163,0.865C-0.163,0.865 -0.163,0.865 -0.163,0.865L-0.163,0.865L0.167,0.865L0.167,0.865C0.167,0.853 0.167,0.841 0.166,0.829C0.19,0.595 0.447,0.456 0.658,0.57C0.661,0.572 0.663,0.573 0.665,0.575L0.666,0.574C0.666,0.574 0.666,0.574 0.667,0.575L0.832,0.289C0.829,0.287 0.826,0.286 0.823,0.284C0.618,0.159 0.61,-0.134 0.8,-0.272C0.811,-0.277 0.821,-0.283 0.832,-0.289L0.83,-0.291L0.831,-0.291Z" fill="#000" fill-rule="nonzero" clip-path="url(#hx)"/></g></g><g transform="translate(742.00,757.07)"><g transform="scale(36)"><path d="M1.0000,0.0000L0.5000,0.8660L-0.5000,0.8660L-1.0000,0.0000L-0.5000,-0.8660L0.5000,-0.8660Z" fill="#fff"/></g><g transform="rotate(180) scale(36,36)"><path d="M0.831,-0.291L0.831,-0.291L0.665,-0.577C0.655,-0.571 0.645,-0.565 0.635,-0.558C0.421,-0.463 0.171,-0.615 0.165,-0.855C0.165,-0.858 0.165,-0.861 0.165,-0.864L0.164,-0.864C0.164,-0.864 0.164,-0.864 0.164,-0.865L-0.166,-0.865C-0.166,-0.861 -0.166,-0.858 -0.166,-0.855C-0.171,-0.614 -0.421,-0.461 -0.636,-0.557C-0.645,-0.564 -0.655,-0.57 -0.666,-0.576L-0.667,-0.573L-0.668,-0.574L-0.833,-0.288L-0.833,-0.288C-0.822,-0.282 -0.812,-0.276 -0.801,-0.27C-0.611,-0.133 -0.618,0.159 -0.823,0.285C-0.825,0.286 -0.828,0.288 -0.83,0.289L-0.83,0.29C-0.83,0.29 -0.831,0.29 -0.831,0.29L-0.831,0.29L-0.666,0.576C-0.663,0.574 -0.661,0.573 -0.658,0.571C-0.446,0.456 -0.189,0.595 -0.165,0.829C-0.165,0.841 -0.166,0.853 -0.166,0.865L-0.163,0.865C-0.163,0.865 -0.163,0.865 -0.163,0.865L-0.163,0.865L0.167,0.865L0.167,0.865C0.167,0.853 0.167,0.841 0.166,0.829C0.19,0.595 0.447,0.456 0.658,0.57C0.661,0.572 0.663,0.573 0.665,0.575L0.666,0.574C0.666,0.574 0.666,0.574 0.667,0.575L0.832,0.289C0.829,0.287 0.826,0.286 0.823,0.284C0.618,0.159 0.61,-0.134 0.8,-0.272C0.811,-0.277 0.821,-0.283 0.832,-0.289L0.83,-0.291L0.831,-0.291Z" fill="#000" fill-rule="nonzero" clip-path="url(#hx)"/></g></g><g transform="translate(742.00,881.78)"><g transform="scale(36)"><path d="M1.0000,0.0000L0.5000,0.8660L-0.5000,0.8660L-1.0000,0.0000L-0.5000,-0.8660L0.5000,-0.8660Z" fill="#fff"/></g><g transform="rotate(180) scale(36,36)"><path d="M0.831,-0.291L0.831,-0.291L0.665,-0.577C0.655,-0.571 0.645,-0.565 0.635,-0.558C0.421,-0.463 0.171,-0.615 0.165,-0.855C0.165,-0.858 0.165,-0.861 0.165,-0.864L0.164,-0.864C0.164,-0.864 0.164,-0.864 0.164,-0.865L-0.166,-0.865C-0.166,-0.861 -0.166,-0.858 -0.166,-0.855C-0.171,-0.614 -0.421,-0.461 -0.636,-0.557C-0.645,-0.564 -0.655,-0.57 -0.666,-0.576L-0.667,-0.573L-0.668,-0.574L-0.833,-0.288L-0.833,-0.288C-0.822,-0.282 -0.812,-0.276 -0.801,-0.27C-0.611,-0.133 -0.618,0.159 -0.823,0.285C-0.825,0.286 -0.828,0.288 -0.83,0.289L-0.83,0.29C-0.83,0.29 -0.831,0.29 -0.831,0.29L-0.831,0.29L-0.666,0.576C-0.663,0.574 -0.661,0.573 -0.658,0.571C-0.446,0.456 -0.189,0.595 -0.165,0.829C-0.165,0.841 -0.166,0.853 -0.166,0.865L-0.163,0.865C-0.163,0.865 -0.163,0.865 -0.163,0.865L-0.163,0.865L0.167,0.865L0.167,0.865C0.167,0.853 0.167,0.841 0.166,0.829C0.19,0.595 0.447,0.456 0.658,0.57C0.661,0.572 0.663,0.573 0.665,0.575L0.666,0.574C0.666,0.574 0.666,0.574 0.667,0.575L0.832,0.289C0.829,0.287 0.826,0.286 0.823,0.284C0.618,0.159 0.61,-0.134 0.8,-0.272C0.811,-0.277 0.821,-0.283 0.832,-0.289L0.83,-0.291L0.831,-0.291Z" fill="#000" fill-rule="nonzero" clip-path="url(#hx)"/></g></g><g transform="translate(796.00,663.54)"><g transform="scale(36)"><path d="M1.0000,0.0000L0.5000,0.8660L-0.5000,0.8660L-1.0000,0.0000L-0.5000,-0.8660L0.5000,-0.8660Z" fill="#fff"/></g><g transform="rotate(180) scale(36,36)"><path d="M0.831,-0.291L0.831,-0.291L0.665,-0.577C0.655,-0.571 0.645,-0.565 0.635,-0.558C0.421,-0.463 0.171,-0.615 0.165,-0.855C0.165,-0.858 0.165,-0.861 0.165,-0.864L0.164,-0.864C0.164,-0.864 0.164,-0.864 0.164,-0.865L-0.166,-0.865C-0.166,-0.861 -0.166,-0.858 -0.166,-0.855C-0.171,-0.614 -0.421,-0.461 -0.636,-0.557C-0.645,-0.564 -0.655,-0.57 -0.666,-0.576L-0.667,-0.573L-0.668,-0.574L-0.833,-0.288L-0.833,-0.288C-0.822,-0.282 -0.812,-0.276 -0.801,-0.27C-0.611,-0.133 -0.618,0.159 -0.823,0.285C-0.825,0.286 -0.828,0.288 -0.83,0.289L-0.83,0.29C-0.83,0.29 -0.831,0.29 -0.831,0.29L-0.831,0.29L-0.666,0.576C-0.663,0.574 -0.661,0.573 -0.658,0.571C-0.446,0.456 -0.189,0.595 -0.165,0.829C-0.165,0.841 -0.166,0.853 -0.166,0.865L-0.163,0.865C-0.163,0.865 -0.163,0.865 -0.163,0.865L-0.163,0.865L0.167,0.865L0.167,0.865C0.167,0.853 0.167,0.841 0.166,0.829C0.19,0.595 0.447,0.456 0.658,0.57C0.661,0.572 0.663,0.573 0.665,0.575L0.666,0.574C0.666,0.574 0.666,0.574 0.667,0.575L0.832,0.289C0.829,0.287 0.826,0.286 0.823,0.284C0.618,0.159 0.61,-0.134 0.8,-0.272C0.811,-0.277 0.821,-0.283 0.832,-0.289L0.83,-0.291L0.831,-0.291Z" fill="#000" fill-rule="nonzero" clip-path="url(#hx)"/></g></g><g transform="translate(796.00,850.60)"><g transform="scale(36)"><path d="M1.0000,0.0000L0.5000,0.8660L-0.5000,0.8660L-1.0000,0.0000L-0.5000,-0.8660L0.5000,-0.8660Z" fill="#fff"/></g><g transform="rotate(180) scale(36,36)"><path d="M0.831,-0.291L0.831,-0.291L0.665,-0.577C0.655,-0.571 0.645,-0.565 0.635,-0.558C0.421,-0.463 0.171,-0.615 0.165,-0.855C0.165,-0.858 0.165,-0.861 0.165,-0.864L0.164,-0.864C0.164,-0.864 0.164,-0.864 0.164,-0.865L-0.166,-0.865C-0.166,-0.861 -0.166,-0.858 -0.166,-0.855C-0.171,-0.614 -0.421,-0.461 -0.636,-0.557C-0.645,-0.564 -0.655,-0.57 -0.666,-0.576L-0.667,-0.573L-0.668,-0.574L-0.833,-0.288L-0.833,-0.288C-0.822,-0.282 -0.812,-0.276 -0.801,-0.27C-0.611,-0.133 -0.618,0.159 -0.823,0.285C-0.825,0.286 -0.828,0.288 -0.83,0.289L-0.83,0.29C-0.83,0.29 -0.831,0.29 -0.831,0.29L-0.831,0.29L-0.666,0.576C-0.663,0.574 -0.661,0.573 -0.658,0.571C-0.446,0.456 -0.189,0.595 -0.165,0.829C-0.165,0.841 -0.166,0.853 -0.166,0.865L-0.163,0.865C-0.163,0.865 -0.163,0.865 -0.163,0.865L-0.163,0.865L0.167,0.865L0.167,0.865C0.167,0.853 0.167,0.841 0.166,0.829C0.19,0.595 0.447,0.456 0.658,0.57C0.661,0.572 0.663,0.573 0.665,0.575L0.666,0.574C0.666,0.574 0.666,0.574 0.667,0.575L0.832,0.289C0.829,0.287 0.826,0.286 0.823,0.284C0.618,0.159 0.61,-0.134 0.8,-0.272C0.811,-0.277 0.821,-0.283 0.832,-0.289L0.83,-0.291L0.831,-0.291Z" fill="#000" fill-rule="nonzero" clip-path="url(#hx)"/></g></g></svg>