<svg xmlns="http://www.w3.org/2000/svg" width="890" height="1037" viewBox="0 0 890 1037"><rect width="890" height="1037" fill="#f2f2f0"/><defs><clipPath id="hx" clipPathUnits="userSpaceOnUse"><path d="M1.0000,0.0000L0.5000,0.8660L-0.5000,0.8660L-1.0000,0.0000L-0.5000,-0.8660L0.5000,-0.8660Z"/></clipPath></defs><g transform="translate(40.00,912.95)"><g transform="scale(36)"><path d="M1.0000,0.0000L0.5000,0.8660L-0.5000,0.8660L-1.0000,0.0000L-0.5000,-0.8660L0.5000,-0.8660Z" fill="#fff"/></g><g transform="rotate(0) scale(-36,36)"><path d="M-0.5,0.866L0.5,0.866C0.5,0.728 0.444,0.603 0.354,0.512C-0.0,0.159 -0.0,-0.159 0.354,-0.512C0.444,-0.603 0.5,-0.728 0.5,-0.866L-0.5,-0.866C-0.5,-0.728 -0.444,-0.603 -0.354,-0.512C-0.0,-0.159 -0.0,0.159 -0.354,0.512C-0.444,0.603 -0.5,0.728 -0.5,0.866Z" fill="#000" fill-rule="nonzero" clip-path="url(#hx)"/></g></g><g transform="translate(94.00,570.01)"><g transform="scale(36)"><path d="M1.0000,0.0000L0.5000,0.8660L-0.5000,0.8660L-1.0000,0.0000L-0.5000,-0.8660L0.5000,-0.8660Z" fill="#fff"/></g><g transform="rotate(180) scale(-36,36)"><path d="M0.832,-0.291L0.832,-0.291L0.667,-0.577L0.658,-0.57C0.276,-0.239 0.183,0.316 0.435,0.754L0.5,0.866L1.0,0.0L0.942,0.0C0.788,0.0 0.716,-0.19 0.832,-0.291Z" fill="#000" fill-rule="nonzero" clip-path="url(#hx)"/></g><g transform="rotate(180) scale(-36,36)"><path d="M0.5,-0.865L-0.5,-0.865C-0.5,-0.589 -0.276,-0.365 0.0,-0.365C0.276,-0.365 0.5,-0.589 0.5,-0.865Z" fill="#000" fill-rule="nonzero" clip-path="url(#hx)"/></g></g><g transform="translate(94.00,632.36)"><g transform="scale(36)"><path d="M1.0000,0.0000L0.5000,0.8660L-0.5000,0.8660L-1.0000,0.0000L-0.5000,-0.8660L0.5000,-0.8660Z" fill="#fff"/></g><g transform="rotate(120) scale(-36,36)"><path d="M0.832,-0.291L0.832,-0.291L0.667,-0.577L0.658,-0.57C0.276,-0.239 0.183,0.316 0.435,0.754L0.5,0.866L1.0,0.0L0.942,0.0C0.788,0.0 0.716,-0.19 0.832,-0.291Z" fill="#000" fill-rule="nonzero" clip-path="url(#hx)"/></g><g transform="rotate(180) scale(36,36)"><path d="M0.5,-0.865L-0.5,-0.865C-0.5,-0.589 -0.276,-0.365 0.0,-0.365C0.276,-0.365 0.5,-0.589 0.5,-0.865Z" fill="#000" fill-rule="nonzero" clip-path="url(#hx)"/></g></g><g transform="translate(94.00,694.72)"><g transform="scale(36)"><path d="M1.0000,0.0000L0.5000,0.8660L-0.5000,0.8660L-1.0000,0.0000L-0.5000,-0.8660L0.5000,-0.8660Z" fill="#fff"/></g><g transform="rotate(120) scale(-36,36)"><path d="M0.832,-0.291L0.832,-0.291L0.667,-0.577L0.658,-0.57C0.276,-0.239 0.183,0.316 0.435,0.754L0.5,0.866L1.0,0.0L0.942,0.0C0.788,0.0 0.716,-0.19 0.832,-0.291Z" fill="#000" fill-rule="nonzero" clip-path="url(#hx)"/></g></g><g transform="translate(148.00,538.83)"><g transform="scale(36)"><path d="M1.0000,0.0000L0.5000,0.8660L-0.5000,0.8660L-1.0000,0.0000L-0.5000,-0.8660L0.5000,-0.8660Z" fill="#fff"/></g><g transform="rotate(240) scale(-36,36)"><path d="M0.5,-0.865L-0.5,-0.865C-0.5,-0.589 -0.276,-0.365 0.0,-0.365C0.276,-0.365 0.5,-0.589 0.5,-0.865Z" fill="#000" fill-rule="nonzero" clip-path="url(#hx)"/></g></g><g transform="translate(148.00,601.18)"><g transform="scale(36)"><path d="M1.0000,0.0000L0.5000,0.8660L-0.5000,0.8660L-1.0000,0.0000L-0.5000,-0.8660L0.5000,-0.8660Z" fill="#fff"/></g><g transform="rotate(60) scale(36,36)"><path d="M0.750,0.433L0.703,0.409L0.655,0.390L0.604,0.377L0.552,0.369L0.500,0.366L0.448,0.369L0.396,0.377L0.345,0.390L0.297,0.409L0.250,0.433L0.206,0.462L0.165,0.494L0.128,0.531L0.095,0.572L0.067,0.616L0.043,0.663L0.024,0.712L0.011,0.762L0.003,0.814L0.000,0.866" fill="none" stroke="#000" stroke-width="0.34" stroke-linecap="round" stroke-linejoin="round" clip-path="url(#hx)"/></g><g transform="rotate(0) scale(36,36)"><path d="M0.000,0.866L-0.002,0.788L-0.008,0.709L-0.018,0.631L-0.033,0.554L-0.051,0.478L-0.073,0.402L-0.100,0.328L-0.130,0.256L-0.163,0.185L-0.201,0.116L-0.242,0.049L-0.286,-0.016L-0.334,-0.078L-0.385,-0.138L-0.439,-0.195L-0.496,-0.249L-0.556,-0.300L-0.618,-0.348L-0.683,-0.392L-0.750,-0.433" fill="none" stroke="#000" stroke-width="0.34" stroke-linecap="round" stroke-linejoin="round" clip-path="url(#hx)"/></g></g><g transform="translate(148.00,663.54)"><g transform="scale(36)"><path d="M1.0000,0.0000L0.5000,0.8660L-0.5000,0.8660L-1.0000,0.0000L-0.5000,-0.8660L0.5000,-0.8660Z" fill="#fff"/></g><g transform="rotate(300) scale(-36,36)"><path d="M0.000,0.866L-0.002,0.788L-0.008,0.709L-0.018,0.631L-0.033,0.554L-0.051,0.478L-0.073,0.402L-0.100,0.328L-0.130,0.256L-0.163,0.185L-0.201,0.116L-0.242,0.049L-0.286,-0.016L-0.334,-0.078L-0.385,-0.138L-0.439,-0.195L-0.496,-0.249L-0.556,-0.300L-0.618,-0.348L-0.683,-0.392L-0.750,-0.433" fill="none" stroke="#000" stroke-width="0.34" stroke-linecap="round" stroke-linejoin="round" clip-path="url(#hx)"/></g><g transform="rotate(60) scale(-36,36)"><path d="M0.000,0.866L-0.002,0.788L-0.008,0.709L-0.018,0.631L-0.033,0.554L-0.051,0.478L-0.073,0.402L-0.100,0.328L-0.130,0.256L-0.163,0.185L-0.201,0.116L-0.242,0.049L-0.286,-0.016L-0.334,-0.078L-0.385,-0.138L-0.439,-0.195L-0.496,-0.249L-0.556,-0.300L-0.618,-0.348L-0.683,-0.392L-0.750,-0.433" fill="none" stroke="#000" stroke-width="0.34" stroke-linecap="round" stroke-linejoin="round" clip-path="url(#hx)"/></g></g><g transform="translate(148.00,725.89)"><g transform="scale(36)"><path d="M1.0000,0.0000L0.5000,0.8660L-0.5000,0.8660L-1.0000,0.0000L-0.5000,-0.8660L0.5000,-0.8660Z" fill="#fff"/></g><g transform="rotate(120) scale(36,36)"><path d="M0.5,-0.866L-0.5,-0.866L0.5,0.866L1.0,-0.0L0.5,-0.866Z" fill="#000" fill-rule="nonzero" clip-path="url(#hx)"/></g></g><g transform="translate(148.00,788.25)"><g transform="scale(36)"><path d="M1.0000,0.0000L0.5000,0.8660L-0.5000,0.8660L-1.0000,0.0000L-0.5000,-0.8660L0.5000,-0.8660Z" fill="#fff"/></g><g transform="rotate(120) scale(-36,36)"><path d="M0.5,-0.866L-0.5,-0.866L0.5,0.866L1.0,-0.0L0.5,-0.866Z" fill="#000" fill-rule="nonzero" clip-path="url(#hx)"/></g></g><g transform="translate(202.00,570.01)"><g transform="scale(36)"><path d="M1.0000,0.0000L0.5000,0.8660L-0.5000,0.8660L-1.0000,0.0000L-0.5000,-0.8660L0.5000,-0.8660Z" fill="#fff"/></g><g transform="rotate(120) scale(36,36)"><path d="M0.5,-0.865L-0.5,-0.865C-0.5,-0.589 -0.276,-0.365 0.0,-0.365C0.276,-0.365 0.5,-0.589 0.5,-0.865Z" fill="#000" fill-rule="nonzero" clip-path="url(#hx)"/></g></g><g transform="translate(202.00,632.36)"><g transform="scale(36)"><path d="M1.0000,0.0000L0.5000,0.8660L-0.5000,0.8660L-1.0000,0.0000L-0.5000,-0.8660L0.5000,-0.8660Z" fill="#fff"/></g><g transform="rotate(0) scale(-36,36)"><path d="M0.000,0.866L-0.002,0.788L-0.008,0.709L-0.018,0.631L-0.033,0.554L-0.051,0.478L-0.073,0.402L-0.100,0.328L-0.130,0.256L-0.163,0.185L-0.201,0.116L-0.242,0.049L-0.286,-0.016L-0.334,-0.078L-0.385,-0.138L-0.439,-0.195L-0.496,-0.249L-0.556,-0.300L-0.618,-0.348L-0.683,-0.392L-0.750,-0.433" fill="none" stroke="#000" stroke-width="0.34" stroke-linecap="round" stroke-linejoin="round" clip-path="url(#hx)"/></g></g><g transform="translate(202.00,694.72)"><g transform="scale(36)"><path d="M1.0000,0.0000L0.5000,0.8660L-0.5000,0.8660L-1.0000,0.0000L-0.5000,-0.8660L0.5000,-0.8660Z" fill="#fff"/></g><g transform="rotate(120) scale(-36,36)"><path d="M0.000,0.866L-0.002,0.788L-0.008,0.709L-0.018,0.631L-0.033,0.554L-0.051,0.478L-0.073,0.402L-0.100,0.328L-0.130,0.256L-0.163,0.185L-0.201,0.116L-0.242,0.049L-0.286,-0.016L-0.334,-0.078L-0.385,-0.138L-0.439,-0.195L-0.496,-0.249L-0.556,-0.300L-0.618,-0.348L-0.683,-0.392L-0.750,-0.433" fill="none" stroke="#000" stroke-width="0.34" stroke-linecap="round" stroke-linejoin="round" clip-path="url(#hx)"/></g><g transform="rotate(180) scale(-36,36)"><path d="M0.000,0.866L-0.000,-0.866" fill="none" stroke="#000" stroke-width="0.34" stroke-linecap="round" stroke-linejoin="round" clip-path="url(#hx)"/></g><g transform="rotate(240) scale(36,36)"><path d="M0.000,0.866L-0.002,0.788L-0.008,0.709L-0.018,0.631L-0.033,0.554L-0.051,0.478L-0.073,0.402L-0.100,0.328L-0.130,0.256L-0.163,0.185L-0.201,0.116L-0.242,0.049L-0.286,-0.016L-0.334,-0.078L-0.385,-0.138L-0.439,-0.195L-0.496,-0.249L-0.556,-0.300L-0.618,-0.348L-0.683,-0.392L-0.750,-0.433" fill="none" stroke="#000" stroke-width="0.34" stroke-linecap="round" stroke-linejoin="round" clip-path="url(#hx)"/></g></g><g transform="translate(202.00,757.07)"><g transform="scale(36)"><path d="M1.0000,0.0000L0.5000,0.8660L-0.5000,0.8660L-1.0000,0.0000L-0.5000,-0.8660L0.5000,-0.8660Z" fill="#000"/></g><g transform="rotate(180) scale(-36,36)"><path d="M0.76,-0.415L0.5,-0.866L-0.5,-0.866L-0.766,-0.415L-1.011,-0.0L-1.011,0.0L-1.011,-0.0C-0.963,0.067 -0.885,0.111 -0.796,0.111C-0.65,0.111 -0.532,-0.007 -0.532,-0.153C-0.532,-0.007 -0.414,0.111 -0.268,0.111C-0.122,0.111 -0.004,-0.007 -0.004,-0.153C-0.004,-0.007 0.114,0.111 0.26,0.111C0.406,0.111 0.524,-0.007 0.524,-0.153C0.524,-0.007 0.642,0.111 0.788,0.111C0.875,0.111 0.953,0.069 1.001,0.003L1.0,0.0L0.76,-0.415Z" fill="#fff" fill-rule="nonzero" clip-path="url(#hx)"/></g></g><g transform="translate(202.00,819.42)"><g transform="scale(36)"><path d="M1.0000,0.0000L0.5000,0.8660L-0.5000,0.8660L-1.0000,0.0000L-0.5000,-0.8660L0.5000,-0.8660Z" fill="#fff"/></g><g transform="rotate(60) scale(-36,36)"><path d="M0.5,-0.866L-0.5,-0.866L0.5,0.866L1.0,-0.0L0.5,-0.866Z" fill="#000" fill-rule="nonzero" clip-path="url(#hx)"/></g></g><g transform="translate(256.00,538.83)"><g transform="scale(36)"><path d="M1.0000,0.0000L0.5000,0.8660L-0.5000,0.8660L-1.0000,0.0000L-0.5000,-0.8660L0.5000,-0.8660Z" fill="#fff"/></g><g transform="rotate(120) scale(-36,36)"><path d="M0.5,-0.865L-0.5,-0.865C-0.5,-0.589 -0.276,-0.365 0.0,-0.365C0.276,-0.365 0.5,-0.589 0.5,-0.865Z" fill="#000" fill-rule="nonzero" clip-path="url(#hx)"/></g></g><g transform="translate(256.00,601.18)"><g transform="scale(36)"><path d="M1.0000,0.0000L0.5000,0.8660L-0.5000,0.8660L-1.0000,0.0000L-0.5000,-0.8660L0.5000,-0.8660Z" fill="#fff"/></g><g transform="rotate(180) scale(36,36)"><path d="M0.832,-0.291L0.832,-0.291L0.667,-0.577L0.658,-0.57C0.276,-0.239 0.183,0.316 0.435,0.754L0.5,0.866L1.0,0.0L0.942,0.0C0.788,0.0 0.716,-0.19 0.832,-0.291Z" fill="#000" fill-rule="nonzero" clip-path="url(#hx)"/></g><g transform="rotate(240) scale(36,36)"><path d="M0.000,0.866L-0.002,0.788L-0.008,0.709L-0.018,0.631L-0.033,0.554L-0.051,0.478L-0.073,0.402L-0.100,0.328L-0.130,0.256L-0.163,0.185L-0.201,0.116L-0.242,0.049L-0.286,-0.016L-0.334,-0.078L-0.385,-0.138L-0.439,-0.195L-0.496,-0.249L-0.556,-0.300L-0.618,-0.348L-0.683,-0.392L-0.750,-0.433" fill="none" stroke="#000" stroke-width="0.34" stroke-linecap="round" stroke-linejoin="round" clip-path="url(#hx)"/></g></g><g transform="translate(256.00,663.54)"><g transform="scale(36)"><path d="M1.0000,0.0000L0.5000,0.8660L-0.5000,0.8660L-1.0000,0.0000L-0.5000,-0.8660L0.5000,-0.8660Z" fill="#fff"/></g><g transform="rotate(60) scale(36,36)"><path d="M0.000,0.866L-0.002,0.788L-0.008,0.709L-0.018,0.631L-0.033,0.554L-0.051,0.478L-0.073,0.402L-0.100,0.328L-0.130,0.256L-0.163,0.185L-0.201,0.116L-0.242,0.049L-0.286,-0.016L-0.334,-0.078L-0.385,-0.138L-0.439,-0.195L-0.496,-0.249L-0.556,-0.300L-0.618,-0.348L-0.683,-0.392L-0.750,-0.433" fill="none" stroke="#000" stroke-width="0.34" stroke-linecap="round" stroke-linejoin="round" clip-path="url(#hx)"/></g><g transform="rotate(60) scale(36,36)"><path d="M0.000,0.866L-0.000,-0.866" fill="none" stroke="#000" stroke-width="0.34" stroke-linecap="round" stroke-linejoin="round" clip-path="url(#hx)"/></g></g><g transform="translate(256.00,725.89)"><g transform="scale(36)"><path d="M1.0000,0.0000L0.5000,0.8660L-0.5000,0.8660L-1.0000,0.0000L-0.5000,-0.8660L0.5000,-0.8660Z" fill="#fff"/></g><g transform="rotate(120) scale(36,36)"><path d="M0.5,-0.866L-0.5,-0.866L0.5,0.866L1.0,-0.0L0.5,-0.866Z" fill="#000" fill-rule="nonzero" clip-path="url(#hx)"/></g></g><g transform="translate(256.00,788.25)"><g transform="scale(36)"><path d="M1.0000,0.0000L0.5000,0.8660L-0.5000,0.8660L-1.0000,0.0000L-0.5000,-0.8660L0.5000,-0.8660Z" fill="#fff"/></g><g transform="rotate(0) scale(-36,36)"><path d="M0.5,-0.866L-0.5,-0.866L0.5,0.866L1.0,-0.0L0.5,-0.866Z" fill="#000" fill-rule="nonzero" clip-path="url(#hx)"/></g></g><g transform="translate(310.00,507.65)"><g transform="scale(36)"><path d="M1.0000,0.0000L0.5000,0.8660L-0.5000,0.8660L-1.0000,0.0000L-0.5000,-0.8660L0.5000,-0.8660Z" fill="#fff"/></g><g transform="rotate(120) scale(36,36)"><path d="M0.5,-0.865L-0.5,-0.865C-0.5,-0.589 -0.276,-0.365 0.0,-0.365C0.276,-0.365 0.5,-0.589 0.5,-0.865Z" fill="#000" fill-rule="nonzero" clip-path="url(#hx)"/></g></g><g transform="translate(310.00,570.01)"><g transform="scale(36)"><path d="M1.0000,0.0000L0.5000,0.8660L-0.5000,0.8660L-1.0000,0.0000L-0.5000,-0.8660L0.5000,-0.8660Z" fill="#fff"/></g><g transform="rotate(180) scale(36,36)"><path d="M0.832,-0.291L0.832,-0.291L0.667,-0.577L0.658,-0.57C0.276,-0.239 0.183,0.316 0.435,0.754L0.5,0.866L1.0,0.0L0.942,0.0C0.788,0.0 0.716,-0.19 0.832,-0.291Z" fill="#000" fill-rule="nonzero" clip-path="url(#hx)"/></g><g transform="rotate(0) scale(-36,36)"><path d="M0.000,0.866L-0.002,0.788L-0.008,0.709L-0.018,0.631L-0.033,0.554L-0.051,0.478L-0.073,0.402L-0.100,0.328L-0.130,0.256L-0.163,0.185L-0.201,0.116L-0.242,0.049L-0.286,-0.016L-0.334,-0.078L-0.385,-0.138L-0.439,-0.195L-0.496,-0.249L-0.556,-0.300L-0.618,-0.348L-0.683,-0.392L-0.750,-0.433" fill="none" stroke="#000" stroke-width="0.34" stroke-linecap="round" stroke-linejoin="round" clip-path="url(#hx)"/></g><g transform="rotate(240) scale(36,36)"><path d="M-0.659,-0.57L-0.668,-0.577L-0.833,-0.291C-0.717,-0.19 -0.789,-0.0 -0.942,-0.0L-1.001,-0.0L-0.501,0.866L-0.436,0.754C-0.183,0.316 -0.277,-0.239 -0.659,-0.57Z" fill="#000" fill-rule="nonzero" clip-path="url(#hx)"/></g></g><g transform="translate(310.00,632.36)"><g transform="scale(36)"><path d="M1.0000,0.0000L0.5000,0.8660L-0.5000,0.8660L-1.0000,0.0000L-0.5000,-0.8660L0.5000,-0.8660Z" fill="#fff"/></g><g transform="rotate(300) scale(-36,36)"><path d="M0.832,-0.291L0.832,-0.291L0.667,-0.577L0.658,-0.57C0.276,-0.239 0.183,0.316 0.435,0.754L0.5,0.866L1.0,0.0L0.942,0.0C0.788,0.0 0.716,-0.19 0.832,-0.291Z" fill="#000" fill-rule="nonzero" clip-path="url(#hx)"/></g><g transform="rotate(180) scale(-36,36)"><path d="M0.000,0.866L-0.002,0.788L-0.008,0.709L-0.018,0.631L-0.033,0.554L-0.051,0.478L-0.073,0.402L-0.100,0.328L-0.130,0.256L-0.163,0.185L-0.201,0.116L-0.242,0.049L-0.286,-0.016L-0.334,-0.078L-0.385,-0.138L-0.439,-0.195L-0.496,-0.249L-0.556,-0.300L-0.618,-0.348L-0.683,-0.392L-0.750,-0.433" fill="none" stroke="#000" stroke-width="0.34" stroke-linecap="round" stroke-linejoin="round" clip-path="url(#hx)"/></g></g><g transform="translate(310.00,694.72)"><g transform="scale(36)"><path d="M1.0000,0.0000L0.5000,0.8660L-0.5000,0.8660L-1.0000,0.0000L-0.5000,-0.8660L0.5000,-0.8660Z" fill="#fff"/></g><g transform="rotate(0) scale(-36,36)"><path d="M0.5,-0.865L-0.5,-0.865C-0.5,-0.589 -0.276,-0.365 0.0,-0.365C0.276,-0.365 0.5,-0.589 0.5,-0.865Z" fill="#000" fill-rule="nonzero" clip-path="url(#hx)"/></g></g><g transform="translate(364.00,538.83)"><g transform="scale(36)"><path d="M1.0000,0.0000L0.5000,0.8660L-0.5000,0.8660L-1.0000,0.0000L-0.5000,-0.8660L0.5000,-0.8660Z" fill="#fff"/></g><g transform="rotate(180) scale(-36,36)"><path d="M-0.659,-0.57L-0.668,-0.577L-0.833,-0.291C-0.717,-0.19 -0.789,-0.0 -0.942,-0.0L-1.001,-0.0L-0.501,0.866L-0.436,0.754C-0.183,0.316 -0.277,-0.239 -0.659,-0.57Z" fill="#000" fill-rule="nonzero" clip-path="url(#hx)"/></g></g><g transform="translate(364.00,601.18)"><g transform="scale(36)"><path d="M1.0000,0.0000L0.5000,0.8660L-0.5000,0.8660L-1.0000,0.0000L-0.5000,-0.8660L0.5000,-0.8660Z" fill="#fff"/></g><g transform="rotate(300) scale(36,36)"><path d="M0.5,-0.865L-0.5,-0.865C-0.5,-0.589 -0.276,-0.365 0.0,-0.365C0.276,-0.365 0.5,-0.589 0.5,-0.865Z" fill="#000" fill-rule="nonzero" clip-path="url(#hx)"/></g></g><g transform="translate(580.00,663.54)"><g transform="scale(36)"><path d="M1.0000,0.0000L0.5000,0.8660L-0.5000,0.8660L-1.0000,0.0000L-0.5000,-0.8660L0.5000,-0.8660Z" fill="#000"/></g><g transform="rotate(120) scale(-36,36)"><path d="M-0.5,0.866L0.5,0.866C0.5,0.728 0.444,0.603 0.354,0.512C-0.0,0.159 -0.0,-0.159 0.354,-0.512C0.444,-0.603 0.5,-0.728 0.5,-0.866L-0.5,-0.866C-0.5,-0.728 -0.444,-0.603 -0.354,-0.512C-0.0,-0.159 -0.0,0.159 -0.354,0.512C-0.444,0.603 -0.5,0.728 -0.5,0.866Z" fill="#fff" fill-rule="nonzero" clip-path="url(#hx)"/></g></g><g transform="translate(580.00,725.89)"><g transform="scale(36)"><path d="M1.0000,0.0000L0.5000,0.8660L-0.5000,0.8660L-1.0000,0.0000L-0.5000,-0.8660L0.5000,-0.8660Z" fill="#fff"/></g><g transform="rotate(0) scale(-36,36)"><path d="M-0.5,0.866L0.5,0.866C0.5,0.728 0.444,0.603 0.354,0.512C-0.0,0.159 -0.0,-0.159 0.354,-0.512C0.444,-0.603 0.5,-0.728 0.5,-0.866L-0.5,-0.866C-0.5,-0.728 -0.444,-0.603 -0.354,-0.512C-0.0,-0.159 -0.0,0.159 -0.354,0.512C-0.444,0.603 -0.5,0.728 -0.5,0.866Z" fill="#000" fill-rule="nonzero" clip-path="url(#hx)"/></g></g><g transform="translate(580.00,788.25)"><g transform="scale(36)"><path d="M1.0000,0.0000L0.5000,0.8660L-0.5000,0.8660L-1.0000,0.0000L-0.5000,-0.8660L0.5000,-0.8660Z" fill="#fff"/></g><g transform="rotate(0) scale(-36,36)"><path d="M-0.5,0.866L0.5,0.866C0.5,0.728 0.444,0.603 0.354,0.512C-0.0,0.159 -0.0,-0.159 0.354,-0.512C0.444,-0.603 0.5,-0.728 0.5,-0.866L-0.5,-0.866C-0.5,-0.728 -0.444,-0.603 -0.354,-0.512C-0.0,-0.159 -0.0,0.159 -0.354,0.512C-0.444,0.603 -0.5,0.728 -0.5,0.866Z" fill="#000" fill-rule="nonzero" clip-path="url(#hx)"/></g></g><g transform="translate(580.00,850.60)"><g transform="scale(36)"><path d="M1.0000,0.0000L0.5000,0.8660L-0.5000,0.8660L-1.0000,0.0000L-0.5000,-0.8660L0.5000,-0.8660Z" fill="#000"/></g><g transform="rotate(240) scale(-36,36)"><path d="M-0.5,0.866L0.5,0.866C0.5,0.728 0.444,0.603 0.354,0.512C-0.0,0.159 -0.0,-0.159 0.354,-0.512C0.444,-0.603 0.5,-0.728 0.5,-0.866L-0.5,-0.866C-0.5,-0.728 -0.444,-0.603 -0.354,-0.512C-0.0,-0.159 -0.0,0.159 -0.354,0.512C-0.444,0.603 -0.5,0.728 -0.5,0.866Z" fill="#fff" fill-rule="nonzero" clip-path="url(#hx)"/></g></g><g transform="translate(634.00,632.36)"><g transform="scale(36)"><path d="M1.0000,0.0000L0.5000,0.8660L-0.5000,0.8660L-1.0000,0.0000L-0.5000,-0.8660L0.5000,-0.8660Z" fill="#000"/></g><g transform="rotate(240) scale(-36,36)"><path d="M-0.5,0.866L0.5,0.866C0.5,0.728 0.444,0.603 0.354,0.512C-0.0,0.159 -0.0,-0.159 0.354,-0.512C0.444,-0.603 0.5,-0.728 0.5,-0.866L-0.5,-0.866C-0.5,-0.728 -0.444,-0.603 -0.354,-0.512C-0.0,-0.159 -0.0,0.159 -0.354,0.512C-0.444,0.603 -0.5,0.728 -0.5,0.866Z" fill="#fff" fill-rule="nonzero" clip-path="url(#hx)"/></g></g><g transform="translate(634.00,694.72)"><g transform="scale(36)"><path d="M1.0000,0.0000L0.5000,0.8660L-0.5000,0.8660L-1.0000,0.0000L-0.5000,-0.8660L0.5000,-0.8660Z" fill="#000"/></g><g transform="rotate(180) scale(-36,36)"><path d="M-0.5,0.866L0.5,0.866C0.5,0.728 0.444,0.603 0.354,0.512C-0.0,0.159 -0.0,-0.159 0.354,-0.512C0.444,-0.603 0.5,-0.728 0.5,-0.866L-0.5,-0.866C-0.5,-0.728 -0.444,-0.603 -0.354,-0.512C-0.0,-0.159 -0.0,0.159 -0.354,0.512C-0.444,0.603 -0.5,0.728 -0.5,0.866Z" fill="#fff" fill-rule="nonzero" clip-path="url(#hx)"/></g></g><g transform="translate(634.00,757.07)"><g transform="scale(36)"><path d="M1.0000,0.0000L0.5000,0.8660L-0.5000,0.8660L-1.0000,0.0000L-0.5000,-0.8660L0.5000,-0.8660Z" fill="#000"/></g><g transform="rotate(180) scale(-36,36)"><path d="M-0.5,0.866L0.5,0.866C0.5,0.728 0.444,0.603 0.354,0.512C-0.0,0.159 -0.0,-0.159 0.354,-0.512C0.444,-0.603 0.5,-0.728 0.5,-0.866L-0.5,-0.866C-0.5,-0.728 -0.444,-0.603 -0.354,-0.512C-0.0,-0.159 -0.0,0.159 -0.354,0.512C-0.444,0.603 -0.5,0.728 -0.5,0.866Z" fill="#fff" fill-rule="nonzero" clip-path="url(#hx)"/></g></g><g transform="translate(634.00,819.42)"><g transform="scale(36)"><path d="M1.0000,0.0000L0.5000,0.8660L-0.5000,0.8660L-1.0000,0.0000L-0.5000,-0.8660L0.5000,-0.8660Z" fill="#000"/></g><g transform="rotate(180) scale(-36,36)"><path d="M-0.5,0.866L0.5,0.866C0.5,0.728 0.444,0.603 0.354,0.512C-0.0,0.159 -0.0,-0.159 0.354,-0.512C0.444,-0.603 0.5,-0.728 0.5,-0.866L-0.5,-0.866C-0.5,-0.728 -0.444,-0.603 -0.354,-0.512C-0.0,-0.159 -0.0,0.159 -0.354,0.512C-0.444,0.603 -0.5,0.728 -0.5,0.866Z" fill="#fff" fill-rule="nonzero" clip-path="url(#hx)"/></g></g><g transform="translate(634.00,881.78)"><g transform="scale(36)"><path d="M1.0000,0.0000L0.5000,0.8660L-0.5000,0.8660L-1.0000,0.0000L-0.5000,-0.8660L0.5000,-0.8660Z" fill="#000"/></g><g transform="rotate(120) scale(-36,36)"><path d="M-0.5,0.866L0.5,0.866C0.5,0.728 0.444,0.603 0.354,0.512C-0.0,0.159 -0.0,-0.159 0.354,-0.512C0.444,-0.603 0.5,-0.728 0.5,-0.866L-0.5,-0.866C-0.5,-0.728 -0.444,-0.603 -0.354,-0.512C-0.0,-0.159 -0.0,0.159 -0.354,0.512C-0.444,0.603 -0.5,0.728 -0.5,0.866Z" fill="#fff" fill-rule="nonzero" clip-path="url(#hx)"/></g></g><g transform="translate(688.00,601.18)"><g transform="scale(36)"><path d="M1.0000,0.0000L0.5000,0.8660L-0.5000,0.8660L-1.0000,0.0000L-0.5000,-0.8660L0.5000,-0.8660Z" fill="#fff"/></g><g transform="rotate(0) scale(-36,36)"><path d="M-0.5,0.866L0.5,0.866C0.5,0.728 0.444,0.603 0.354,0.512C-0.0,0.159 -0.0,-0.159 0.354,-0.512C0.444,-0.603 0.5,-0.728 0.5,-0.866L-0.5,-0.866C-0.5,-0.728 -0.444,-0.603 -0.354,-0.512C-0.0,-0.159 -0.0,0.159 -0.354,0.512C-0.444,0.603 -0.5,0.728 -0.5,0.866Z" fill="#000" fill-rule="nonzero" clip-path="url(#hx)"/></g></g><g transform="translate(688.00,663.54)"><g transform="scale(36)"><path d="M1.0000,0.0000L0.5000,0.8660L-0.5000,0.8660L-1.0000,0.0000L-0.5000,-0.8660L0.5000,-0.8660Z" fill="#000"/></g><g transform="rotate(180) scale(-36,36)"><path d="M-0.5,0.866L0.5,0.866C0.5,0.728 0.444,0.603 0.354,0.512C-0.0,0.159 -0.0,-0.159 0.354,-0.512C0.444,-0.603 0.5,-0.728 0.5,-0.866L-0.5,-0.866C-0.5,-0.728 -0.444,-0.603 -0.354,-0.512C-0.0,-0.159 -0.0,0.159 -0.354,0.512C-0.444,0.603 -0.5,0.728 -0.5,0.866Z" fill="#fff" fill-rule="nonzero" clip-path="url(#hx)"/></g></g><g transform="translate(688.00,725.89)"><g transform="scale(36)"><path d="M1.0000,0.0000L0.5000,0.8660L-0.5000,0.8660L-1.0000,0.0000L-0.5000,-0.8660L0.5000,-0.8660Z" fill="#fff"/></g><g transform="rotate(0) scale(-36,36)"><path d="M-0.5,0.866L0.5,0.866C0.5,0.728 0.444,0.603 0.354,0.512C-0.0,0.159 -0.0,-0.159 0.354,-0.512C0.444,-0.603 0.5,-0.728 0.5,-0.866L-0.5,-0.866C-0.5,-0.728 -0.444,-0.603 -0.354,-0.512C-0.0,-0.159 -0.0,0.159 -0.354,0.512C-0.444,0.603 -0.5,0.728 -0.5,0.866Z" fill="#000" fill-rule="nonzero" clip-path="url(#hx)"/></g></g><g transform="translate(688.00,788.25)"><g transform="scale(36)"><path d="M1.0000,0.0000L0.5000,0.8660L-0.5000,0.8660L-1.0000,0.0000L-0.5000,-0.8660L0.5000,-0.8660Z" fill="#fff"/></g><g transform="rotate(0) scale(-36,36)"><path d="M-0.5,0.866L0.5,0.866C0.5,0.728 0.444,0.603 0.354,0.512C-0.0,0.159 -0.0,-0.159 0.354,-0.512C0.444,-0.603 0.5,-0.728 0.5,-0.866L-0.5,-0.866C-0.5,-0.728 -0.444,-0.603 -0.354,-0.512C-0.0,-0.159 -0.0,0.159 -0.354,0.512C-0.444,0.603 -0.5,0.728 -0.5,0.866Z" fill="#000" fill-rule="nonzero" clip-path="url(#hx)"/></g></g><g transform="translate(688.00,850.60)"><g transform="scale(36)"><path d="M1.0000,0.0000L0.5000,0.8660L-0.5000,0.8660L-1.0000,0.0000L-0.5000,-0.8660L0.5000,-0.8660Z" fill="#000"/></g><g transform="rotate(180) scale(-36,36)"><path d="M-0.5,0.866L0.5,0.866C0.5,0.728 0.444,0.603 0.354,0.512C-0.0,0.159 -0.0,-0.159 0.354,-0.512C0.444,-0.603 0.5,-0.728 0.5,-0.866L-0.5,-0.866C-0.5,-0.728 -0.444,-0.603 -0.354,-0.512C-0.0,-0.159 -0.0,0.159 -0.354,0.512C-0.444,0.603 -0.5,0.728 -0.5,0.866Z" fill="#fff" fill-rule="nonzero" clip-path="url(#hx)"/></g></g><g transform="translate(688.00,912.95)"><g transform="scale(36)"><path d="M1.0000,0.0000L0.5000,0.8660L-0.5000,0.8660L-1.0000,0.0000L-0.5000,-0.8660L0.5000,-0.8660Z" fill="#fff"/></g><g transform="rotate(0) scale(-36,36)"><path d="M-0.5,0.866L0.5,0.866C0.5,0.728 0.444,0.603 0.354,0.512C-0.0,0.159 -0.0,-0.159 0.354,-0.512C0.444,-0.603 0.5,-0.728 0.5,-0.866L-0.5,-0.866C-0.5,-0.728 -0.444,-0.603 -0.354,-0.512C-0.0,-0.159 -0.0,0.159 -0.354,0.512C-0.444,0.603 -0.5,0.728 -0.5,0.866Z" fill="#000" fill-rule="nonzero" clip-path="url(#hx)"/></g></g><g transform="translate(742.00,632.36)"><g transform="scale(36)"><path d="M1.0000,0.0000L0.5000,0.8660L-0.5000,0.8660L-1.0000,0.0000L-0.5000,-0.8660L0.5000,-0.8660Z" fill="#000"/></g><g transform="rotate(300) scale(-36,36)"><path d="M-0.5,0.866L0.5,0.866C0.5,0.728 0.444,0.603 0.354,0.512C-0.0,0.159 -0.0,-0.159 0.354,-0.512C0.444,-0.603 0.5,-0.728 0.5,-0.866L-0.5,-0.866C-0.5,-0.728 -0.444,-0.603 -0.354,-0.512C-0.0,-0.159 -0.0,0.159 -0.354,0.512C-0.444,0.603 -0.5,0.728 -0.5,0.866Z" fill="#fff" fill-rule="nonzero" clip-path="url(#hx)"/></g></g><g transform="translate(742.00,694.72)"><g transform="scale(36)"><path d="M1.0000,0.0000L0.5000,0.8660L-0.5000,0.8660L-1.0000,0.0000L-0.5000,-0.8660L0.5000,-0.8660Z" fill="#000"/></g><g transform="rotate(180) scale(-36,36)"><path d="M-0.5,0.866L0.5,0.866C0.5,0.728 0.444,0.603 0.354,0.512C-0.0,0.159 -0.0,-0.159 0.354,-0.512C0.444,-0.603 0.5,-0.728 0.5,-0.866L-0.5,-0.866C-0.5,-0.728 -0.444,-0.603 -0.354,-0.512C-0.0,-0.159 -0.0,0.159 -0.354,0.512C-0.444,0.603 -0.5,0.728 -0.5,0.866Z" fill="#fff" fill-rule="nonzero" clip-path="url(#hx)"/></g></g><g transform="translate(742.00,757.07)"><g transform="scale(36)"><path d="M1.0000,0.0000L0.5000,0.8660L-0.5000,0.8660L-1.0000,0.0000L-0.5000,-0.8660L0.5000,-0.8660Z" fill="#000"/></g><g transform="rotate(180) scale(-36,36)"><path d="M-0.5,0.866L0.5,0.866C0.5,0.728 0.444,0.603 0.354,0.512C-0.0,0.159 -0.0,-0.159 0.354,-0.512C0.444,-0.603 0.5,-0.728 0.5,-0.866L-0.5,-0.866C-0.5,-0.728 -0.444,-0.603 -0.354,-0.512C-0.0,-0.159 -0.0,0.159 -0.354,0.512C-0.444,0.603 -0.5,0.728 -0.5,0.866Z" fill="#fff" fill-rule="nonzero" clip-path="url(#hx)"/></g></g><g transform="translate(742.00,819.42)"><g transform="scale(36)"><path d="M1.0000,0.0000L0.5000,0.8660L-0.5000,0.8660L-1.0000,0.0000L-0.5000,-0.8660L0.5000,-0.8660Z" fill="#000"/></g><g transform="rotate(180) scale(-36,36)"><path d="M-0.5,0.866L0.5,0.866C0.5,0.728 0.444,0.603 0.354,0.512C-0.0,0.159 -0.0,-0.159 0.354,-0.512C0.444,-0.603 0.5,-0.728 0.5,-0.866L-0.5,-0.866C-0.5,-0.728 -0.444,-0.603 -0.354,-0.512C-0.0,-0.159 -0.0,0.159 -0.354,0.512C-0.444,0.603 -0.5,0.728 -0.5,0.866Z" fill="#fff" fill-rule="nonzero" clip-path="url(#hx)"/></g></g><g transform="translate(742.00,881.78)"><g transform="scale(36)"><path d="M1.0000,0.0000L0.5000,0.8660L-0.5000,0.8660L-1.0000,0.0000L-0.5000,-0.8660L0.5000,-0.8660Z" fill="#000"/></g><g transform="rotate(60) scale(-36,36)"><path d="M-0.5,0.866L0.5,0.866C0.5,0.728 0.444,0.603 0.354,0.512C-0.0,0.159 -0.0,-0.159 0.354,-0.512C0.444,-0.603 0.5,-0.728 0.5,-0.866L-0.5,-0.866C-0.5,-0.728 -0.444,-0.603 -0.354,-0.512C-0.0,-0.159 -0.0,0.159 -0.354,0.512C-0.444,0.603 -0.5,0.728 -0.5,0.866Z" fill="#fff" fill-rule="nonzero" clip-path="url(#hx)"/></g></g><g transform="translate(796.00,663.54)"><g transform="scale(36)"><path d="M1.0000,0.0000L0.5000,0.8660L-0.5000,0.8660L-1.0000,0.0000L-0.5000,-0.8660L0.5000,-0.8660Z" fill="#000"/></g><g transform="rotate(240) scale(-36,36)"><path d="M-0.5,0.866L0.5,0.866C0.5,0.728 0.444,0.603 0.354,0.512C-0.0,0.159 -0.0,-0.159 0.354,-0.512C0.444,-0.603 0.5,-0.728 0.5,-0.866L-0.5,-0.866C-0.5,-0.728 -0.444,-0.603 -0.354,-0.512C-0.0,-0.159 -0.0,0.159 -0.354,0.512C-0.444,0.603 -0.5,0.728 -0.5,0.866Z" fill="#fff" fill-rule="nonzero" clip-path="url(#hx)"/></g></g><g transform="translate(796.00,725.89)"><g transform="scale(36)"><path d="M1.0000,0.0000L0.5000,0.8660L-0.5000,0.8660L-1.0000,0.0000L-0.5000,-0.8660L0.5000,-0.8660Z" fill="#fff"/></g><g transform="rotate(0) scale(-36,36)"><path d="M-0.5,0.866L0.5,0.866C0.5,0.728 0.444,0.603 0.354,0.512C-0.0,0.159 -0.0,-0.159 0.354,-0.512C0.444,-0.603 0.5,-0.728 0.5,-0.866L-0.5,-0.866C-0.5,-0.728 -0.444,-0.603 -0.354,-0.512C-0.0,-0.159 -0.0,0.159 -0.354,0.512C-0.444,0.603 -0.5,0.728 -0.5,0.866Z" fill="#000" fill-rule="nonzero" clip-path="url(#hx)"/></g></g><g transform="translate(796.00,788.25)"><g transform="scale(36)"><path d="M1.0000,0.0000L0.5000,0.8660L-0.5000,0.8660L-1.0000,0.0000L-0.5000,-0.8660L0.5000,-0.8660Z" fill="#fff"/></g><g transform="rotate(0) scale(-36,36)"><path d="M-0.5,0.866L0.5,0.866C0.5,0.728 0.444,0.603 0.354,0.512C-0.0,0.159 -0.0,-0.159 0.354,-0.512C0.444,-0.603 0.5,-0.728 0.5,-0.866L-0.5,-0.866C-0.5,-0.728 -0.444,-0.603 -0.354,-0.512C-0.0,-0.159 -0.0,0.159 -0.354,0.512C-0.444,0.603 -0.5,0.728 -0.5,0.866Z" fill="#000" fill-rule="nonzero" clip-path="url(#hx)"/></g></g><g transform="translate(796.00,850.60)"><g transform="scale(36)"><path d="M1.0000,0.0000L0.5000,0.8660L-0.5000,0.8660L-1.0000,0.0000L-0.5000,-0.8660L0.5000,-0.8660Z" fill="#000"/></g><g transform="rotate(120) scale(-36,36)"><path d="M-0.5,0.866L0.5,0.866C0.5,0.728 0.444,0.603 0.354,0.512C-0.0,0.159 -0.0,-0.159 0.354,-0.512C0.444,-0.603 0.5,-0.728 0.5,-0.866L-0.5,-0.866C-0.5,-0.728 -0.444,-0.603 -0.354,-0.512C-0.0,-0.159 -0.0,0.159 -0.354,0.512C-0.444,0.603 -0.5,0.728 -0.5,0.866Z" fill="#fff" fill-rule="nonzero" clip-path="url(#hx)"/></g></g></svg>