<svg xmlns="http://www.w3.org/2000/svg" width="2186" height="2035" viewBox="0 0 2186 2035"><rect width="2186" height="2035" fill="#0d0d0f"/><defs><clipPath id="hx" clipPathUnits="userSpaceOnUse"><path d="M1.0000,0.0000L0.5000,0.8660L-0.5000,0.8660L-1.0000,0.0000L-0.5000,-0.8660L0.5000,-0.8660Z"/></clipPath></defs><g transform="translate(40.00,912.95)"><g transform="scale(36)"><path d="M1.0000,0.0000L0.5000,0.8660L-0.5000,0.8660L-1.0000,0.0000L-0.5000,-0.8660L0.5000,-0.8660Z" fill="#000"/></g><g transform="rotate(0) scale(36,36)"><path d="M0.5,0.866L1.0,0.0L0.5,-0.866L-0.5,-0.866L-1.0,0.0L-0.5,0.866L0.5,0.866Z" fill="#fff" fill-rule="nonzero" clip-path="url(#hx)"/></g></g><g transform="translate(94.00,71.18)"><g transform="scale(36)"><path d="M1.0000,0.0000L0.5000,0.8660L-0.5000,0.8660L-1.0000,0.0000L-0.5000,-0.8660L0.5000,-0.8660Z" fill="#000"/></g><g transform="rotate(0) scale(36,36)"><path d="M0.5,0.866L1.0,0.0L0.5,-0.866L-0.5,-0.866L-1.0,0.0L-0.5,0.866L0.5,0.866Z" fill="#fff" fill-rule="nonzero" clip-path="url(#hx)"/></g></g><g transform="translate(94.00,632.36)"><g transform="scale(36)"><path d="M1.0000,0.0000L0.5000,0.8660L-0.5000,0.8660L-1.0000,0.0000L-0.5000,-0.8660L0.5000,-0.8660Z" fill="#000"/></g><g transform="rotate(0) scale(36,36)"><path d="M0.5,0.866L1.0,0.0L0.5,-0.866L-0.5,-0.866L-1.0,0.0L-0.5,0.866L0.5,0.866Z" fill="#fff" fill-rule="nonzero" clip-path="url(#hx)"/></g></g><g transform="translate(94.00,694.72)"><g transform="scale(36)"><path d="M1.0000,0.0000L0.5000,0.8660L-0.5000,0.8660L-1.0000,0.0000L-0.5000,-0.8660L0.5000,-0.8660Z" fill="#000"/></g><g transform="rotate(0) scale(36,36)"><path d="M0.5,0.866L1.0,0.0L0.5,-0.866L-0.5,-0.866L-1.0,0.0L-0.5,0.866L0.5,0.866Z" fill="#fff" fill-rule="nonzero" clip-path="url(#hx)"/></g></g><g transform="translate(94.00,757.07)"><g transform="scale(36)"><path d="M1.0000,0.0000L0.5000,0.8660L-0.5000,0.8660L-1.0000,0.0000L-0.5000,-0.8660L0.5000,-0.8660Z" fill="#000"/></g><g transform="rotate(0) scale(36,36)"><path d="M0.5,0.866L1.0,0.0L0.5,-0.866L-0.5,-0.866L-1.0,0.0L-0.5,0.866L0.5,0.866Z" fill="#fff" fill-rule="nonzero" clip-path="url(#hx)"/></g></g><g transform="translate(94.00,819.42)"><g transform="scale(36)"><path d="M1.0000,0.0000L0.5000,0.8660L-0.5000,0.8660L-1.0000,0.0000L-0.5000,-0.8660L0.5000,-0.8660Z" fill="#000"/></g><g transform="rotate(0) scale(36,36)"><path d="M0.5,0.866L1.0,0.0L0.5,-0.866L-0.5,-0.866L-1.0,0.0L-0.5,0.866L0.5,0.866Z" fill="#fff" fill-rule="nonzero" clip-path="url(#hx)"/></g></g><g transform="translate(94.00,881.78)"><g transform="scale(36)"><path d="M1.0000,0.0000L0.5000,0.8660L-0.5000,0.8660L-1.0000,0.0000L-0.5000,-0.8660L0.5000,-0.8660Z" fill="#000"/></g><g transform="rotate(0) scale(36,36)"><path d="M0.5,0.866L1.0,0.0L0.5,-0.866L-0.5,-0.866L-1.0,0.0L-0.5,0.866L0.5,0.866Z" fill="#fff" fill-rule="nonzero" clip-path="url(#hx)"/></g></g><g transform="translate(148.00,40.00)"><g transform="scale(36)"><path d="M1.0000,0.0000L0.5000,0.8660L-0.5000,0.8660L-1.0000,0.0000L-0.5000,-0.8660L0.5000,-0.8660Z" fill="#000"/></g><g transform="rotate(0) scale(36,36)"><path d="M0.5,0.866L1.0,0.0L0.5,-0.866L-0.5,-0.866L-1.0,0.0L-0.5,0.866L0.5,0.866Z" fill="#fff" fill-rule="nonzero" clip-path="url(#hx)"/></g></g><g transform="translate(148.00,102.35)"><g transform="scale(36)"><path d="M1.0000,0.0000L0.5000,0.8660L-0.5000,0.8660L-1.0000,0.0000L-0.5000,-0.8660L0.5000,-0.8660Z" fill="#000"/></g><g transform="rotate(0) scale(36,36)"><path d="M0.5,0.866L1.0,0.0L0.5,-0.866L-0.5,-0.866L-1.0,0.0L-0.5,0.866L0.5,0.866Z" fill="#fff" fill-rule="nonzero" clip-path="url(#hx)"/></g></g><g transform="translate(148.00,164.71)"><g transform="scale(36)"><path d="M1.0000,0.0000L0.5000,0.8660L-0.5000,0.8660L-1.0000,0.0000L-0.5000,-0.8660L0.5000,-0.8660Z" fill="#000"/></g><g transform="rotate(0) scale(36,36)"><path d="M0.5,0.866L1.0,0.0L0.5,-0.866L-0.5,-0.866L-1.0,0.0L-0.5,0.866L0.5,0.866Z" fill="#fff" fill-rule="nonzero" clip-path="url(#hx)"/></g></g><g transform="translate(148.00,227.06)"><g transform="scale(36)"><path d="M1.0000,0.0000L0.5000,0.8660L-0.5000,0.8660L-1.0000,0.0000L-0.5000,-0.8660L0.5000,-0.8660Z" fill="#000"/></g><g transform="rotate(0) scale(36,36)"><path d="M0.5,0.866L1.0,0.0L0.5,-0.866L-0.5,-0.866L-1.0,0.0L-0.5,0.866L0.5,0.866Z" fill="#fff" fill-rule="nonzero" clip-path="url(#hx)"/></g></g><g transform="translate(148.00,538.83)"><g transform="scale(36)"><path d="M1.0000,0.0000L0.5000,0.8660L-0.5000,0.8660L-1.0000,0.0000L-0.5000,-0.8660L0.5000,-0.8660Z" fill="#000"/></g><g transform="rotate(0) scale(36,36)"><path d="M0.5,0.866L1.0,0.0L0.5,-0.866L-0.5,-0.866L-1.0,0.0L-0.5,0.866L0.5,0.866Z" fill="#fff" fill-rule="nonzero" clip-path="url(#hx)"/></g></g><g transform="translate(148.00,663.54)"><g transform="scale(36)"><path d="M1.0000,0.0000L0.5000,0.8660L-0.5000,0.8660L-1.0000,0.0000L-0.5000,-0.8660L0.5000,-0.8660Z" fill="#000"/></g><g transform="rotate(0) scale(36,36)"><path d="M0.5,0.866L1.0,0.0L0.5,-0.866L-0.5,-0.866L-1.0,0.0L-0.5,0.866L0.5,0.866Z" fill="#fff" fill-rule="nonzero" clip-path="url(#hx)"/></g></g><g transform="translate(148.00,725.89)"><g transform="scale(36)"><path d="M1.0000,0.0000L0.5000,0.8660L-0.5000,0.8660L-1.0000,0.0000L-0.5000,-0.8660L0.5000,-0.8660Z" fill="#000"/></g><g transform="rotate(0) scale(36,36)"><path d="M0.5,0.866L1.0,0.0L0.5,-0.866L-0.5,-0.866L-1.0,0.0L-0.5,0.866L0.5,0.866Z" fill="#fff" fill-rule="nonzero" clip-path="url(#hx)"/></g></g><g transform="translate(148.00,788.25)"><g transform="scale(36)"><path d="M1.0000,0.0000L0.5000,0.8660L-0.5000,0.8660L-1.0000,0.0000L-0.5000,-0.8660L0.5000,-0.8660Z" fill="#000"/></g><g transform="rotate(0) scale(36,36)"><path d="M0.5,0.866L1.0,0.0L0.5,-0.866L-0.5,-0.866L-1.0,0.0L-0.5,0.866L0.5,0.866Z" fill="#fff" fill-rule="nonzero" clip-path="url(#hx)"/></g></g><g transform="translate(148.00,850.60)"><g transform="scale(36)"><path d="M1.0000,0.0000L0.5000,0.8660L-0.5000,0.8660L-1.0000,0.0000L-0.5000,-0.8660L0.5000,-0.8660Z" fill="#000"/></g><g transform="rotate(0) scale(36,36)"><path d="M0.5,0.866L1.0,0.0L0.5,-0.866L-0.5,-0.866L-1.0,0.0L-0.5,0.866L0.5,0.866Z" fill="#fff" fill-rule="nonzero" clip-path="url(#hx)"/></g></g><g transform="translate(148.00,912.95)"><g transform="scale(36)"><path d="M1.0000,0.0000L0.5000,0.8660L-0.5000,0.8660L-1.0000,0.0000L-0.5000,-0.8660L0.5000,-0.8660Z" fill="#000"/></g><g transform="rotate(0) scale(36,36)"><path d="M0.5,0.866L1.0,0.0L0.5,-0.866L-0.5,-0.866L-1.0,0.0L-0.5,0.866L0.5,0.866Z" fill="#fff" fill-rule="nonzero" clip-path="url(#hx)"/></g></g><g transform="translate(202.00,71.18)"><g transform="scale(36)"><path d="M1.0000,0.0000L0.5000,0.8660L-0.5000,0.8660L-1.0000,0.0000L-0.5000,-0.8660L0.5000,-0.8660Z" fill="#000"/></g><g transform="rotate(0) scale(36,36)"><path d="M0.5,0.866L1.0,0.0L0.5,-0.866L-0.5,-0.866L-1.0,0.0L-0.5,0.866L0.5,0.866Z" fill="#fff" fill-rule="nonzero" clip-path="url(#hx)"/></g></g><g transform="translate(202.00,133.53)"><g transform="scale(36)"><path d="M1.0000,0.0000L0.5000,0.8660L-0.5000,0.8660L-1.0000,0.0000L-0.5000,-0.8660L0.5000,-0.8660Z" fill="#000"/></g><g transform="rotate(0) scale(36,36)"><path d="M0.5,0.866L1.0,0.0L0.5,-0.866L-0.5,-0.866L-1.0,0.0L-0.5,0.866L0.5,0.866Z" fill="#fff" fill-rule="nonzero" clip-path="url(#hx)"/></g></g><g transform="translate(202.00,195.88)"><g transform="scale(36)"><path d="M1.0000,0.0000L0.5000,0.8660L-0.5000,0.8660L-1.0000,0.0000L-0.5000,-0.8660L0.5000,-0.8660Z" fill="#000"/></g><g transform="rotate(0) scale(36,36)"><path d="M0.5,0.866L1.0,0.0L0.5,-0.866L-0.5,-0.866L-1.0,0.0L-0.5,0.866L0.5,0.866Z" fill="#fff" fill-rule="nonzero" clip-path="url(#hx)"/></g></g><g transform="translate(202.00,258.24)"><g transform="scale(36)"><path d="M1.0000,0.0000L0.5000,0.8660L-0.5000,0.8660L-1.0000,0.0000L-0.5000,-0.8660L0.5000,-0.8660Z" fill="#000"/></g><g transform="rotate(0) scale(36,36)"><path d="M0.5,0.866L1.0,0.0L0.5,-0.866L-0.5,-0.866L-1.0,0.0L-0.5,0.866L0.5,0.866Z" fill="#fff" fill-rule="nonzero" clip-path="url(#hx)"/></g></g><g transform="translate(202.00,320.59)"><g transform="scale(36)"><path d="M1.0000,0.0000L0.5000,0.8660L-0.5000,0.8660L-1.0000,0.0000L-0.5000,-0.8660L0.5000,-0.8660Z" fill="#000"/></g><g transform="rotate(0) scale(36,36)"><path d="M0.5,0.866L1.0,0.0L0.5,-0.866L-0.5,-0.866L-1.0,0.0L-0.5,0.866L0.5,0.866Z" fill="#fff" fill-rule="nonzero" clip-path="url(#hx)"/></g></g><g transform="translate(202.00,445.30)"><g transform="scale(36)"><path d="M1.0000,0.0000L0.5000,0.8660L-0.5000,0.8660L-1.0000,0.0000L-0.5000,-0.8660L0.5000,-0.8660Z" fill="#000"/></g><g transform="rotate(0) scale(36,36)"><path d="M0.5,0.866L1.0,0.0L0.5,-0.866L-0.5,-0.866L-1.0,0.0L-0.5,0.866L0.5,0.866Z" fill="#fff" fill-rule="nonzero" clip-path="url(#hx)"/></g></g><g transform="translate(202.00,507.65)"><g transform="scale(36)"><path d="M1.0000,0.0000L0.5000,0.8660L-0.5000,0.8660L-1.0000,0.0000L-0.5000,-0.8660L0.5000,-0.8660Z" fill="#000"/></g><g transform="rotate(0) scale(36,36)"><path d="M0.5,0.866L1.0,0.0L0.5,-0.866L-0.5,-0.866L-1.0,0.0L-0.5,0.866L0.5,0.866Z" fill="#fff" fill-rule="nonzero" clip-path="url(#hx)"/></g></g><g transform="translate(202.00,570.01)"><g transform="scale(36)"><path d="M1.0000,0.0000L0.5000,0.8660L-0.5000,0.8660L-1.0000,0.0000L-0.5000,-0.8660L0.5000,-0.8660Z" fill="#000"/></g><g transform="rotate(0) scale(36,36)"><path d="M0.5,0.866L1.0,0.0L0.5,-0.866L-0.5,-0.866L-1.0,0.0L-0.5,0.866L0.5,0.866Z" fill="#fff" fill-rule="nonzero" clip-path="url(#hx)"/></g></g><g transform="translate(202.00,632.36)"><g transform="scale(36)"><path d="M1.0000,0.0000L0.5000,0.8660L-0.5000,0.8660L-1.0000,0.0000L-0.5000,-0.8660L0.5000,-0.8660Z" fill="#000"/></g><g transform="rotate(0) scale(36,36)"><path d="M0.5,0.866L1.0,0.0L0.5,-0.866L-0.5,-0.866L-1.0,0.0L-0.5,0.866L0.5,0.866Z" fill="#fff" fill-rule="nonzero" clip-path="url(#hx)"/></g></g><g transform="translate(202.00,694.72)"><g transform="scale(36)"><path d="M1.0000,0.0000L0.5000,0.8660L-0.5000,0.8660L-1.0000,0.0000L-0.5000,-0.8660L0.5000,-0.8660Z" fill="#fff"/></g><g transform="rotate(0) scale(36,36)"><path d="M0.750,0.433C0.274,0.158 -0.274,0.158 -0.750,0.433" fill="none" stroke="#000" stroke-width="0.34" stroke-linecap="round" stroke-linejoin="round" clip-path="url(#hx)"/></g></g><g transform="translate(202.00,757.07)"><g transform="scale(36)"><path d="M1.0000,0.0000L0.5000,0.8660L-0.5000,0.8660L-1.0000,0.0000L-0.5000,-0.8660L0.5000,-0.8660Z" fill="#fff"/></g><g transform="rotate(0) scale(36,36)"><path d="M0.750,0.433C0.274,0.158 -0.274,0.158 -0.750,0.433" fill="none" stroke="#000" stroke-width="0.34" stroke-linecap="round" stroke-linejoin="round" clip-path="url(#hx)"/></g></g><g transform="translate(202.00,819.42)"><g transform="scale(36)"><path d="M1.0000,0.0000L0.5000,0.8660L-0.5000,0.8660L-1.0000,0.0000L-0.5000,-0.8660L0.5000,-0.8660Z" fill="#000"/></g><g transform="rotate(0) scale(36,36)"><path d="M0.5,0.866L1.0,0.0L0.5,-0.866L-0.5,-0.866L-1.0,0.0L-0.5,0.866L0.5,0.866Z" fill="#fff" fill-rule="nonzero" clip-path="url(#hx)"/></g></g><g transform="translate(202.00,881.78)"><g transform="scale(36)"><path d="M1.0000,0.0000L0.5000,0.8660L-0.5000,0.8660L-1.0000,0.0000L-0.5000,-0.8660L0.5000,-0.8660Z" fill="#000"/></g><g transform="rotate(0) scale(36,36)"><path d="M0.5,0.866L1.0,0.0L0.5,-0.866L-0.5,-0.866L-1.0,0.0L-0.5,0.866L0.5,0.866Z" fill="#fff" fill-rule="nonzero" clip-path="url(#hx)"/></g></g><g transform="translate(202.00,944.13)"><g transform="scale(36)"><path d="M1.0000,0.0000L0.5000,0.8660L-0.5000,0.8660L-1.0000,0.0000L-0.5000,-0.8660L0.5000,-0.8660Z" fill="#000"/></g><g transform="rotate(0) scale(36,36)"><path d="M0.5,0.866L1.0,0.0L0.5,-0.866L-0.5,-0.866L-1.0,0.0L-0.5,0.866L0.5,0.866Z" fill="#fff" fill-rule="nonzero" clip-path="url(#hx)"/></g></g><g transform="translate(256.00,40.00)"><g transform="scale(36)"><path d="M1.0000,0.0000L0.5000,0.8660L-0.5000,0.8660L-1.0000,0.0000L-0.5000,-0.8660L0.5000,-0.8660Z" fill="#000"/></g><g transform="rotate(0) scale(36,36)"><path d="M0.5,0.866L1.0,0.0L0.5,-0.866L-0.5,-0.866L-1.0,0.0L-0.5,0.866L0.5,0.866Z" fill="#fff" fill-rule="nonzero" clip-path="url(#hx)"/></g></g><g transform="translate(256.00,102.35)"><g transform="scale(36)"><path d="M1.0000,0.0000L0.5000,0.8660L-0.5000,0.8660L-1.0000,0.0000L-0.5000,-0.8660L0.5000,-0.8660Z" fill="#000"/></g><g transform="rotate(0) scale(36,36)"><path d="M0.5,0.866L1.0,0.0L0.5,-0.866L-0.5,-0.866L-1.0,0.0L-0.5,0.866L0.5,0.866Z" fill="#fff" fill-rule="nonzero" clip-path="url(#hx)"/></g></g><g transform="translate(256.00,164.71)"><g transform="scale(36)"><path d="M1.0000,0.0000L0.5000,0.8660L-0.5000,0.8660L-1.0000,0.0000L-0.5000,-0.8660L0.5000,-0.8660Z" fill="#000"/></g><g transform="rotate(0) scale(36,36)"><path d="M0.5,0.866L1.0,0.0L0.5,-0.866L-0.5,-0.866L-1.0,0.0L-0.5,0.866L0.5,0.866Z" fill="#fff" fill-rule="nonzero" clip-path="url(#hx)"/></g></g><g transform="translate(256.00,227.06)"><g transform="scale(36)"><path d="M1.0000,0.0000L0.5000,0.8660L-0.5000,0.8660L-1.0000,0.0000L-0.5000,-0.8660L0.5000,-0.8660Z" fill="#000"/></g><g transform="rotate(0) scale(36,36)"><path d="M0.5,0.866L1.0,0.0L0.5,-0.866L-0.5,-0.866L-1.0,0.0L-0.5,0.866L0.5,0.866Z" fill="#fff" fill-rule="nonzero" clip-path="url(#hx)"/></g></g><g transform="translate(256.00,289.42)"><g transform="scale(36)"><path d="M1.0000,0.0000L0.5000,0.8660L-0.5000,0.8660L-1.0000,0.0000L-0.5000,-0.8660L0.5000,-0.8660Z" fill="#000"/></g><g transform="rotate(0) scale(36,36)"><path d="M0.5,0.866L1.0,0.0L0.5,-0.866L-0.5,-0.866L-1.0,0.0L-0.5,0.866L0.5,0.866Z" fill="#fff" fill-rule="nonzero" clip-path="url(#hx)"/></g></g><g transform="translate(256.00,351.77)"><g transform="scale(36)"><path d="M1.0000,0.0000L0.5000,0.8660L-0.5000,0.8660L-1.0000,0.0000L-0.5000,-0.8660L0.5000,-0.8660Z" fill="#000"/></g><g transform="rotate(0) scale(36,36)"><path d="M0.5,0.866L1.0,0.0L0.5,-0.866L-0.5,-0.866L-1.0,0.0L-0.5,0.866L0.5,0.866Z" fill="#fff" fill-rule="nonzero" clip-path="url(#hx)"/></g></g><g transform="translate(256.00,476.48)"><g transform="scale(36)"><path d="M1.0000,0.0000L0.5000,0.8660L-0.5000,0.8660L-1.0000,0.0000L-0.5000,-0.8660L0.5000,-0.8660Z" fill="#000"/></g><g transform="rotate(0) scale(36,36)"><path d="M0.5,0.866L1.0,0.0L0.5,-0.866L-0.5,-0.866L-1.0,0.0L-0.5,0.866L0.5,0.866Z" fill="#fff" fill-rule="nonzero" clip-path="url(#hx)"/></g></g><g transform="translate(256.00,538.83)"><g transform="scale(36)"><path d="M1.0000,0.0000L0.5000,0.8660L-0.5000,0.8660L-1.0000,0.0000L-0.5000,-0.8660L0.5000,-0.8660Z" fill="#000"/></g><g transform="rotate(0) scale(36,36)"><path d="M0.5,0.866L1.0,0.0L0.5,-0.866L-0.5,-0.866L-1.0,0.0L-0.5,0.866L0.5,0.866Z" fill="#fff" fill-rule="nonzero" clip-path="url(#hx)"/></g></g><g transform="translate(256.00,601.18)"><g transform="scale(36)"><path d="M1.0000,0.0000L0.5000,0.8660L-0.5000,0.8660L-1.0000,0.0000L-0.5000,-0.8660L0.5000,-0.8660Z" fill="#000"/></g><g transform="rotate(0) scale(36,36)"><path d="M0.5,0.866L1.0,0.0L0.5,-0.866L-0.5,-0.866L-1.0,0.0L-0.5,0.866L0.5,0.866Z" fill="#fff" fill-rule="nonzero" clip-path="url(#hx)"/></g></g><g transform="translate(256.00,663.54)"><g transform="scale(36)"><path d="M1.0000,0.0000L0.5000,0.8660L-0.5000,0.8660L-1.0000,0.0000L-0.5000,-0.8660L0.5000,-0.8660Z" fill="#fff"/></g><g transform="rotate(0) scale(36,36)"><path d="M0.750,0.433C0.274,0.158 -0.274,0.158 -0.750,0.433" fill="none" stroke="#000" stroke-width="0.34" stroke-linecap="round" stroke-linejoin="round" clip-path="url(#hx)"/></g></g><g transform="translate(256.00,725.89)"><g transform="scale(36)"><path d="M1.0000,0.0000L0.5000,0.8660L-0.5000,0.8660L-1.0000,0.0000L-0.5000,-0.8660L0.5000,-0.8660Z" fill="#000"/></g><g transform="rotate(0) scale(36,36)"><path d="M0.5,0.866L1.0,0.0L0.5,-0.866L-0.5,-0.866L-1.0,0.0L-0.5,0.866L0.5,0.866Z" fill="#fff" fill-rule="nonzero" clip-path="url(#hx)"/></g></g><g transform="translate(256.00,788.25)"><g transform="scale(36)"><path d="M1.0000,0.0000L0.5000,0.8660L-0.5000,0.8660L-1.0000,0.0000L-0.5000,-0.8660L0.5000,-0.8660Z" fill="#fff"/></g><g transform="rotate(0) scale(36,36)"><path d="M0.750,0.433C0.274,0.158 -0.274,0.158 -0.750,0.433" fill="none" stroke="#000" stroke-width="0.34" stroke-linecap="round" stroke-linejoin="round" clip-path="url(#hx)"/></g></g><g transform="translate(256.00,850.60)"><g transform="scale(36)"><path d="M1.0000,0.0000L0.5000,0.8660L-0.5000,0.8660L-1.0000,0.0000L-0.5000,-0.8660L0.5000,-0.8660Z" fill="#000"/></g><g transform="rotate(0) scale(36,36)"><path d="M0.5,0.866L1.0,0.0L0.5,-0.866L-0.5,-0.866L-1.0,0.0L-0.5,0.866L0.5,0.866Z" fill="#fff" fill-rule="nonzero" clip-path="url(#hx)"/></g></g><g transform="translate(256.00,912.95)"><g transform="scale(36)"><path d="M1.0000,0.0000L0.5000,0.8660L-0.5000,0.8660L-1.0000,0.0000L-0.5000,-0.8660L0.5000,-0.8660Z" fill="#000"/></g><g transform="rotate(0) scale(36,36)"><path d="M0.5,0.866L1.0,0.0L0.5,-0.866L-0.5,-0.866L-1.0,0.0L-0.5,0.866L0.5,0.866Z" fill="#fff" fill-rule="nonzero" clip-path="url(#hx)"/></g></g><g transform="translate(310.00,133.53)"><g transform="scale(36)"><path d="M1.0000,0.0000L0.5000,0.8660L-0.5000,0.8660L-1.0000,0.0000L-0.5000,-0.8660L0.5000,-0.8660Z" fill="#000"/></g><g transform="rotate(0) scale(36,36)"><path d="M0.5,0.866L1.0,0.0L0.5,-0.866L-0.5,-0.866L-1.0,0.0L-0.5,0.866L0.5,0.866Z" fill="#fff" fill-rule="nonzero" clip-path="url(#hx)"/></g></g><g transform="translate(310.00,195.88)"><g transform="scale(36)"><path d="M1.0000,0.0000L0.5000,0.8660L-0.5000,0.8660L-1.0000,0.0000L-0.5000,-0.8660L0.5000,-0.8660Z" fill="#000"/></g><g transform="rotate(0) scale(36,36)"><path d="M0.5,0.866L1.0,0.0L0.5,-0.866L-0.5,-0.866L-1.0,0.0L-0.5,0.866L0.5,0.866Z" fill="#fff" fill-rule="nonzero" clip-path="url(#hx)"/></g></g><g transform="translate(310.00,258.24)"><g transform="scale(36)"><path d="M1.0000,0.0000L0.5000,0.8660L-0.5000,0.8660L-1.0000,0.0000L-0.5000,-0.8660L0.5000,-0.8660Z" fill="#000"/></g><g transform="rotate(0) scale(36,36)"><path d="M0.5,0.866L1.0,0.0L0.5,-0.866L-0.5,-0.866L-1.0,0.0L-0.5,0.866L0.5,0.866Z" fill="#fff" fill-rule="nonzero" clip-path="url(#hx)"/></g></g><g transform="translate(310.00,320.59)"><g transform="scale(36)"><path d="M1.0000,0.0000L0.5000,0.8660L-0.5000,0.8660L-1.0000,0.0000L-0.5000,-0.8660L0.5000,-0.8660Z" fill="#000"/></g><g transform="rotate(0) scale(36,36)"><path d="M0.5,0.866L1.0,0.0L0.5,-0.866L-0.5,-0.866L-1.0,0.0L-0.5,0.866L0.5,0.866Z" fill="#fff" fill-rule="nonzero" clip-path="url(#hx)"/></g></g><g transform="translate(310.00,382.95)"><g transform="scale(36)"><path d="M1.0000,0.0000L0.5000,0.8660L-0.5000,0.8660L-1.0000,0.0000L-0.5000,-0.8660L0.5000,-0.8660Z" fill="#000"/></g><g transform="rotate(0) scale(36,36)"><path d="M0.5,0.866L1.0,0.0L0.5,-0.866L-0.5,-0.866L-1.0,0.0L-0.5,0.866L0.5,0.866Z" fill="#fff" fill-rule="nonzero" clip-path="url(#hx)"/></g></g><g transform="translate(310.00,570.01)"><g transform="scale(36)"><path d="M1.0000,0.0000L0.5000,0.8660L-0.5000,0.8660L-1.0000,0.0000L-0.5000,-0.8660L0.5000,-0.8660Z" fill="#000"/></g><g transform="rotate(0) scale(36,36)"><path d="M0.5,0.866L1.0,0.0L0.5,-0.866L-0.5,-0.866L-1.0,0.0L-0.5,0.866L0.5,0.866Z" fill="#fff" fill-rule="nonzero" clip-path="url(#hx)"/></g></g><g transform="translate(310.00,632.36)"><g transform="scale(36)"><path d="M1.0000,0.0000L0.5000,0.8660L-0.5000,0.8660L-1.0000,0.0000L-0.5000,-0.8660L0.5000,-0.8660Z" fill="#fff"/></g><g transform="rotate(0) scale(36,36)"><path d="M0.750,0.433C0.274,0.158 -0.274,0.158 -0.750,0.433" fill="none" stroke="#000" stroke-width="0.34" stroke-linecap="round" stroke-linejoin="round" clip-path="url(#hx)"/></g></g><g transform="translate(310.00,694.72)"><g transform="scale(36)"><path d="M1.0000,0.0000L0.5000,0.8660L-0.5000,0.8660L-1.0000,0.0000L-0.5000,-0.8660L0.5000,-0.8660Z" fill="#000"/></g><g transform="rotate(0) scale(36,36)"><path d="M0.5,0.866L1.0,0.0L0.5,-0.866L-0.5,-0.866L-1.0,0.0L-0.5,0.866L0.5,0.866Z" fill="#fff" fill-rule="nonzero" clip-path="url(#hx)"/></g></g><g transform="translate(310.00,757.07)"><g transform="scale(36)"><path d="M1.0000,0.0000L0.5000,0.8660L-0.5000,0.8660L-1.0000,0.0000L-0.5000,-0.8660L0.5000,-0.8660Z" fill="#000"/></g><g transform="rotate(0) scale(36,36)"><path d="M0.5,0.866L1.0,0.0L0.5,-0.866L-0.5,-0.866L-1.0,0.0L-0.5,0.866L0.5,0.866Z" fill="#fff" fill-rule="nonzero" clip-path="url(#hx)"/></g></g><g transform="translate(310.00,819.42)"><g transform="scale(36)"><path d="M1.0000,0.0000L0.5000,0.8660L-0.5000,0.8660L-1.0000,0.0000L-0.5000,-0.8660L0.5000,-0.8660Z" fill="#fff"/></g><g transform="rotate(0) scale(36,36)"><path d="M0.750,0.433C0.274,0.158 -0.274,0.158 -0.750,0.433" fill="none" stroke="#000" stroke-width="0.34" stroke-linecap="round" stroke-linejoin="round" clip-path="url(#hx)"/></g></g><g transform="translate(310.00,881.78)"><g transform="scale(36)"><path d="M1.0000,0.0000L0.5000,0.8660L-0.5000,0.8660L-1.0000,0.0000L-0.5000,-0.8660L0.5000,-0.8660Z" fill="#000"/></g><g transform="rotate(0) scale(36,36)"><path d="M0.5,0.866L1.0,0.0L0.5,-0.866L-0.5,-0.866L-1.0,0.0L-0.5,0.866L0.5,0.866Z" fill="#fff" fill-rule="nonzero" clip-path="url(#hx)"/></g></g><g transform="translate(310.00,944.13)"><g transform="scale(36)"><path d="M1.0000,0.0000L0.5000,0.8660L-0.5000,0.8660L-1.0000,0.0000L-0.5000,-0.8660L0.5000,-0.8660Z" fill="#000"/></g><g transform="rotate(0) scale(36,36)"><path d="M0.5,0.866L1.0,0.0L0.5,-0.866L-0.5,-0.866L-1.0,0.0L-0.5,0.866L0.5,0.866Z" fill="#fff" fill-rule="nonzero" clip-path="url(#hx)"/></g></g><g transform="translate(364.00,164.71)"><g transform="scale(36)"><path d="M1.0000,0.0000L0.5000,0.8660L-0.5000,0.8660L-1.0000,0.0000L-0.5000,-0.8660L0.5000,-0.8660Z" fill="#000"/></g><g transform="rotate(0) scale(36,36)"><path d="M0.5,0.866L1.0,0.0L0.5,-0.866L-0.5,-0.866L-1.0,0.0L-0.5,0.866L0.5,0.866Z" fill="#fff" fill-rule="nonzero" clip-path="url(#hx)"/></g></g><g transform="translate(364.00,227.06)"><g transform="scale(36)"><path d="M1.0000,0.0000L0.5000,0.8660L-0.5000,0.8660L-1.0000,0.0000L-0.5000,-0.8660L0.5000,-0.8660Z" fill="#000"/></g><g transform="rotate(0) scale(36,36)"><path d="M0.5,0.866L1.0,0.0L0.5,-0.866L-0.5,-0.866L-1.0,0.0L-0.5,0.866L0.5,0.866Z" fill="#fff" fill-rule="nonzero" clip-path="url(#hx)"/></g></g><g transform="translate(364.00,289.42)"><g transform="scale(36)"><path d="M1.0000,0.0000L0.5000,0.8660L-0.5000,0.8660L-1.0000,0.0000L-0.5000,-0.8660L0.5000,-0.8660Z" fill="#000"/></g><g transform="rotate(0) scale(36,36)"><path d="M0.5,0.866L1.0,0.0L0.5,-0.866L-0.5,-0.866L-1.0,0.0L-0.5,0.866L0.5,0.866Z" fill="#fff" fill-rule="nonzero" clip-path="url(#hx)"/></g></g><g transform="translate(364.00,351.77)"><g transform="scale(36)"><path d="M1.0000,0.0000L0.5000,0.8660L-0.5000,0.8660L-1.0000,0.0000L-0.5000,-0.8660L0.5000,-0.8660Z" fill="#000"/></g><g transform="rotate(0) scale(36,36)"><path d="M0.5,0.866L1.0,0.0L0.5,-0.866L-0.5,-0.866L-1.0,0.0L-0.5,0.866L0.5,0.866Z" fill="#fff" fill-rule="nonzero" clip-path="url(#hx)"/></g></g><g transform="translate(364.00,414.12)"><g transform="scale(36)"><path d="M1.0000,0.0000L0.5000,0.8660L-0.5000,0.8660L-1.0000,0.0000L-0.5000,-0.8660L0.5000,-0.8660Z" fill="#000"/></g><g transform="rotate(0) scale(36,36)"><path d="M0.5,0.866L1.0,0.0L0.5,-0.866L-0.5,-0.866L-1.0,0.0L-0.5,0.866L0.5,0.866Z" fill="#fff" fill-rule="nonzero" clip-path="url(#hx)"/></g></g><g transform="translate(364.00,476.48)"><g transform="scale(36)"><path d="M1.0000,0.0000L0.5000,0.8660L-0.5000,0.8660L-1.0000,0.0000L-0.5000,-0.8660L0.5000,-0.8660Z" fill="#000"/></g><g transform="rotate(0) scale(36,36)"><path d="M0.5,0.866L1.0,0.0L0.5,-0.866L-0.5,-0.866L-1.0,0.0L-0.5,0.866L0.5,0.866Z" fill="#fff" fill-rule="nonzero" clip-path="url(#hx)"/></g></g><g transform="translate(364.00,601.18)"><g transform="scale(36)"><path d="M1.0000,0.0000L0.5000,0.8660L-0.5000,0.8660L-1.0000,0.0000L-0.5000,-0.8660L0.5000,-0.8660Z" fill="#000"/></g><g transform="rotate(0) scale(36,36)"><path d="M0.5,0.866L1.0,0.0L0.5,-0.866L-0.5,-0.866L-1.0,0.0L-0.5,0.866L0.5,0.866Z" fill="#fff" fill-rule="nonzero" clip-path="url(#hx)"/></g></g><g transform="translate(364.00,663.54)"><g transform="scale(36)"><path d="M1.0000,0.0000L0.5000,0.8660L-0.5000,0.8660L-1.0000,0.0000L-0.5000,-0.8660L0.5000,-0.8660Z" fill="#fff"/></g><g transform="rotate(0) scale(36,36)"><path d="M0.750,0.433C0.274,0.158 -0.274,0.158 -0.750,0.433" fill="none" stroke="#000" stroke-width="0.34" stroke-linecap="round" stroke-linejoin="round" clip-path="url(#hx)"/></g></g><g transform="translate(364.00,725.89)"><g transform="scale(36)"><path d="M1.0000,0.0000L0.5000,0.8660L-0.5000,0.8660L-1.0000,0.0000L-0.5000,-0.8660L0.5000,-0.8660Z" fill="#000"/></g><g transform="rotate(0) scale(36,36)"><path d="M0.5,0.866L1.0,0.0L0.5,-0.866L-0.5,-0.866L-1.0,0.0L-0.5,0.866L0.5,0.866Z" fill="#fff" fill-rule="nonzero" clip-path="url(#hx)"/></g></g><g transform="translate(364.00,788.25)"><g transform="scale(36)"><path d="M1.0000,0.0000L0.5000,0.8660L-0.5000,0.8660L-1.0000,0.0000L-0.5000,-0.8660L0.5000,-0.8660Z" fill="#fff"/></g><g transform="rotate(0) scale(36,36)"><path d="M0.750,0.433C0.274,0.158 -0.274,0.158 -0.750,0.433" fill="none" stroke="#000" stroke-width="0.34" stroke-linecap="round" stroke-linejoin="round" clip-path="url(#hx)"/></g></g><g transform="translate(364.00,850.60)"><g transform="scale(36)"><path d="M1.0000,0.0000L0.5000,0.8660L-0.5000,0.8660L-1.0000,0.0000L-0.5000,-0.8660L0.5000,-0.8660Z" fill="#000"/></g><g transform="rotate(0) scale(36,36)"><path d="M0.5,0.866L1.0,0.0L0.5,-0.866L-0.5,-0.866L-1.0,0.0L-0.5,0.866L0.5,0.866Z" fill="#fff" fill-rule="nonzero" clip-path="url(#hx)"/></g></g><g transform="translate(364.00,912.95)"><g transform="scale(36)"><path d="M1.0000,0.0000L0.5000,0.8660L-0.5000,0.8660L-1.0000,0.0000L-0.5000,-0.8660L0.5000,-0.8660Z" fill="#000"/></g><g transform="rotate(0) scale(36,36)"><path d="M0.5,0.866L1.0,0.0L0.5,-0.866L-0.5,-0.866L-1.0,0.0L-0.5,0.866L0.5,0.866Z" fill="#fff" fill-rule="nonzero" clip-path="url(#hx)"/></g></g><g transform="translate(418.00,195.88)"><g transform="scale(36)"><path d="M1.0000,0.0000L0.5000,0.8660L-0.5000,0.8660L-1.0000,0.0000L-0.5000,-0.8660L0.5000,-0.8660Z" fill="#000"/></g><g transform="rotate(0) scale(36,36)"><path d="M0.5,0.866L1.0,0.0L0.5,-0.866L-0.5,-0.866L-1.0,0.0L-0.5,0.866L0.5,0.866Z" fill="#fff" fill-rule="nonzero" clip-path="url(#hx)"/></g></g><g transform="translate(418.00,258.24)"><g transform="scale(36)"><path d="M1.0000,0.0000L0.5000,0.8660L-0.5000,0.8660L-1.0000,0.0000L-0.5000,-0.8660L0.5000,-0.8660Z" fill="#000"/></g><g transform="rotate(0) scale(36,36)"><path d="M0.5,0.866L1.0,0.0L0.5,-0.866L-0.5,-0.866L-1.0,0.0L-0.5,0.866L0.5,0.866Z" fill="#fff" fill-rule="nonzero" clip-path="url(#hx)"/></g></g><g transform="translate(418.00,320.59)"><g transform="scale(36)"><path d="M1.0000,0.0000L0.5000,0.8660L-0.5000,0.8660L-1.0000,0.0000L-0.5000,-0.8660L0.5000,-0.8660Z" fill="#000"/></g><g transform="rotate(0) scale(36,36)"><path d="M0.5,0.866L1.0,0.0L0.5,-0.866L-0.5,-0.866L-1.0,0.0L-0.5,0.866L0.5,0.866Z" fill="#fff" fill-rule="nonzero" clip-path="url(#hx)"/></g></g><g transform="translate(418.00,382.95)"><g transform="scale(36)"><path d="M1.0000,0.0000L0.5000,0.8660L-0.5000,0.8660L-1.0000,0.0000L-0.5000,-0.8660L0.5000,-0.8660Z" fill="#000"/></g><g transform="rotate(0) scale(36,36)"><path d="M0.5,0.866L1.0,0.0L0.5,-0.866L-0.5,-0.866L-1.0,0.0L-0.5,0.866L0.5,0.866Z" fill="#fff" fill-rule="nonzero" clip-path="url(#hx)"/></g></g><g transform="translate(418.00,445.30)"><g transform="scale(36)"><path d="M1.0000,0.0000L0.5000,0.8660L-0.5000,0.8660L-1.0000,0.0000L-0.5000,-0.8660L0.5000,-0.8660Z" fill="#000"/></g><g transform="rotate(0) scale(36,36)"><path d="M0.5,0.866L1.0,0.0L0.5,-0.866L-0.5,-0.866L-1.0,0.0L-0.5,0.866L0.5,0.866Z" fill="#fff" fill-rule="nonzero" clip-path="url(#hx)"/></g></g><g transform="translate(418.00,507.65)"><g transform="scale(36)"><path d="M1.0000,0.0000L0.5000,0.8660L-0.5000,0.8660L-1.0000,0.0000L-0.5000,-0.8660L0.5000,-0.8660Z" fill="#000"/></g><g transform="rotate(0) scale(36,36)"><path d="M0.5,0.866L1.0,0.0L0.5,-0.866L-0.5,-0.866L-1.0,0.0L-0.5,0.866L0.5,0.866Z" fill="#fff" fill-rule="nonzero" clip-path="url(#hx)"/></g></g><g transform="translate(418.00,570.01)"><g transform="scale(36)"><path d="M1.0000,0.0000L0.5000,0.8660L-0.5000,0.8660L-1.0000,0.0000L-0.5000,-0.8660L0.5000,-0.8660Z" fill="#000"/></g><g transform="rotate(0) scale(36,36)"><path d="M0.5,0.866L1.0,0.0L0.5,-0.866L-0.5,-0.866L-1.0,0.0L-0.5,0.866L0.5,0.866Z" fill="#fff" fill-rule="nonzero" clip-path="url(#hx)"/></g></g><g transform="translate(418.00,632.36)"><g transform="scale(36)"><path d="M1.0000,0.0000L0.5000,0.8660L-0.5000,0.8660L-1.0000,0.0000L-0.5000,-0.8660L0.5000,-0.8660Z" fill="#000"/></g><g transform="rotate(0) scale(36,36)"><path d="M0.5,0.866L1.0,0.0L0.5,-0.866L-0.5,-0.866L-1.0,0.0L-0.5,0.866L0.5,0.866Z" fill="#fff" fill-rule="nonzero" clip-path="url(#hx)"/></g></g><g transform="translate(418.00,694.72)"><g transform="scale(36)"><path d="M1.0000,0.0000L0.5000,0.8660L-0.5000,0.8660L-1.0000,0.0000L-0.5000,-0.8660L0.5000,-0.8660Z" fill="#fff"/></g><g transform="rotate(0) scale(36,36)"><path d="M0.750,0.433C0.274,0.158 -0.274,0.158 -0.750,0.433" fill="none" stroke="#000" stroke-width="0.34" stroke-linecap="round" stroke-linejoin="round" clip-path="url(#hx)"/></g></g><g transform="translate(418.00,757.07)"><g transform="scale(36)"><path d="M1.0000,0.0000L0.5000,0.8660L-0.5000,0.8660L-1.0000,0.0000L-0.5000,-0.8660L0.5000,-0.8660Z" fill="#fff"/></g><g transform="rotate(0) scale(36,36)"><path d="M0.750,0.433C0.274,0.158 -0.274,0.158 -0.750,0.433" fill="none" stroke="#000" stroke-width="0.34" stroke-linecap="round" stroke-linejoin="round" clip-path="url(#hx)"/></g></g><g transform="translate(418.00,819.42)"><g transform="scale(36)"><path d="M1.0000,0.0000L0.5000,0.8660L-0.5000,0.8660L-1.0000,0.0000L-0.5000,-0.8660L0.5000,-0.8660Z" fill="#000"/></g><g transform="rotate(0) scale(36,36)"><path d="M0.5,0.866L1.0,0.0L0.5,-0.866L-0.5,-0.866L-1.0,0.0L-0.5,0.866L0.5,0.866Z" fill="#fff" fill-rule="nonzero" clip-path="url(#hx)"/></g></g><g transform="translate(418.00,881.78)"><g transform="scale(36)"><path d="M1.0000,0.0000L0.5000,0.8660L-0.5000,0.8660L-1.0000,0.0000L-0.5000,-0.8660L0.5000,-0.8660Z" fill="#000"/></g><g transform="rotate(0) scale(36,36)"><path d="M0.5,0.866L1.0,0.0L0.5,-0.866L-0.5,-0.866L-1.0,0.0L-0.5,0.866L0.5,0.866Z" fill="#fff" fill-rule="nonzero" clip-path="url(#hx)"/></g></g><g transform="translate(418.00,944.13)"><g transform="scale(36)"><path d="M1.0000,0.0000L0.5000,0.8660L-0.5000,0.8660L-1.0000,0.0000L-0.5000,-0.8660L0.5000,-0.8660Z" fill="#000"/></g><g transform="rotate(0) scale(36,36)"><path d="M0.5,0.866L1.0,0.0L0.5,-0.866L-0.5,-0.866L-1.0,0.0L-0.5,0.866L0.5,0.866Z" fill="#fff" fill-rule="nonzero" clip-path="url(#hx)"/></g></g><g transform="translate(472.00,227.06)"><g transform="scale(36)"><path d="M1.0000,0.0000L0.5000,0.8660L-0.5000,0.8660L-1.0000,0.0000L-0.5000,-0.8660L0.5000,-0.8660Z" fill="#000"/></g><g transform="rotate(0) scale(36,36)"><path d="M0.5,0.866L1.0,0.0L0.5,-0.866L-0.5,-0.866L-1.0,0.0L-0.5,0.866L0.5,0.866Z" fill="#fff" fill-rule="nonzero" clip-path="url(#hx)"/></g></g><g transform="translate(472.00,289.42)"><g transform="scale(36)"><path d="M1.0000,0.0000L0.5000,0.8660L-0.5000,0.8660L-1.0000,0.0000L-0.5000,-0.8660L0.5000,-0.8660Z" fill="#000"/></g><g transform="rotate(0) scale(36,36)"><path d="M0.5,0.866L1.0,0.0L0.5,-0.866L-0.5,-0.866L-1.0,0.0L-0.5,0.866L0.5,0.866Z" fill="#fff" fill-rule="nonzero" clip-path="url(#hx)"/></g></g><g transform="translate(472.00,351.77)"><g transform="scale(36)"><path d="M1.0000,0.0000L0.5000,0.8660L-0.5000,0.8660L-1.0000,0.0000L-0.5000,-0.8660L0.5000,-0.8660Z" fill="#000"/></g><g transform="rotate(0) scale(36,36)"><path d="M0.5,0.866L1.0,0.0L0.5,-0.866L-0.5,-0.866L-1.0,0.0L-0.5,0.866L0.5,0.866Z" fill="#fff" fill-rule="nonzero" clip-path="url(#hx)"/></g></g><g transform="translate(472.00,414.12)"><g transform="scale(36)"><path d="M1.0000,0.0000L0.5000,0.8660L-0.5000,0.8660L-1.0000,0.0000L-0.5000,-0.8660L0.5000,-0.8660Z" fill="#000"/></g><g transform="rotate(0) scale(36,36)"><path d="M0.5,0.866L1.0,0.0L0.5,-0.866L-0.5,-0.866L-1.0,0.0L-0.5,0.866L0.5,0.866Z" fill="#fff" fill-rule="nonzero" clip-path="url(#hx)"/></g></g><g transform="translate(472.00,476.48)"><g transform="scale(36)"><path d="M1.0000,0.0000L0.5000,0.8660L-0.5000,0.8660L-1.0000,0.0000L-0.5000,-0.8660L0.5000,-0.8660Z" fill="#000"/></g><g transform="rotate(0) scale(36,36)"><path d="M0.5,0.866L1.0,0.0L0.5,-0.866L-0.5,-0.866L-1.0,0.0L-0.5,0.866L0.5,0.866Z" fill="#fff" fill-rule="nonzero" clip-path="url(#hx)"/></g></g><g transform="translate(472.00,538.83)"><g transform="scale(36)"><path d="M1.0000,0.0000L0.5000,0.8660L-0.5000,0.8660L-1.0000,0.0000L-0.5000,-0.8660L0.5000,-0.8660Z" fill="#000"/></g><g transform="rotate(0) scale(36,36)"><path d="M0.5,0.866L1.0,0.0L0.5,-0.866L-0.5,-0.866L-1.0,0.0L-0.5,0.866L0.5,0.866Z" fill="#fff" fill-rule="nonzero" clip-path="url(#hx)"/></g></g><g transform="translate(472.00,601.18)"><g transform="scale(36)"><path d="M1.0000,0.0000L0.5000,0.8660L-0.5000,0.8660L-1.0000,0.0000L-0.5000,-0.8660L0.5000,-0.8660Z" fill="#000"/></g><g transform="rotate(0) scale(36,36)"><path d="M0.5,0.866L1.0,0.0L0.5,-0.866L-0.5,-0.866L-1.0,0.0L-0.5,0.866L0.5,0.866Z" fill="#fff" fill-rule="nonzero" clip-path="url(#hx)"/></g></g><g transform="translate(472.00,663.54)"><g transform="scale(36)"><path d="M1.0000,0.0000L0.5000,0.8660L-0.5000,0.8660L-1.0000,0.0000L-0.5000,-0.8660L0.5000,-0.8660Z" fill="#000"/></g><g transform="rotate(0) scale(36,36)"><path d="M0.5,0.866L1.0,0.0L0.5,-0.866L-0.5,-0.866L-1.0,0.0L-0.5,0.866L0.5,0.866Z" fill="#fff" fill-rule="nonzero" clip-path="url(#hx)"/></g></g><g transform="translate(472.00,725.89)"><g transform="scale(36)"><path d="M1.0000,0.0000L0.5000,0.8660L-0.5000,0.8660L-1.0000,0.0000L-0.5000,-0.8660L0.5000,-0.8660Z" fill="#000"/></g><g transform="rotate(0) scale(36,36)"><path d="M0.5,0.866L1.0,0.0L0.5,-0.866L-0.5,-0.866L-1.0,0.0L-0.5,0.866L0.5,0.866Z" fill="#fff" fill-rule="nonzero" clip-path="url(#hx)"/></g></g><g transform="translate(472.00,788.25)"><g transform="scale(36)"><path d="M1.0000,0.0000L0.5000,0.8660L-0.5000,0.8660L-1.0000,0.0000L-0.5000,-0.8660L0.5000,-0.8660Z" fill="#000"/></g><g transform="rotate(0) scale(36,36)"><path d="M0.5,0.866L1.0,0.0L0.5,-0.866L-0.5,-0.866L-1.0,0.0L-0.5,0.866L0.5,0.866Z" fill="#fff" fill-rule="nonzero" clip-path="url(#hx)"/></g></g><g transform="translate(472.00,850.60)"><g transform="scale(36)"><path d="M1.0000,0.0000L0.5000,0.8660L-0.5000,0.8660L-1.0000,0.0000L-0.5000,-0.8660L0.5000,-0.8660Z" fill="#000"/></g><g transform="rotate(0) scale(36,36)"><path d="M0.5,0.866L1.0,0.0L0.5,-0.866L-0.5,-0.866L-1.0,0.0L-0.5,0.866L0.5,0.866Z" fill="#fff" fill-rule="nonzero" clip-path="url(#hx)"/></g></g><g transform="translate(472.00,912.95)"><g transform="scale(36)"><path d="M1.0000,0.0000L0.5000,0.8660L-0.5000,0.8660L-1.0000,0.0000L-0.5000,-0.8660L0.5000,-0.8660Z" fill="#000"/></g><g transform="rotate(0) scale(36,36)"><path d="M0.5,0.866L1.0,0.0L0.5,-0.866L-0.5,-0.866L-1.0,0.0L-0.5,0.866L0.5,0.866Z" fill="#fff" fill-rule="nonzero" clip-path="url(#hx)"/></g></g><g transform="translate(526.00,258.24)"><g transform="scale(36)"><path d="M1.0000,0.0000L0.5000,0.8660L-0.5000,0.8660L-1.0000,0.0000L-0.5000,-0.8660L0.5000,-0.8660Z" fill="#000"/></g><g transform="rotate(0) scale(36,36)"><path d="M0.5,0.866L1.0,0.0L0.5,-0.866L-0.5,-0.866L-1.0,0.0L-0.5,0.866L0.5,0.866Z" fill="#fff" fill-rule="nonzero" clip-path="url(#hx)"/></g></g><g transform="translate(526.00,320.59)"><g transform="scale(36)"><path d="M1.0000,0.0000L0.5000,0.8660L-0.5000,0.8660L-1.0000,0.0000L-0.5000,-0.8660L0.5000,-0.8660Z" fill="#000"/></g><g transform="rotate(0) scale(36,36)"><path d="M0.5,0.866L1.0,0.0L0.5,-0.866L-0.5,-0.866L-1.0,0.0L-0.5,0.866L0.5,0.866Z" fill="#fff" fill-rule="nonzero" clip-path="url(#hx)"/></g></g><g transform="translate(526.00,382.95)"><g transform="scale(36)"><path d="M1.0000,0.0000L0.5000,0.8660L-0.5000,0.8660L-1.0000,0.0000L-0.5000,-0.8660L0.5000,-0.8660Z" fill="#000"/></g><g transform="rotate(0) scale(36,36)"><path d="M0.5,0.866L1.0,0.0L0.5,-0.866L-0.5,-0.866L-1.0,0.0L-0.5,0.866L0.5,0.866Z" fill="#fff" fill-rule="nonzero" clip-path="url(#hx)"/></g></g><g transform="translate(526.00,445.30)"><g transform="scale(36)"><path d="M1.0000,0.0000L0.5000,0.8660L-0.5000,0.8660L-1.0000,0.0000L-0.5000,-0.8660L0.5000,-0.8660Z" fill="#000"/></g><g transform="rotate(0) scale(36,36)"><path d="M0.5,0.866L1.0,0.0L0.5,-0.866L-0.5,-0.866L-1.0,0.0L-0.5,0.866L0.5,0.866Z" fill="#fff" fill-rule="nonzero" clip-path="url(#hx)"/></g></g><g transform="translate(526.00,507.65)"><g transform="scale(36)"><path d="M1.0000,0.0000L0.5000,0.8660L-0.5000,0.8660L-1.0000,0.0000L-0.5000,-0.8660L0.5000,-0.8660Z" fill="#000"/></g><g transform="rotate(0) scale(36,36)"><path d="M0.5,0.866L1.0,0.0L0.5,-0.866L-0.5,-0.866L-1.0,0.0L-0.5,0.866L0.5,0.866Z" fill="#fff" fill-rule="nonzero" clip-path="url(#hx)"/></g></g><g transform="translate(526.00,570.01)"><g transform="scale(36)"><path d="M1.0000,0.0000L0.5000,0.8660L-0.5000,0.8660L-1.0000,0.0000L-0.5000,-0.8660L0.5000,-0.8660Z" fill="#000"/></g><g transform="rotate(0) scale(36,36)"><path d="M0.5,0.866L1.0,0.0L0.5,-0.866L-0.5,-0.866L-1.0,0.0L-0.5,0.866L0.5,0.866Z" fill="#fff" fill-rule="nonzero" clip-path="url(#hx)"/></g></g><g transform="translate(526.00,632.36)"><g transform="scale(36)"><path d="M1.0000,0.0000L0.5000,0.8660L-0.5000,0.8660L-1.0000,0.0000L-0.5000,-0.8660L0.5000,-0.8660Z" fill="#000"/></g><g transform="rotate(0) scale(36,36)"><path d="M0.5,0.866L1.0,0.0L0.5,-0.866L-0.5,-0.866L-1.0,0.0L-0.5,0.866L0.5,0.866Z" fill="#fff" fill-rule="nonzero" clip-path="url(#hx)"/></g></g><g transform="translate(526.00,694.72)"><g transform="scale(36)"><path d="M1.0000,0.0000L0.5000,0.8660L-0.5000,0.8660L-1.0000,0.0000L-0.5000,-0.8660L0.5000,-0.8660Z" fill="#000"/></g><g transform="rotate(0) scale(36,36)"><path d="M0.5,0.866L1.0,0.0L0.5,-0.866L-0.5,-0.866L-1.0,0.0L-0.5,0.866L0.5,0.866Z" fill="#fff" fill-rule="nonzero" clip-path="url(#hx)"/></g></g><g transform="translate(526.00,757.07)"><g transform="scale(36)"><path d="M1.0000,0.0000L0.5000,0.8660L-0.5000,0.8660L-1.0000,0.0000L-0.5000,-0.8660L0.5000,-0.8660Z" fill="#fff"/></g><g transform="rotate(0) scale(36,36)"><path d="M0.750,0.433C0.274,0.158 -0.274,0.158 -0.750,0.433" fill="none" stroke="#000" stroke-width="0.34" stroke-linecap="round" stroke-linejoin="round" clip-path="url(#hx)"/></g></g><g transform="translate(526.00,819.42)"><g transform="scale(36)"><path d="M1.0000,0.0000L0.5000,0.8660L-0.5000,0.8660L-1.0000,0.0000L-0.5000,-0.8660L0.5000,-0.8660Z" fill="#fff"/></g><g transform="rotate(0) scale(36,36)"><path d="M0.750,0.433C0.274,0.158 -0.274,0.158 -0.750,0.433" fill="none" stroke="#000" stroke-width="0.34" stroke-linecap="round" stroke-linejoin="round" clip-path="url(#hx)"/></g></g><g transform="translate(526.00,881.78)"><g transform="scale(36)"><path d="M1.0000,0.0000L0.5000,0.8660L-0.5000,0.8660L-1.0000,0.0000L-0.5000,-0.8660L0.5000,-0.8660Z" fill="#000"/></g><g transform="rotate(0) scale(36,36)"><path d="M0.5,0.866L1.0,0.0L0.5,-0.866L-0.5,-0.866L-1.0,0.0L-0.5,0.866L0.5,0.866Z" fill="#fff" fill-rule="nonzero" clip-path="url(#hx)"/></g></g><g transform="translate(580.00,289.42)"><g transform="scale(36)"><path d="M1.0000,0.0000L0.5000,0.8660L-0.5000,0.8660L-1.0000,0.0000L-0.5000,-0.8660L0.5000,-0.8660Z" fill="#000"/></g><g transform="rotate(0) scale(36,36)"><path d="M0.5,0.866L1.0,0.0L0.5,-0.866L-0.5,-0.866L-1.0,0.0L-0.5,0.866L0.5,0.866Z" fill="#fff" fill-rule="nonzero" clip-path="url(#hx)"/></g></g><g transform="translate(580.00,351.77)"><g transform="scale(36)"><path d="M1.0000,0.0000L0.5000,0.8660L-0.5000,0.8660L-1.0000,0.0000L-0.5000,-0.8660L0.5000,-0.8660Z" fill="#000"/></g><g transform="rotate(0) scale(36,36)"><path d="M0.5,0.866L1.0,0.0L0.5,-0.866L-0.5,-0.866L-1.0,0.0L-0.5,0.866L0.5,0.866Z" fill="#fff" fill-rule="nonzero" clip-path="url(#hx)"/></g></g><g transform="translate(580.00,414.12)"><g transform="scale(36)"><path d="M1.0000,0.0000L0.5000,0.8660L-0.5000,0.8660L-1.0000,0.0000L-0.5000,-0.8660L0.5000,-0.8660Z" fill="#000"/></g><g transform="rotate(0) scale(36,36)"><path d="M0.5,0.866L1.0,0.0L0.5,-0.866L-0.5,-0.866L-1.0,0.0L-0.5,0.866L0.5,0.866Z" fill="#fff" fill-rule="nonzero" clip-path="url(#hx)"/></g></g><g transform="translate(580.00,476.48)"><g transform="scale(36)"><path d="M1.0000,0.0000L0.5000,0.8660L-0.5000,0.8660L-1.0000,0.0000L-0.5000,-0.8660L0.5000,-0.8660Z" fill="#000"/></g><g transform="rotate(0) scale(36,36)"><path d="M0.5,0.866L1.0,0.0L0.5,-0.866L-0.5,-0.866L-1.0,0.0L-0.5,0.866L0.5,0.866Z" fill="#fff" fill-rule="nonzero" clip-path="url(#hx)"/></g></g><g transform="translate(580.00,538.83)"><g transform="scale(36)"><path d="M1.0000,0.0000L0.5000,0.8660L-0.5000,0.8660L-1.0000,0.0000L-0.5000,-0.8660L0.5000,-0.8660Z" fill="#000"/></g><g transform="rotate(0) scale(36,36)"><path d="M0.5,0.866L1.0,0.0L0.5,-0.866L-0.5,-0.866L-1.0,0.0L-0.5,0.866L0.5,0.866Z" fill="#fff" fill-rule="nonzero" clip-path="url(#hx)"/></g></g><g transform="translate(580.00,601.18)"><g transform="scale(36)"><path d="M1.0000,0.0000L0.5000,0.8660L-0.5000,0.8660L-1.0000,0.0000L-0.5000,-0.8660L0.5000,-0.8660Z" fill="#000"/></g><g transform="rotate(0) scale(36,36)"><path d="M0.5,0.866L1.0,0.0L0.5,-0.866L-0.5,-0.866L-1.0,0.0L-0.5,0.866L0.5,0.866Z" fill="#fff" fill-rule="nonzero" clip-path="url(#hx)"/></g></g><g transform="translate(580.00,663.54)"><g transform="scale(36)"><path d="M1.0000,0.0000L0.5000,0.8660L-0.5000,0.8660L-1.0000,0.0000L-0.5000,-0.8660L0.5000,-0.8660Z" fill="#fff"/></g><g transform="rotate(0) scale(36,36)"><path d="M0.750,0.433C0.274,0.158 -0.274,0.158 -0.750,0.433" fill="none" stroke="#000" stroke-width="0.34" stroke-linecap="round" stroke-linejoin="round" clip-path="url(#hx)"/></g></g><g transform="translate(580.00,725.89)"><g transform="scale(36)"><path d="M1.0000,0.0000L0.5000,0.8660L-0.5000,0.8660L-1.0000,0.0000L-0.5000,-0.8660L0.5000,-0.8660Z" fill="#fff"/></g><g transform="rotate(0) scale(36,36)"><path d="M0.750,0.433C0.274,0.158 -0.274,0.158 -0.750,0.433" fill="none" stroke="#000" stroke-width="0.34" stroke-linecap="round" stroke-linejoin="round" clip-path="url(#hx)"/></g></g><g transform="translate(580.00,788.25)"><g transform="scale(36)"><path d="M1.0000,0.0000L0.5000,0.8660L-0.5000,0.8660L-1.0000,0.0000L-0.5000,-0.8660L0.5000,-0.8660Z" fill="#000"/></g><g transform="rotate(0) scale(36,36)"><path d="M0.5,0.866L1.0,0.0L0.5,-0.866L-0.5,-0.866L-1.0,0.0L-0.5,0.866L0.5,0.866Z" fill="#fff" fill-rule="nonzero" clip-path="url(#hx)"/></g></g><g transform="translate(580.00,850.60)"><g transform="scale(36)"><path d="M1.0000,0.0000L0.5000,0.8660L-0.5000,0.8660L-1.0000,0.0000L-0.5000,-0.8660L0.5000,-0.8660Z" fill="#000"/></g><g transform="rotate(0) scale(36,36)"><path d="M0.5,0.866L1.0,0.0L0.5,-0.866L-0.5,-0.866L-1.0,0.0L-0.5,0.866L0.5,0.866Z" fill="#fff" fill-rule="nonzero" clip-path="url(#hx)"/></g></g><g transform="translate(634.00,258.24)"><g transform="scale(36)"><path d="M1.0000,0.0000L0.5000,0.8660L-0.5000,0.8660L-1.0000,0.0000L-0.5000,-0.8660L0.5000,-0.8660Z" fill="#000"/></g><g transform="rotate(0) scale(36,36)"><path d="M0.5,0.866L1.0,0.0L0.5,-0.866L-0.5,-0.866L-1.0,0.0L-0.5,0.866L0.5,0.866Z" fill="#fff" fill-rule="nonzero" clip-path="url(#hx)"/></g></g><g transform="translate(634.00,320.59)"><g transform="scale(36)"><path d="M1.0000,0.0000L0.5000,0.8660L-0.5000,0.8660L-1.0000,0.0000L-0.5000,-0.8660L0.5000,-0.8660Z" fill="#000"/></g><g transform="rotate(0) scale(36,36)"><path d="M0.5,0.866L1.0,0.0L0.5,-0.866L-0.5,-0.866L-1.0,0.0L-0.5,0.866L0.5,0.866Z" fill="#fff" fill-rule="nonzero" clip-path="url(#hx)"/></g></g><g transform="translate(634.00,507.65)"><g transform="scale(36)"><path d="M1.0000,0.0000L0.5000,0.8660L-0.5000,0.8660L-1.0000,0.0000L-0.5000,-0.8660L0.5000,-0.8660Z" fill="#000"/></g><g transform="rotate(0) scale(36,36)"><path d="M0.5,0.866L1.0,0.0L0.5,-0.866L-0.5,-0.866L-1.0,0.0L-0.5,0.866L0.5,0.866Z" fill="#fff" fill-rule="nonzero" clip-path="url(#hx)"/></g></g><g transform="translate(634.00,570.01)"><g transform="scale(36)"><path d="M1.0000,0.0000L0.5000,0.8660L-0.5000,0.8660L-1.0000,0.0000L-0.5000,-0.8660L0.5000,-0.8660Z" fill="#000"/></g><g transform="rotate(0) scale(36,36)"><path d="M0.5,0.866L1.0,0.0L0.5,-0.866L-0.5,-0.866L-1.0,0.0L-0.5,0.866L0.5,0.866Z" fill="#fff" fill-rule="nonzero" clip-path="url(#hx)"/></g></g><g transform="translate(634.00,632.36)"><g transform="scale(36)"><path d="M1.0000,0.0000L0.5000,0.8660L-0.5000,0.8660L-1.0000,0.0000L-0.5000,-0.8660L0.5000,-0.8660Z" fill="#fff"/></g><g transform="rotate(0) scale(36,36)"><path d="M0.750,0.433C0.274,0.158 -0.274,0.158 -0.750,0.433" fill="none" stroke="#000" stroke-width="0.34" stroke-linecap="round" stroke-linejoin="round" clip-path="url(#hx)"/></g></g><g transform="translate(634.00,694.72)"><g transform="scale(36)"><path d="M1.0000,0.0000L0.5000,0.8660L-0.5000,0.8660L-1.0000,0.0000L-0.5000,-0.8660L0.5000,-0.8660Z" fill="#000"/></g><g transform="rotate(0) scale(36,36)"><path d="M0.5,0.866L1.0,0.0L0.5,-0.866L-0.5,-0.866L-1.0,0.0L-0.5,0.866L0.5,0.866Z" fill="#fff" fill-rule="nonzero" clip-path="url(#hx)"/></g></g><g transform="translate(634.00,757.07)"><g transform="scale(36)"><path d="M1.0000,0.0000L0.5000,0.8660L-0.5000,0.8660L-1.0000,0.0000L-0.5000,-0.8660L0.5000,-0.8660Z" fill="#fff"/></g><g transform="rotate(0) scale(36,36)"><path d="M0.750,0.433C0.274,0.158 -0.274,0.158 -0.750,0.433" fill="none" stroke="#000" stroke-width="0.34" stroke-linecap="round" stroke-linejoin="round" clip-path="url(#hx)"/></g></g><g transform="translate(634.00,819.42)"><g transform="scale(36)"><path d="M1.0000,0.0000L0.5000,0.8660L-0.5000,0.8660L-1.0000,0.0000L-0.5000,-0.8660L0.5000,-0.8660Z" fill="#000"/></g><g transform="rotate(0) scale(36,36)"><path d="M0.5,0.866L1.0,0.0L0.5,-0.866L-0.5,-0.866L-1.0,0.0L-0.5,0.866L0.5,0.866Z" fill="#fff" fill-rule="nonzero" clip-path="url(#hx)"/></g></g><g transform="translate(634.00,881.78)"><g transform="scale(36)"><path d="M1.0000,0.0000L0.5000,0.8660L-0.5000,0.8660L-1.0000,0.0000L-0.5000,-0.8660L0.5000,-0.8660Z" fill="#000"/></g><g transform="rotate(0) scale(36,36)"><path d="M0.5,0.866L1.0,0.0L0.5,-0.866L-0.5,-0.866L-1.0,0.0L-0.5,0.866L0.5,0.866Z" fill="#fff" fill-rule="nonzero" clip-path="url(#hx)"/></g></g><g transform="translate(688.00,289.42)"><g transform="scale(36)"><path d="M1.0000,0.0000L0.5000,0.8660L-0.5000,0.8660L-1.0000,0.0000L-0.5000,-0.8660L0.5000,-0.8660Z" fill="#000"/></g><g transform="rotate(0) scale(36,36)"><path d="M0.5,0.866L1.0,0.0L0.5,-0.866L-0.5,-0.866L-1.0,0.0L-0.5,0.866L0.5,0.866Z" fill="#fff" fill-rule="nonzero" clip-path="url(#hx)"/></g></g><g transform="translate(688.00,538.83)"><g transform="scale(36)"><path d="M1.0000,0.0000L0.5000,0.8660L-0.5000,0.8660L-1.0000,0.0000L-0.5000,-0.8660L0.5000,-0.8660Z" fill="#000"/></g><g transform="rotate(0) scale(36,36)"><path d="M0.5,0.866L1.0,0.0L0.5,-0.866L-0.5,-0.866L-1.0,0.0L-0.5,0.866L0.5,0.866Z" fill="#fff" fill-rule="nonzero" clip-path="url(#hx)"/></g></g><g transform="translate(688.00,601.18)"><g transform="scale(36)"><path d="M1.0000,0.0000L0.5000,0.8660L-0.5000,0.8660L-1.0000,0.0000L-0.5000,-0.8660L0.5000,-0.8660Z" fill="#000"/></g><g transform="rotate(0) scale(36,36)"><path d="M0.5,0.866L1.0,0.0L0.5,-0.866L-0.5,-0.866L-1.0,0.0L-0.5,0.866L0.5,0.866Z" fill="#fff" fill-rule="nonzero" clip-path="url(#hx)"/></g></g><g transform="translate(688.00,663.54)"><g transform="scale(36)"><path d="M1.0000,0.0000L0.5000,0.8660L-0.5000,0.8660L-1.0000,0.0000L-0.5000,-0.8660L0.5000,-0.8660Z" fill="#fff"/></g><g transform="rotate(0) scale(36,36)"><path d="M0.750,0.433C0.274,0.158 -0.274,0.158 -0.750,0.433" fill="none" stroke="#000" stroke-width="0.34" stroke-linecap="round" stroke-linejoin="round" clip-path="url(#hx)"/></g></g><g transform="translate(688.00,725.89)"><g transform="scale(36)"><path d="M1.0000,0.0000L0.5000,0.8660L-0.5000,0.8660L-1.0000,0.0000L-0.5000,-0.8660L0.5000,-0.8660Z" fill="#fff"/></g><g transform="rotate(0) scale(36,36)"><path d="M0.750,0.433C0.274,0.158 -0.274,0.158 -0.750,0.433" fill="none" stroke="#000" stroke-width="0.34" stroke-linecap="round" stroke-linejoin="round" clip-path="url(#hx)"/></g></g><g transform="translate(688.00,788.25)"><g transform="scale(36)"><path d="M1.0000,0.0000L0.5000,0.8660L-0.5000,0.8660L-1.0000,0.0000L-0.5000,-0.8660L0.5000,-0.8660Z" fill="#000"/></g><g transform="rotate(0) scale(36,36)"><path d="M0.5,0.866L1.0,0.0L0.5,-0.866L-0.5,-0.866L-1.0,0.0L-0.5,0.866L0.5,0.866Z" fill="#fff" fill-rule="nonzero" clip-path="url(#hx)"/></g></g><g transform="translate(688.00,850.60)"><g transform="scale(36)"><path d="M1.0000,0.0000L0.5000,0.8660L-0.5000,0.8660L-1.0000,0.0000L-0.5000,-0.8660L0.5000,-0.8660Z" fill="#000"/></g><g transform="rotate(0) scale(36,36)"><path d="M0.5,0.866L1.0,0.0L0.5,-0.866L-0.5,-0.866L-1.0,0.0L-0.5,0.866L0.5,0.866Z" fill="#fff" fill-rule="nonzero" clip-path="url(#hx)"/></g></g><g transform="translate(742.00,632.36)"><g transform="scale(36)"><path d="M1.0000,0.0000L0.5000,0.8660L-0.5000,0.8660L-1.0000,0.0000L-0.5000,-0.8660L0.5000,-0.8660Z" fill="#000"/></g><g transform="rotate(0) scale(36,36)"><path d="M0.5,0.866L1.0,0.0L0.5,-0.866L-0.5,-0.866L-1.0,0.0L-0.5,0.866L0.5,0.866Z" fill="#fff" fill-rule="nonzero" clip-path="url(#hx)"/></g></g><g transform="translate(742.00,694.72)"><g transform="scale(36)"><path d="M1.0000,0.0000L0.5000,0.8660L-0.5000,0.8660L-1.0000,0.0000L-0.5000,-0.8660L0.5000,-0.8660Z" fill="#000"/></g><g transform="rotate(0) scale(36,36)"><path d="M0.5,0.866L1.0,0.0L0.5,-0.866L-0.5,-0.866L-1.0,0.0L-0.5,0.866L0.5,0.866Z" fill="#fff" fill-rule="nonzero" clip-path="url(#hx)"/></g></g><g transform="translate(742.00,757.07)"><g transform="scale(36)"><path d="M1.0000,0.0000L0.5000,0.8660L-0.5000,0.8660L-1.0000,0.0000L-0.5000,-0.8660L0.5000,-0.8660Z" fill="#fff"/></g><g transform="rotate(0) scale(36,36)"><path d="M0.750,0.433C0.274,0.158 -0.274,0.158 -0.750,0.433" fill="none" stroke="#000" stroke-width="0.34" stroke-linecap="round" stroke-linejoin="round" clip-path="url(#hx)"/></g></g><g transform="translate(742.00,819.42)"><g transform="scale(36)"><path d="M1.0000,0.0000L0.5000,0.8660L-0.5000,0.8660L-1.0000,0.0000L-0.5000,-0.8660L0.5000,-0.8660Z" fill="#fff"/></g><g transform="rotate(0) scale(36,36)"><path d="M0.750,0.433C0.274,0.158 -0.274,0.158 -0.750,0.433" fill="none" stroke="#000" stroke-width="0.34" stroke-linecap="round" stroke-linejoin="round" clip-path="url(#hx)"/></g></g><g transform="translate(742.00,881.78)"><g transform="scale(36)"><path d="M1.0000,0.0000L0.5000,0.8660L-0.5000,0.8660L-1.0000,0.0000L-0.5000,-0.8660L0.5000,-0.8660Z" fill="#000"/></g><g transform="rotate(0) scale(36,36)"><path d="M0.5,0.866L1.0,0.0L0.5,-0.866L-0.5,-0.866L-1.0,0.0L-0.5,0.866L0.5,0.866Z" fill="#fff" fill-rule="nonzero" clip-path="url(#hx)"/></g></g><g transform="translate(796.00,102.35)"><g transform="scale(36)"><path d="M1.0000,0.0000L0.5000,0.8660L-0.5000,0.8660L-1.0000,0.0000L-0.5000,-0.8660L0.5000,-0.8660Z" fill="#000"/></g><g transform="rotate(0) scale(36,36)"><path d="M0.5,0.866L1.0,0.0L0.5,-0.866L-0.5,-0.866L-1.0,0.0L-0.5,0.866L0.5,0.866Z" fill="#fff" fill-rule="nonzero" clip-path="url(#hx)"/></g></g><g transform="translate(796.00,164.71)"><g transform="scale(36)"><path d="M1.0000,0.0000L0.5000,0.8660L-0.5000,0.8660L-1.0000,0.0000L-0.5000,-0.8660L0.5000,-0.8660Z" fill="#000"/></g><g transform="rotate(0) scale(36,36)"><path d="M0.5,0.866L1.0,0.0L0.5,-0.866L-0.5,-0.866L-1.0,0.0L-0.5,0.866L0.5,0.866Z" fill="#fff" fill-rule="nonzero" clip-path="url(#hx)"/></g></g><g transform="translate(796.00,227.06)"><g transform="scale(36)"><path d="M1.0000,0.0000L0.5000,0.8660L-0.5000,0.8660L-1.0000,0.0000L-0.5000,-0.8660L0.5000,-0.8660Z" fill="#000"/></g><g transform="rotate(0) scale(36,36)"><path d="M0.5,0.866L1.0,0.0L0.5,-0.866L-0.5,-0.866L-1.0,0.0L-0.5,0.866L0.5,0.866Z" fill="#fff" fill-rule="nonzero" clip-path="url(#hx)"/></g></g><g transform="translate(796.00,289.42)"><g transform="scale(36)"><path d="M1.0000,0.0000L0.5000,0.8660L-0.5000,0.8660L-1.0000,0.0000L-0.5000,-0.8660L0.5000,-0.8660Z" fill="#000"/></g><g transform="rotate(0) scale(36,36)"><path d="M0.5,0.866L1.0,0.0L0.5,-0.866L-0.5,-0.866L-1.0,0.0L-0.5,0.866L0.5,0.866Z" fill="#fff" fill-rule="nonzero" clip-path="url(#hx)"/></g></g><g transform="translate(796.00,351.77)"><g transform="scale(36)"><path d="M1.0000,0.0000L0.5000,0.8660L-0.5000,0.8660L-1.0000,0.0000L-0.5000,-0.8660L0.5000,-0.8660Z" fill="#000"/></g><g transform="rotate(0) scale(36,36)"><path d="M0.5,0.866L1.0,0.0L0.5,-0.866L-0.5,-0.866L-1.0,0.0L-0.5,0.866L0.5,0.866Z" fill="#fff" fill-rule="nonzero" clip-path="url(#hx)"/></g></g><g transform="translate(796.00,414.12)"><g transform="scale(36)"><path d="M1.0000,0.0000L0.5000,0.8660L-0.5000,0.8660L-1.0000,0.0000L-0.5000,-0.8660L0.5000,-0.8660Z" fill="#000"/></g><g transform="rotate(0) scale(36,36)"><path d="M0.5,0.866L1.0,0.0L0.5,-0.866L-0.5,-0.866L-1.0,0.0L-0.5,0.866L0.5,0.866Z" fill="#fff" fill-rule="nonzero" clip-path="url(#hx)"/></g></g><g transform="translate(796.00,601.18)"><g transform="scale(36)"><path d="M1.0000,0.0000L0.5000,0.8660L-0.5000,0.8660L-1.0000,0.0000L-0.5000,-0.8660L0.5000,-0.8660Z" fill="#000"/></g><g transform="rotate(60) scale(36,36)"><path d="M0.5,0.866L1.0,0.0L0.5,-0.866L-0.5,-0.866L-1.0,0.0L-0.5,0.866L0.5,0.866Z" fill="#fff" fill-rule="nonzero" clip-path="url(#hx)"/></g></g><g transform="translate(796.00,663.54)"><g transform="scale(36)"><path d="M1.0000,0.0000L0.5000,0.8660L-0.5000,0.8660L-1.0000,0.0000L-0.5000,-0.8660L0.5000,-0.8660Z" fill="#000"/></g><g transform="rotate(0) scale(36,36)"><path d="M0.5,0.866L1.0,0.0L0.5,-0.866L-0.5,-0.866L-1.0,0.0L-0.5,0.866L0.5,0.866Z" fill="#fff" fill-rule="nonzero" clip-path="url(#hx)"/></g></g><g transform="translate(796.00,725.89)"><g transform="scale(36)"><path d="M1.0000,0.0000L0.5000,0.8660L-0.5000,0.8660L-1.0000,0.0000L-0.5000,-0.8660L0.5000,-0.8660Z" fill="#000"/></g><g transform="rotate(0) scale(36,36)"><path d="M0.5,0.866L1.0,0.0L0.5,-0.866L-0.5,-0.866L-1.0,0.0L-0.5,0.866L0.5,0.866Z" fill="#fff" fill-rule="nonzero" clip-path="url(#hx)"/></g></g><g transform="translate(796.00,788.25)"><g transform="scale(36)"><path d="M1.0000,0.0000L0.5000,0.8660L-0.5000,0.8660L-1.0000,0.0000L-0.5000,-0.8660L0.5000,-0.8660Z" fill="#000"/></g><g transform="rotate(0) scale(36,36)"><path d="M0.5,0.866L1.0,0.0L0.5,-0.866L-0.5,-0.866L-1.0,0.0L-0.5,0.866L0.5,0.866Z" fill="#fff" fill-rule="nonzero" clip-path="url(#hx)"/></g></g><g transform="translate(796.00,850.60)"><g transform="scale(36)"><path d="M1.0000,0.0000L0.5000,0.8660L-0.5000,0.8660L-1.0000,0.0000L-0.5000,-0.8660L0.5000,-0.8660Z" fill="#000"/></g><g transform="rotate(0) scale(36,36)"><path d="M0.5,0.866L1.0,0.0L0.5,-0.866L-0.5,-0.866L-1.0,0.0L-0.5,0.866L0.5,0.866Z" fill="#fff" fill-rule="nonzero" clip-path="url(#hx)"/></g></g><g transform="translate(796.00,912.95)"><g transform="scale(36)"><path d="M1.0000,0.0000L0.5000,0.8660L-0.5000,0.8660L-1.0000,0.0000L-0.5000,-0.8660L0.5000,-0.8660Z" fill="#000"/></g><g transform="rotate(0) scale(36,36)"><path d="M0.5,0.866L1.0,0.0L0.5,-0.866L-0.5,-0.866L-1.0,0.0L-0.5,0.866L0.5,0.866Z" fill="#fff" fill-rule="nonzero" clip-path="url(#hx)"/></g></g><g transform="translate(850.00,71.18)"><g transform="scale(36)"><path d="M1.0000,0.0000L0.5000,0.8660L-0.5000,0.8660L-1.0000,0.0000L-0.5000,-0.8660L0.5000,-0.8660Z" fill="#000"/></g><g transform="rotate(0) scale(36,36)"><path d="M0.5,0.866L1.0,0.0L0.5,-0.866L-0.5,-0.866L-1.0,0.0L-0.5,0.866L0.5,0.866Z" fill="#fff" fill-rule="nonzero" clip-path="url(#hx)"/></g></g><g transform="translate(850.00,133.53)"><g transform="scale(36)"><path d="M1.0000,0.0000L0.5000,0.8660L-0.5000,0.8660L-1.0000,0.0000L-0.5000,-0.8660L0.5000,-0.8660Z" fill="#000"/></g><g transform="rotate(0) scale(36,36)"><path d="M0.5,0.866L1.0,0.0L0.5,-0.866L-0.5,-0.866L-1.0,0.0L-0.5,0.866L0.5,0.866Z" fill="#fff" fill-rule="nonzero" clip-path="url(#hx)"/></g></g><g transform="translate(850.00,195.88)"><g transform="scale(36)"><path d="M1.0000,0.0000L0.5000,0.8660L-0.5000,0.8660L-1.0000,0.0000L-0.5000,-0.8660L0.5000,-0.8660Z" fill="#fff"/></g><g transform="rotate(0) scale(36,36)"><path d="M0.750,0.433C0.274,0.158 -0.274,0.158 -0.750,0.433" fill="none" stroke="#000" stroke-width="0.34" stroke-linecap="round" stroke-linejoin="round" clip-path="url(#hx)"/></g></g><g transform="translate(850.00,258.24)"><g transform="scale(36)"><path d="M1.0000,0.0000L0.5000,0.8660L-0.5000,0.8660L-1.0000,0.0000L-0.5000,-0.8660L0.5000,-0.8660Z" fill="#fff"/></g><g transform="rotate(0) scale(36,36)"><path d="M0.750,0.433C0.274,0.158 -0.274,0.158 -0.750,0.433" fill="none" stroke="#000" stroke-width="0.34" stroke-linecap="round" stroke-linejoin="round" clip-path="url(#hx)"/></g></g><g transform="translate(850.00,320.59)"><g transform="scale(36)"><path d="M1.0000,0.0000L0.5000,0.8660L-0.5000,0.8660L-1.0000,0.0000L-0.5000,-0.8660L0.5000,-0.8660Z" fill="#fff"/></g><g transform="rotate(0) scale(36,36)"><path d="M0.750,0.433C0.274,0.158 -0.274,0.158 -0.750,0.433" fill="none" stroke="#000" stroke-width="0.34" stroke-linecap="round" stroke-linejoin="round" clip-path="url(#hx)"/></g></g><g transform="translate(850.00,382.95)"><g transform="scale(36)"><path d="M1.0000,0.0000L0.5000,0.8660L-0.5000,0.8660L-1.0000,0.0000L-0.5000,-0.8660L0.5000,-0.8660Z" fill="#fff"/></g><g transform="rotate(0) scale(36,36)"><path d="M0.750,0.433C0.274,0.158 -0.274,0.158 -0.750,0.433" fill="none" stroke="#000" stroke-width="0.34" stroke-linecap="round" stroke-linejoin="round" clip-path="url(#hx)"/></g></g><g transform="translate(850.00,445.30)"><g transform="scale(36)"><path d="M1.0000,0.0000L0.5000,0.8660L-0.5000,0.8660L-1.0000,0.0000L-0.5000,-0.8660L0.5000,-0.8660Z" fill="#000"/></g><g transform="rotate(0) scale(36,36)"><path d="M0.5,0.866L1.0,0.0L0.5,-0.866L-0.5,-0.866L-1.0,0.0L-0.5,0.866L0.5,0.866Z" fill="#fff" fill-rule="nonzero" clip-path="url(#hx)"/></g></g><g transform="translate(850.00,570.01)"><g transform="scale(36)"><path d="M1.0000,0.0000L0.5000,0.8660L-0.5000,0.8660L-1.0000,0.0000L-0.5000,-0.8660L0.5000,-0.8660Z" fill="#000"/></g><g transform="rotate(60) scale(36,36)"><path d="M0.5,0.866L1.0,0.0L0.5,-0.866L-0.5,-0.866L-1.0,0.0L-0.5,0.866L0.5,0.866Z" fill="#fff" fill-rule="nonzero" clip-path="url(#hx)"/></g></g><g transform="translate(850.00,632.36)"><g transform="scale(36)"><path d="M1.0000,0.0000L0.5000,0.8660L-0.5000,0.8660L-1.0000,0.0000L-0.5000,-0.8660L0.5000,-0.8660Z" fill="#000"/></g><g transform="rotate(60) scale(36,36)"><path d="M0.5,0.866L1.0,0.0L0.5,-0.866L-0.5,-0.866L-1.0,0.0L-0.5,0.866L0.5,0.866Z" fill="#fff" fill-rule="nonzero" clip-path="url(#hx)"/></g></g><g transform="translate(850.00,694.72)"><g transform="scale(36)"><path d="M1.0000,0.0000L0.5000,0.8660L-0.5000,0.8660L-1.0000,0.0000L-0.5000,-0.8660L0.5000,-0.8660Z" fill="#000"/></g><g transform="rotate(60) scale(36,36)"><path d="M0.5,0.866L1.0,0.0L0.5,-0.866L-0.5,-0.866L-1.0,0.0L-0.5,0.866L0.5,0.866Z" fill="#fff" fill-rule="nonzero" clip-path="url(#hx)"/></g></g><g transform="translate(850.00,757.07)"><g transform="scale(36)"><path d="M1.0000,0.0000L0.5000,0.8660L-0.5000,0.8660L-1.0000,0.0000L-0.5000,-0.8660L0.5000,-0.8660Z" fill="#fff"/></g><g transform="rotate(0) scale(36,36)"><path d="M0.750,0.433C0.274,0.158 -0.274,0.158 -0.750,0.433" fill="none" stroke="#000" stroke-width="0.34" stroke-linecap="round" stroke-linejoin="round" clip-path="url(#hx)"/></g></g><g transform="translate(850.00,819.42)"><g transform="scale(36)"><path d="M1.0000,0.0000L0.5000,0.8660L-0.5000,0.8660L-1.0000,0.0000L-0.5000,-0.8660L0.5000,-0.8660Z" fill="#fff"/></g><g transform="rotate(0) scale(36,36)"><path d="M0.750,0.433C0.274,0.158 -0.274,0.158 -0.750,0.433" fill="none" stroke="#000" stroke-width="0.34" stroke-linecap="round" stroke-linejoin="round" clip-path="url(#hx)"/></g></g><g transform="translate(850.00,881.78)"><g transform="scale(36)"><path d="M1.0000,0.0000L0.5000,0.8660L-0.5000,0.8660L-1.0000,0.0000L-0.5000,-0.8660L0.5000,-0.8660Z" fill="#000"/></g><g transform="rotate(0) scale(36,36)"><path d="M0.5,0.866L1.0,0.0L0.5,-0.866L-0.5,-0.866L-1.0,0.0L-0.5,0.866L0.5,0.866Z" fill="#fff" fill-rule="nonzero" clip-path="url(#hx)"/></g></g><g transform="translate(904.00,40.00)"><g transform="scale(36)"><path d="M1.0000,0.0000L0.5000,0.8660L-0.5000,0.8660L-1.0000,0.0000L-0.5000,-0.8660L0.5000,-0.8660Z" fill="#000"/></g><g transform="rotate(0) scale(36,36)"><path d="M0.5,0.866L1.0,0.0L0.5,-0.866L-0.5,-0.866L-1.0,0.0L-0.5,0.866L0.5,0.866Z" fill="#fff" fill-rule="nonzero" clip-path="url(#hx)"/></g></g><g transform="translate(904.00,102.35)"><g transform="scale(36)"><path d="M1.0000,0.0000L0.5000,0.8660L-0.5000,0.8660L-1.0000,0.0000L-0.5000,-0.8660L0.5000,-0.8660Z" fill="#000"/></g><g transform="rotate(0) scale(36,36)"><path d="M0.5,0.866L1.0,0.0L0.5,-0.866L-0.5,-0.866L-1.0,0.0L-0.5,0.866L0.5,0.866Z" fill="#fff" fill-rule="nonzero" clip-path="url(#hx)"/></g></g><g transform="translate(904.00,164.71)"><g transform="scale(36)"><path d="M1.0000,0.0000L0.5000,0.8660L-0.5000,0.8660L-1.0000,0.0000L-0.5000,-0.8660L0.5000,-0.8660Z" fill="#fff"/></g><g transform="rotate(0) scale(36,36)"><path d="M0.750,0.433C0.274,0.158 -0.274,0.158 -0.750,0.433" fill="none" stroke="#000" stroke-width="0.34" stroke-linecap="round" stroke-linejoin="round" clip-path="url(#hx)"/></g></g><g transform="translate(904.00,227.06)"><g transform="scale(36)"><path d="M1.0000,0.0000L0.5000,0.8660L-0.5000,0.8660L-1.0000,0.0000L-0.5000,-0.8660L0.5000,-0.8660Z" fill="#000"/></g><g transform="rotate(0) scale(36,36)"><path d="M0.5,0.866L1.0,0.0L0.5,-0.866L-0.5,-0.866L-1.0,0.0L-0.5,0.866L0.5,0.866Z" fill="#fff" fill-rule="nonzero" clip-path="url(#hx)"/></g></g><g transform="translate(904.00,289.42)"><g transform="scale(36)"><path d="M1.0000,0.0000L0.5000,0.8660L-0.5000,0.8660L-1.0000,0.0000L-0.5000,-0.8660L0.5000,-0.8660Z" fill="#fff"/></g><g transform="rotate(0) scale(36,36)"><path d="M0.750,0.433C0.274,0.158 -0.274,0.158 -0.750,0.433" fill="none" stroke="#000" stroke-width="0.34" stroke-linecap="round" stroke-linejoin="round" clip-path="url(#hx)"/></g></g><g transform="translate(904.00,351.77)"><g transform="scale(36)"><path d="M1.0000,0.0000L0.5000,0.8660L-0.5000,0.8660L-1.0000,0.0000L-0.5000,-0.8660L0.5000,-0.8660Z" fill="#000"/></g><g transform="rotate(0) scale(36,36)"><path d="M0.5,0.866L1.0,0.0L0.5,-0.866L-0.5,-0.866L-1.0,0.0L-0.5,0.866L0.5,0.866Z" fill="#fff" fill-rule="nonzero" clip-path="url(#hx)"/></g></g><g transform="translate(904.00,414.12)"><g transform="scale(36)"><path d="M1.0000,0.0000L0.5000,0.8660L-0.5000,0.8660L-1.0000,0.0000L-0.5000,-0.8660L0.5000,-0.8660Z" fill="#fff"/></g><g transform="rotate(0) scale(36,36)"><path d="M0.750,0.433C0.274,0.158 -0.274,0.158 -0.750,0.433" fill="none" stroke="#000" stroke-width="0.34" stroke-linecap="round" stroke-linejoin="round" clip-path="url(#hx)"/></g></g><g transform="translate(904.00,476.48)"><g transform="scale(36)"><path d="M1.0000,0.0000L0.5000,0.8660L-0.5000,0.8660L-1.0000,0.0000L-0.5000,-0.8660L0.5000,-0.8660Z" fill="#000"/></g><g transform="rotate(0) scale(36,36)"><path d="M0.5,0.866L1.0,0.0L0.5,-0.866L-0.5,-0.866L-1.0,0.0L-0.5,0.866L0.5,0.866Z" fill="#fff" fill-rule="nonzero" clip-path="url(#hx)"/></g></g><g transform="translate(904.00,538.83)"><g transform="scale(36)"><path d="M1.0000,0.0000L0.5000,0.8660L-0.5000,0.8660L-1.0000,0.0000L-0.5000,-0.8660L0.5000,-0.8660Z" fill="#000"/></g><g transform="rotate(60) scale(36,36)"><path d="M0.5,0.866L1.0,0.0L0.5,-0.866L-0.5,-0.866L-1.0,0.0L-0.5,0.866L0.5,0.866Z" fill="#fff" fill-rule="nonzero" clip-path="url(#hx)"/></g></g><g transform="translate(904.00,601.18)"><g transform="scale(36)"><path d="M1.0000,0.0000L0.5000,0.8660L-0.5000,0.8660L-1.0000,0.0000L-0.5000,-0.8660L0.5000,-0.8660Z" fill="#000"/></g><g transform="rotate(60) scale(36,36)"><path d="M0.5,0.866L1.0,0.0L0.5,-0.866L-0.5,-0.866L-1.0,0.0L-0.5,0.866L0.5,0.866Z" fill="#fff" fill-rule="nonzero" clip-path="url(#hx)"/></g></g><g transform="translate(904.00,663.54)"><g transform="scale(36)"><path d="M1.0000,0.0000L0.5000,0.8660L-0.5000,0.8660L-1.0000,0.0000L-0.5000,-0.8660L0.5000,-0.8660Z" fill="#fff"/></g><g transform="rotate(0) scale(36,36)"><path d="M0.750,0.433C0.274,0.158 -0.274,0.158 -0.750,0.433" fill="none" stroke="#000" stroke-width="0.34" stroke-linecap="round" stroke-linejoin="round" clip-path="url(#hx)"/></g></g><g transform="translate(904.00,725.89)"><g transform="scale(36)"><path d="M1.0000,0.0000L0.5000,0.8660L-0.5000,0.8660L-1.0000,0.0000L-0.5000,-0.8660L0.5000,-0.8660Z" fill="#fff"/></g><g transform="rotate(0) scale(36,36)"><path d="M0.750,0.433C0.274,0.158 -0.274,0.158 -0.750,0.433" fill="none" stroke="#000" stroke-width="0.34" stroke-linecap="round" stroke-linejoin="round" clip-path="url(#hx)"/></g></g><g transform="translate(904.00,788.25)"><g transform="scale(36)"><path d="M1.0000,0.0000L0.5000,0.8660L-0.5000,0.8660L-1.0000,0.0000L-0.5000,-0.8660L0.5000,-0.8660Z" fill="#000"/></g><g transform="rotate(60) scale(36,36)"><path d="M0.5,0.866L1.0,0.0L0.5,-0.866L-0.5,-0.866L-1.0,0.0L-0.5,0.866L0.5,0.866Z" fill="#fff" fill-rule="nonzero" clip-path="url(#hx)"/></g></g><g transform="translate(904.00,850.60)"><g transform="scale(36)"><path d="M1.0000,0.0000L0.5000,0.8660L-0.5000,0.8660L-1.0000,0.0000L-0.5000,-0.8660L0.5000,-0.8660Z" fill="#000"/></g><g transform="rotate(60) scale(36,36)"><path d="M0.5,0.866L1.0,0.0L0.5,-0.866L-0.5,-0.866L-1.0,0.0L-0.5,0.866L0.5,0.866Z" fill="#fff" fill-rule="nonzero" clip-path="url(#hx)"/></g></g><g transform="translate(904.00,912.95)"><g transform="scale(36)"><path d="M1.0000,0.0000L0.5000,0.8660L-0.5000,0.8660L-1.0000,0.0000L-0.5000,-0.8660L0.5000,-0.8660Z" fill="#000"/></g><g transform="rotate(60) scale(36,36)"><path d="M0.5,0.866L1.0,0.0L0.5,-0.866L-0.5,-0.866L-1.0,0.0L-0.5,0.866L0.5,0.866Z" fill="#fff" fill-rule="nonzero" clip-path="url(#hx)"/></g></g><g transform="translate(958.00,71.18)"><g transform="scale(36)"><path d="M1.0000,0.0000L0.5000,0.8660L-0.5000,0.8660L-1.0000,0.0000L-0.5000,-0.8660L0.5000,-0.8660Z" fill="#000"/></g><g transform="rotate(0) scale(36,36)"><path d="M0.5,0.866L1.0,0.0L0.5,-0.866L-0.5,-0.866L-1.0,0.0L-0.5,0.866L0.5,0.866Z" fill="#fff" fill-rule="nonzero" clip-path="url(#hx)"/></g></g><g transform="translate(958.00,133.53)"><g transform="scale(36)"><path d="M1.0000,0.0000L0.5000,0.8660L-0.5000,0.8660L-1.0000,0.0000L-0.5000,-0.8660L0.5000,-0.8660Z" fill="#000"/></g><g transform="rotate(0) scale(36,36)"><path d="M0.5,0.866L1.0,0.0L0.5,-0.866L-0.5,-0.866L-1.0,0.0L-0.5,0.866L0.5,0.866Z" fill="#fff" fill-rule="nonzero" clip-path="url(#hx)"/></g></g><g transform="translate(958.00,195.88)"><g transform="scale(36)"><path d="M1.0000,0.0000L0.5000,0.8660L-0.5000,0.8660L-1.0000,0.0000L-0.5000,-0.8660L0.5000,-0.8660Z" fill="#fff"/></g><g transform="rotate(0) scale(36,36)"><path d="M0.750,0.433C0.274,0.158 -0.274,0.158 -0.750,0.433" fill="none" stroke="#000" stroke-width="0.34" stroke-linecap="round" stroke-linejoin="round" clip-path="url(#hx)"/></g></g><g transform="translate(958.00,258.24)"><g transform="scale(36)"><path d="M1.0000,0.0000L0.5000,0.8660L-0.5000,0.8660L-1.0000,0.0000L-0.5000,-0.8660L0.5000,-0.8660Z" fill="#fff"/></g><g transform="rotate(0) scale(36,36)"><path d="M0.750,0.433C0.274,0.158 -0.274,0.158 -0.750,0.433" fill="none" stroke="#000" stroke-width="0.34" stroke-linecap="round" stroke-linejoin="round" clip-path="url(#hx)"/></g></g><g transform="translate(958.00,320.59)"><g transform="scale(36)"><path d="M1.0000,0.0000L0.5000,0.8660L-0.5000,0.8660L-1.0000,0.0000L-0.5000,-0.8660L0.5000,-0.8660Z" fill="#fff"/></g><g transform="rotate(0) scale(36,36)"><path d="M0.750,0.433C0.274,0.158 -0.274,0.158 -0.750,0.433" fill="none" stroke="#000" stroke-width="0.34" stroke-linecap="round" stroke-linejoin="round" clip-path="url(#hx)"/></g></g><g transform="translate(958.00,382.95)"><g transform="scale(36)"><path d="M1.0000,0.0000L0.5000,0.8660L-0.5000,0.8660L-1.0000,0.0000L-0.5000,-0.8660L0.5000,-0.8660Z" fill="#fff"/></g><g transform="rotate(0) scale(36,36)"><path d="M0.750,0.433C0.274,0.158 -0.274,0.158 -0.750,0.433" fill="none" stroke="#000" stroke-width="0.34" stroke-linecap="round" stroke-linejoin="round" clip-path="url(#hx)"/></g></g><g transform="translate(958.00,445.30)"><g transform="scale(36)"><path d="M1.0000,0.0000L0.5000,0.8660L-0.5000,0.8660L-1.0000,0.0000L-0.5000,-0.8660L0.5000,-0.8660Z" fill="#000"/></g><g transform="rotate(0) scale(36,36)"><path d="M0.5,0.866L1.0,0.0L0.5,-0.866L-0.5,-0.866L-1.0,0.0L-0.5,0.866L0.5,0.866Z" fill="#fff" fill-rule="nonzero" clip-path="url(#hx)"/></g></g><g transform="translate(958.00,507.65)"><g transform="scale(36)"><path d="M1.0000,0.0000L0.5000,0.8660L-0.5000,0.8660L-1.0000,0.0000L-0.5000,-0.8660L0.5000,-0.8660Z" fill="#000"/></g><g transform="rotate(0) scale(36,36)"><path d="M0.5,0.866L1.0,0.0L0.5,-0.866L-0.5,-0.866L-1.0,0.0L-0.5,0.866L0.5,0.866Z" fill="#fff" fill-rule="nonzero" clip-path="url(#hx)"/></g></g><g transform="translate(958.00,570.01)"><g transform="scale(36)"><path d="M1.0000,0.0000L0.5000,0.8660L-0.5000,0.8660L-1.0000,0.0000L-0.5000,-0.8660L0.5000,-0.8660Z" fill="#000"/></g><g transform="rotate(60) scale(36,36)"><path d="M0.5,0.866L1.0,0.0L0.5,-0.866L-0.5,-0.866L-1.0,0.0L-0.5,0.866L0.5,0.866Z" fill="#fff" fill-rule="nonzero" clip-path="url(#hx)"/></g></g><g transform="translate(958.00,632.36)"><g transform="scale(36)"><path d="M1.0000,0.0000L0.5000,0.8660L-0.5000,0.8660L-1.0000,0.0000L-0.5000,-0.8660L0.5000,-0.8660Z" fill="#fff"/></g><g transform="rotate(0) scale(36,36)"><path d="M0.750,0.433C0.274,0.158 -0.274,0.158 -0.750,0.433" fill="none" stroke="#000" stroke-width="0.34" stroke-linecap="round" stroke-linejoin="round" clip-path="url(#hx)"/></g></g><g transform="translate(958.00,694.72)"><g transform="scale(36)"><path d="M1.0000,0.0000L0.5000,0.8660L-0.5000,0.8660L-1.0000,0.0000L-0.5000,-0.8660L0.5000,-0.8660Z" fill="#000"/></g><g transform="rotate(0) scale(36,36)"><path d="M0.5,0.866L1.0,0.0L0.5,-0.866L-0.5,-0.866L-1.0,0.0L-0.5,0.866L0.5,0.866Z" fill="#fff" fill-rule="nonzero" clip-path="url(#hx)"/></g></g><g transform="translate(958.00,757.07)"><g transform="scale(36)"><path d="M1.0000,0.0000L0.5000,0.8660L-0.5000,0.8660L-1.0000,0.0000L-0.5000,-0.8660L0.5000,-0.8660Z" fill="#000"/></g><g transform="rotate(0) scale(36,36)"><path d="M0.5,0.866L1.0,0.0L0.5,-0.866L-0.5,-0.866L-1.0,0.0L-0.5,0.866L0.5,0.866Z" fill="#fff" fill-rule="nonzero" clip-path="url(#hx)"/></g></g><g transform="translate(958.00,819.42)"><g transform="scale(36)"><path d="M1.0000,0.0000L0.5000,0.8660L-0.5000,0.8660L-1.0000,0.0000L-0.5000,-0.8660L0.5000,-0.8660Z" fill="#000"/></g><g transform="rotate(0) scale(36,36)"><path d="M0.5,0.866L1.0,0.0L0.5,-0.866L-0.5,-0.866L-1.0,0.0L-0.5,0.866L0.5,0.866Z" fill="#fff" fill-rule="nonzero" clip-path="url(#hx)"/></g></g><g transform="translate(958.00,881.78)"><g transform="scale(36)"><path d="M1.0000,0.0000L0.5000,0.8660L-0.5000,0.8660L-1.0000,0.0000L-0.5000,-0.8660L0.5000,-0.8660Z" fill="#000"/></g><g transform="rotate(60) scale(36,36)"><path d="M0.5,0.866L1.0,0.0L0.5,-0.866L-0.5,-0.866L-1.0,0.0L-0.5,0.866L0.5,0.866Z" fill="#fff" fill-rule="nonzero" clip-path="url(#hx)"/></g></g><g transform="translate(958.00,944.13)"><g transform="scale(36)"><path d="M1.0000,0.0000L0.5000,0.8660L-0.5000,0.8660L-1.0000,0.0000L-0.5000,-0.8660L0.5000,-0.8660Z" fill="#000"/></g><g transform="rotate(0) scale(36,36)"><path d="M0.5,0.866L1.0,0.0L0.5,-0.866L-0.5,-0.866L-1.0,0.0L-0.5,0.866L0.5,0.866Z" fill="#fff" fill-rule="nonzero" clip-path="url(#hx)"/></g></g><g transform="translate(1012.00,40.00)"><g transform="scale(36)"><path d="M1.0000,0.0000L0.5000,0.8660L-0.5000,0.8660L-1.0000,0.0000L-0.5000,-0.8660L0.5000,-0.8660Z" fill="#000"/></g><g transform="rotate(0) scale(36,36)"><path d="M0.5,0.866L1.0,0.0L0.5,-0.866L-0.5,-0.866L-1.0,0.0L-0.5,0.866L0.5,0.866Z" fill="#fff" fill-rule="nonzero" clip-path="url(#hx)"/></g></g><g transform="translate(1012.00,102.35)"><g transform="scale(36)"><path d="M1.0000,0.0000L0.5000,0.8660L-0.5000,0.8660L-1.0000,0.0000L-0.5000,-0.8660L0.5000,-0.8660Z" fill="#000"/></g><g transform="rotate(0) scale(36,36)"><path d="M0.5,0.866L1.0,0.0L0.5,-0.866L-0.5,-0.866L-1.0,0.0L-0.5,0.866L0.5,0.866Z" fill="#fff" fill-rule="nonzero" clip-path="url(#hx)"/></g></g><g transform="translate(1012.00,164.71)"><g transform="scale(36)"><path d="M1.0000,0.0000L0.5000,0.8660L-0.5000,0.8660L-1.0000,0.0000L-0.5000,-0.8660L0.5000,-0.8660Z" fill="#000"/></g><g transform="rotate(0) scale(36,36)"><path d="M0.5,0.866L1.0,0.0L0.5,-0.866L-0.5,-0.866L-1.0,0.0L-0.5,0.866L0.5,0.866Z" fill="#fff" fill-rule="nonzero" clip-path="url(#hx)"/></g></g><g transform="translate(1012.00,227.06)"><g transform="scale(36)"><path d="M1.0000,0.0000L0.5000,0.8660L-0.5000,0.8660L-1.0000,0.0000L-0.5000,-0.8660L0.5000,-0.8660Z" fill="#fff"/></g><g transform="rotate(0) scale(36,36)"><path d="M0.750,0.433C0.274,0.158 -0.274,0.158 -0.750,0.433" fill="none" stroke="#000" stroke-width="0.34" stroke-linecap="round" stroke-linejoin="round" clip-path="url(#hx)"/></g></g><g transform="translate(1012.00,289.42)"><g transform="scale(36)"><path d="M1.0000,0.0000L0.5000,0.8660L-0.5000,0.8660L-1.0000,0.0000L-0.5000,-0.8660L0.5000,-0.8660Z" fill="#000"/></g><g transform="rotate(0) scale(36,36)"><path d="M0.5,0.866L1.0,0.0L0.5,-0.866L-0.5,-0.866L-1.0,0.0L-0.5,0.866L0.5,0.866Z" fill="#fff" fill-rule="nonzero" clip-path="url(#hx)"/></g></g><g transform="translate(1012.00,351.77)"><g transform="scale(36)"><path d="M1.0000,0.0000L0.5000,0.8660L-0.5000,0.8660L-1.0000,0.0000L-0.5000,-0.8660L0.5000,-0.8660Z" fill="#fff"/></g><g transform="rotate(0) scale(36,36)"><path d="M0.750,0.433C0.274,0.158 -0.274,0.158 -0.750,0.433" fill="none" stroke="#000" stroke-width="0.34" stroke-linecap="round" stroke-linejoin="round" clip-path="url(#hx)"/></g></g><g transform="translate(1012.00,414.12)"><g transform="scale(36)"><path d="M1.0000,0.0000L0.5000,0.8660L-0.5000,0.8660L-1.0000,0.0000L-0.5000,-0.8660L0.5000,-0.8660Z" fill="#000"/></g><g transform="rotate(0) scale(36,36)"><path d="M0.5,0.866L1.0,0.0L0.5,-0.866L-0.5,-0.866L-1.0,0.0L-0.5,0.866L0.5,0.866Z" fill="#fff" fill-rule="nonzero" clip-path="url(#hx)"/></g></g><g transform="translate(1012.00,476.48)"><g transform="scale(36)"><path d="M1.0000,0.0000L0.5000,0.8660L-0.5000,0.8660L-1.0000,0.0000L-0.5000,-0.8660L0.5000,-0.8660Z" fill="#000"/></g><g transform="rotate(0) scale(36,36)"><path d="M0.5,0.866L1.0,0.0L0.5,-0.866L-0.5,-0.866L-1.0,0.0L-0.5,0.866L0.5,0.866Z" fill="#fff" fill-rule="nonzero" clip-path="url(#hx)"/></g></g><g transform="translate(1012.00,538.83)"><g transform="scale(36)"><path d="M1.0000,0.0000L0.5000,0.8660L-0.5000,0.8660L-1.0000,0.0000L-0.5000,-0.8660L0.5000,-0.8660Z" fill="#000"/></g><g transform="rotate(60) scale(36,36)"><path d="M0.5,0.866L1.0,0.0L0.5,-0.866L-0.5,-0.866L-1.0,0.0L-0.5,0.866L0.5,0.866Z" fill="#fff" fill-rule="nonzero" clip-path="url(#hx)"/></g></g><g transform="translate(1012.00,601.18)"><g transform="scale(36)"><path d="M1.0000,0.0000L0.5000,0.8660L-0.5000,0.8660L-1.0000,0.0000L-0.5000,-0.8660L0.5000,-0.8660Z" fill="#000"/></g><g transform="rotate(0) scale(36,36)"><path d="M0.5,0.866L1.0,0.0L0.5,-0.866L-0.5,-0.866L-1.0,0.0L-0.5,0.866L0.5,0.866Z" fill="#fff" fill-rule="nonzero" clip-path="url(#hx)"/></g></g><g transform="translate(1012.00,663.54)"><g transform="scale(36)"><path d="M1.0000,0.0000L0.5000,0.8660L-0.5000,0.8660L-1.0000,0.0000L-0.5000,-0.8660L0.5000,-0.8660Z" fill="#fff"/></g><g transform="rotate(0) scale(36,36)"><path d="M0.750,0.433C0.274,0.158 -0.274,0.158 -0.750,0.433" fill="none" stroke="#000" stroke-width="0.34" stroke-linecap="round" stroke-linejoin="round" clip-path="url(#hx)"/></g></g><g transform="translate(1012.00,725.89)"><g transform="scale(36)"><path d="M1.0000,0.0000L0.5000,0.8660L-0.5000,0.8660L-1.0000,0.0000L-0.5000,-0.8660L0.5000,-0.8660Z" fill="#fff"/></g><g transform="rotate(0) scale(36,36)"><path d="M0.750,0.433C0.274,0.158 -0.274,0.158 -0.750,0.433" fill="none" stroke="#000" stroke-width="0.34" stroke-linecap="round" stroke-linejoin="round" clip-path="url(#hx)"/></g></g><g transform="translate(1012.00,788.25)"><g transform="scale(36)"><path d="M1.0000,0.0000L0.5000,0.8660L-0.5000,0.8660L-1.0000,0.0000L-0.5000,-0.8660L0.5000,-0.8660Z" fill="#000"/></g><g transform="rotate(0) scale(36,36)"><path d="M0.5,0.866L1.0,0.0L0.5,-0.866L-0.5,-0.866L-1.0,0.0L-0.5,0.866L0.5,0.866Z" fill="#fff" fill-rule="nonzero" clip-path="url(#hx)"/></g></g><g transform="translate(1012.00,850.60)"><g transform="scale(36)"><path d="M1.0000,0.0000L0.5000,0.8660L-0.5000,0.8660L-1.0000,0.0000L-0.5000,-0.8660L0.5000,-0.8660Z" fill="#000"/></g><g transform="rotate(0) scale(36,36)"><path d="M0.5,0.866L1.0,0.0L0.5,-0.866L-0.5,-0.866L-1.0,0.0L-0.5,0.866L0.5,0.866Z" fill="#fff" fill-rule="nonzero" clip-path="url(#hx)"/></g></g><g transform="translate(1012.00,912.95)"><g transform="scale(36)"><path d="M1.0000,0.0000L0.5000,0.8660L-0.5000,0.8660L-1.0000,0.0000L-0.5000,-0.8660L0.5000,-0.8660Z" fill="#000"/></g><g transform="rotate(0) scale(36,36)"><path d="M0.5,0.866L1.0,0.0L0.5,-0.866L-0.5,-0.866L-1.0,0.0L-0.5,0.866L0.5,0.866Z" fill="#fff" fill-rule="nonzero" clip-path="url(#hx)"/></g></g><g transform="translate(1012.00,975.31)"><g transform="scale(36)"><path d="M1.0000,0.0000L0.5000,0.8660L-0.5000,0.8660L-1.0000,0.0000L-0.5000,-0.8660L0.5000,-0.8660Z" fill="#000"/></g><g transform="rotate(0) scale(36,36)"><path d="M0.5,0.866L1.0,0.0L0.5,-0.866L-0.5,-0.866L-1.0,0.0L-0.5,0.866L0.5,0.866Z" fill="#fff" fill-rule="nonzero" clip-path="url(#hx)"/></g></g><g transform="translate(1066.00,133.53)"><g transform="scale(36)"><path d="M1.0000,0.0000L0.5000,0.8660L-0.5000,0.8660L-1.0000,0.0000L-0.5000,-0.8660L0.5000,-0.8660Z" fill="#000"/></g><g transform="rotate(0) scale(36,36)"><path d="M0.5,0.866L1.0,0.0L0.5,-0.866L-0.5,-0.866L-1.0,0.0L-0.5,0.866L0.5,0.866Z" fill="#fff" fill-rule="nonzero" clip-path="url(#hx)"/></g></g><g transform="translate(1066.00,195.88)"><g transform="scale(36)"><path d="M1.0000,0.0000L0.5000,0.8660L-0.5000,0.8660L-1.0000,0.0000L-0.5000,-0.8660L0.5000,-0.8660Z" fill="#000"/></g><g transform="rotate(0) scale(36,36)"><path d="M0.5,0.866L1.0,0.0L0.5,-0.866L-0.5,-0.866L-1.0,0.0L-0.5,0.866L0.5,0.866Z" fill="#fff" fill-rule="nonzero" clip-path="url(#hx)"/></g></g><g transform="translate(1066.00,258.24)"><g transform="scale(36)"><path d="M1.0000,0.0000L0.5000,0.8660L-0.5000,0.8660L-1.0000,0.0000L-0.5000,-0.8660L0.5000,-0.8660Z" fill="#000"/></g><g transform="rotate(0) scale(36,36)"><path d="M0.5,0.866L1.0,0.0L0.5,-0.866L-0.5,-0.866L-1.0,0.0L-0.5,0.866L0.5,0.866Z" fill="#fff" fill-rule="nonzero" clip-path="url(#hx)"/></g></g><g transform="translate(1066.00,320.59)"><g transform="scale(36)"><path d="M1.0000,0.0000L0.5000,0.8660L-0.5000,0.8660L-1.0000,0.0000L-0.5000,-0.8660L0.5000,-0.8660Z" fill="#000"/></g><g transform="rotate(0) scale(36,36)"><path d="M0.5,0.866L1.0,0.0L0.5,-0.866L-0.5,-0.866L-1.0,0.0L-0.5,0.866L0.5,0.866Z" fill="#fff" fill-rule="nonzero" clip-path="url(#hx)"/></g></g><g transform="translate(1066.00,382.95)"><g transform="scale(36)"><path d="M1.0000,0.0000L0.5000,0.8660L-0.5000,0.8660L-1.0000,0.0000L-0.5000,-0.8660L0.5000,-0.8660Z" fill="#000"/></g><g transform="rotate(0) scale(36,36)"><path d="M0.5,0.866L1.0,0.0L0.5,-0.866L-0.5,-0.866L-1.0,0.0L-0.5,0.866L0.5,0.866Z" fill="#fff" fill-rule="nonzero" clip-path="url(#hx)"/></g></g><g transform="translate(1066.00,445.30)"><g transform="scale(36)"><path d="M1.0000,0.0000L0.5000,0.8660L-0.5000,0.8660L-1.0000,0.0000L-0.5000,-0.8660L0.5000,-0.8660Z" fill="#000"/></g><g transform="rotate(0) scale(36,36)"><path d="M0.5,0.866L1.0,0.0L0.5,-0.866L-0.5,-0.866L-1.0,0.0L-0.5,0.866L0.5,0.866Z" fill="#fff" fill-rule="nonzero" clip-path="url(#hx)"/></g></g><g transform="translate(1066.00,507.65)"><g transform="scale(36)"><path d="M1.0000,0.0000L0.5000,0.8660L-0.5000,0.8660L-1.0000,0.0000L-0.5000,-0.8660L0.5000,-0.8660Z" fill="#000"/></g><g transform="rotate(0) scale(36,36)"><path d="M0.5,0.866L1.0,0.0L0.5,-0.866L-0.5,-0.866L-1.0,0.0L-0.5,0.866L0.5,0.866Z" fill="#fff" fill-rule="nonzero" clip-path="url(#hx)"/></g></g><g transform="translate(1066.00,570.01)"><g transform="scale(36)"><path d="M1.0000,0.0000L0.5000,0.8660L-0.5000,0.8660L-1.0000,0.0000L-0.5000,-0.8660L0.5000,-0.8660Z" fill="#000"/></g><g transform="rotate(60) scale(36,36)"><path d="M0.5,0.866L1.0,0.0L0.5,-0.866L-0.5,-0.866L-1.0,0.0L-0.5,0.866L0.5,0.866Z" fill="#fff" fill-rule="nonzero" clip-path="url(#hx)"/></g></g><g transform="translate(1066.00,632.36)"><g transform="scale(36)"><path d="M1.0000,0.0000L0.5000,0.8660L-0.5000,0.8660L-1.0000,0.0000L-0.5000,-0.8660L0.5000,-0.8660Z" fill="#fff"/></g><g transform="rotate(0) scale(36,36)"><path d="M0.750,0.433C0.274,0.158 -0.274,0.158 -0.750,0.433" fill="none" stroke="#000" stroke-width="0.34" stroke-linecap="round" stroke-linejoin="round" clip-path="url(#hx)"/></g></g><g transform="translate(1066.00,694.72)"><g transform="scale(36)"><path d="M1.0000,0.0000L0.5000,0.8660L-0.5000,0.8660L-1.0000,0.0000L-0.5000,-0.8660L0.5000,-0.8660Z" fill="#000"/></g><g transform="rotate(0) scale(36,36)"><path d="M0.5,0.866L1.0,0.0L0.5,-0.866L-0.5,-0.866L-1.0,0.0L-0.5,0.866L0.5,0.866Z" fill="#fff" fill-rule="nonzero" clip-path="url(#hx)"/></g></g><g transform="translate(1066.00,757.07)"><g transform="scale(36)"><path d="M1.0000,0.0000L0.5000,0.8660L-0.5000,0.8660L-1.0000,0.0000L-0.5000,-0.8660L0.5000,-0.8660Z" fill="#000"/></g><g transform="rotate(0) scale(36,36)"><path d="M0.5,0.866L1.0,0.0L0.5,-0.866L-0.5,-0.866L-1.0,0.0L-0.5,0.866L0.5,0.866Z" fill="#fff" fill-rule="nonzero" clip-path="url(#hx)"/></g></g><g transform="translate(1066.00,819.42)"><g transform="scale(36)"><path d="M1.0000,0.0000L0.5000,0.8660L-0.5000,0.8660L-1.0000,0.0000L-0.5000,-0.8660L0.5000,-0.8660Z" fill="#000"/></g><g transform="rotate(0) scale(36,36)"><path d="M0.5,0.866L1.0,0.0L0.5,-0.866L-0.5,-0.866L-1.0,0.0L-0.5,0.866L0.5,0.866Z" fill="#fff" fill-rule="nonzero" clip-path="url(#hx)"/></g></g><g transform="translate(1066.00,881.78)"><g transform="scale(36)"><path d="M1.0000,0.0000L0.5000,0.8660L-0.5000,0.8660L-1.0000,0.0000L-0.5000,-0.8660L0.5000,-0.8660Z" fill="#000"/></g><g transform="rotate(0) scale(36,36)"><path d="M0.5,0.866L1.0,0.0L0.5,-0.866L-0.5,-0.866L-1.0,0.0L-0.5,0.866L0.5,0.866Z" fill="#fff" fill-rule="nonzero" clip-path="url(#hx)"/></g></g><g transform="translate(1066.00,944.13)"><g transform="scale(36)"><path d="M1.0000,0.0000L0.5000,0.8660L-0.5000,0.8660L-1.0000,0.0000L-0.5000,-0.8660L0.5000,-0.8660Z" fill="#000"/></g><g transform="rotate(0) scale(36,36)"><path d="M0.5,0.866L1.0,0.0L0.5,-0.866L-0.5,-0.866L-1.0,0.0L-0.5,0.866L0.5,0.866Z" fill="#fff" fill-rule="nonzero" clip-path="url(#hx)"/></g></g><g transform="translate(1120.00,351.77)"><g transform="scale(36)"><path d="M1.0000,0.0000L0.5000,0.8660L-0.5000,0.8660L-1.0000,0.0000L-0.5000,-0.8660L0.5000,-0.8660Z" fill="#000"/></g><g transform="rotate(0) scale(36,36)"><path d="M0.5,0.866L1.0,0.0L0.5,-0.866L-0.5,-0.866L-1.0,0.0L-0.5,0.866L0.5,0.866Z" fill="#fff" fill-rule="nonzero" clip-path="url(#hx)"/></g></g><g transform="translate(1120.00,414.12)"><g transform="scale(36)"><path d="M1.0000,0.0000L0.5000,0.8660L-0.5000,0.8660L-1.0000,0.0000L-0.5000,-0.8660L0.5000,-0.8660Z" fill="#000"/></g><g transform="rotate(0) scale(36,36)"><path d="M0.5,0.866L1.0,0.0L0.5,-0.866L-0.5,-0.866L-1.0,0.0L-0.5,0.866L0.5,0.866Z" fill="#fff" fill-rule="nonzero" clip-path="url(#hx)"/></g></g><g transform="translate(1120.00,476.48)"><g transform="scale(36)"><path d="M1.0000,0.0000L0.5000,0.8660L-0.5000,0.8660L-1.0000,0.0000L-0.5000,-0.8660L0.5000,-0.8660Z" fill="#000"/></g><g transform="rotate(0) scale(36,36)"><path d="M0.5,0.866L1.0,0.0L0.5,-0.866L-0.5,-0.866L-1.0,0.0L-0.5,0.866L0.5,0.866Z" fill="#fff" fill-rule="nonzero" clip-path="url(#hx)"/></g></g><g transform="translate(1120.00,538.83)"><g transform="scale(36)"><path d="M1.0000,0.0000L0.5000,0.8660L-0.5000,0.8660L-1.0000,0.0000L-0.5000,-0.8660L0.5000,-0.8660Z" fill="#000"/></g><g transform="rotate(60) scale(36,36)"><path d="M0.5,0.866L1.0,0.0L0.5,-0.866L-0.5,-0.866L-1.0,0.0L-0.5,0.866L0.5,0.866Z" fill="#fff" fill-rule="nonzero" clip-path="url(#hx)"/></g></g><g transform="translate(1120.00,601.18)"><g transform="scale(36)"><path d="M1.0000,0.0000L0.5000,0.8660L-0.5000,0.8660L-1.0000,0.0000L-0.5000,-0.8660L0.5000,-0.8660Z" fill="#000"/></g><g transform="rotate(0) scale(36,36)"><path d="M0.5,0.866L1.0,0.0L0.5,-0.866L-0.5,-0.866L-1.0,0.0L-0.5,0.866L0.5,0.866Z" fill="#fff" fill-rule="nonzero" clip-path="url(#hx)"/></g></g><g transform="translate(1120.00,663.54)"><g transform="scale(36)"><path d="M1.0000,0.0000L0.5000,0.8660L-0.5000,0.8660L-1.0000,0.0000L-0.5000,-0.8660L0.5000,-0.8660Z" fill="#fff"/></g><g transform="rotate(0) scale(36,36)"><path d="M0.750,0.433C0.274,0.158 -0.274,0.158 -0.750,0.433" fill="none" stroke="#000" stroke-width="0.34" stroke-linecap="round" stroke-linejoin="round" clip-path="url(#hx)"/></g></g><g transform="translate(1120.00,725.89)"><g transform="scale(36)"><path d="M1.0000,0.0000L0.5000,0.8660L-0.5000,0.8660L-1.0000,0.0000L-0.5000,-0.8660L0.5000,-0.8660Z" fill="#fff"/></g><g transform="rotate(0) scale(36,36)"><path d="M0.750,0.433C0.274,0.158 -0.274,0.158 -0.750,0.433" fill="none" stroke="#000" stroke-width="0.34" stroke-linecap="round" stroke-linejoin="round" clip-path="url(#hx)"/></g></g><g transform="translate(1120.00,788.25)"><g transform="scale(36)"><path d="M1.0000,0.0000L0.5000,0.8660L-0.5000,0.8660L-1.0000,0.0000L-0.5000,-0.8660L0.5000,-0.8660Z" fill="#000"/></g><g transform="rotate(0) scale(36,36)"><path d="M0.5,0.866L1.0,0.0L0.5,-0.866L-0.5,-0.866L-1.0,0.0L-0.5,0.866L0.5,0.866Z" fill="#fff" fill-rule="nonzero" clip-path="url(#hx)"/></g></g><g transform="translate(1120.00,850.60)"><g transform="scale(36)"><path d="M1.0000,0.0000L0.5000,0.8660L-0.5000,0.8660L-1.0000,0.0000L-0.5000,-0.8660L0.5000,-0.8660Z" fill="#000"/></g><g transform="rotate(0) scale(36,36)"><path d="M0.5,0.866L1.0,0.0L0.5,-0.866L-0.5,-0.866L-1.0,0.0L-0.5,0.866L0.5,0.866Z" fill="#fff" fill-rule="nonzero" clip-path="url(#hx)"/></g></g><g transform="translate(1120.00,912.95)"><g transform="scale(36)"><path d="M1.0000,0.0000L0.5000,0.8660L-0.5000,0.8660L-1.0000,0.0000L-0.5000,-0.8660L0.5000,-0.8660Z" fill="#000"/></g><g transform="rotate(0) scale(36,36)"><path d="M0.5,0.866L1.0,0.0L0.5,-0.866L-0.5,-0.866L-1.0,0.0L-0.5,0.866L0.5,0.866Z" fill="#fff" fill-rule="nonzero" clip-path="url(#hx)"/></g></g><g transform="translate(1174.00,570.01)"><g transform="scale(36)"><path d="M1.0000,0.0000L0.5000,0.8660L-0.5000,0.8660L-1.0000,0.0000L-0.5000,-0.8660L0.5000,-0.8660Z" fill="#000"/></g><g transform="rotate(60) scale(36,36)"><path d="M0.5,0.866L1.0,0.0L0.5,-0.866L-0.5,-0.866L-1.0,0.0L-0.5,0.866L0.5,0.866Z" fill="#fff" fill-rule="nonzero" clip-path="url(#hx)"/></g></g><g transform="translate(1174.00,632.36)"><g transform="scale(36)"><path d="M1.0000,0.0000L0.5000,0.8660L-0.5000,0.8660L-1.0000,0.0000L-0.5000,-0.8660L0.5000,-0.8660Z" fill="#000"/></g><g transform="rotate(0) scale(36,36)"><path d="M0.5,0.866L1.0,0.0L0.5,-0.866L-0.5,-0.866L-1.0,0.0L-0.5,0.866L0.5,0.866Z" fill="#fff" fill-rule="nonzero" clip-path="url(#hx)"/></g></g><g transform="translate(1174.00,694.72)"><g transform="scale(36)"><path d="M1.0000,0.0000L0.5000,0.8660L-0.5000,0.8660L-1.0000,0.0000L-0.5000,-0.8660L0.5000,-0.8660Z" fill="#000"/></g><g transform="rotate(0) scale(36,36)"><path d="M0.5,0.866L1.0,0.0L0.5,-0.866L-0.5,-0.866L-1.0,0.0L-0.5,0.866L0.5,0.866Z" fill="#fff" fill-rule="nonzero" clip-path="url(#hx)"/></g></g><g transform="translate(1174.00,757.07)"><g transform="scale(36)"><path d="M1.0000,0.0000L0.5000,0.8660L-0.5000,0.8660L-1.0000,0.0000L-0.5000,-0.8660L0.5000,-0.8660Z" fill="#fff"/></g><g transform="rotate(0) scale(36,36)"><path d="M0.750,0.433C0.274,0.158 -0.274,0.158 -0.750,0.433" fill="none" stroke="#000" stroke-width="0.34" stroke-linecap="round" stroke-linejoin="round" clip-path="url(#hx)"/></g></g><g transform="translate(1174.00,819.42)"><g transform="scale(36)"><path d="M1.0000,0.0000L0.5000,0.8660L-0.5000,0.8660L-1.0000,0.0000L-0.5000,-0.8660L0.5000,-0.8660Z" fill="#fff"/></g><g transform="rotate(0) scale(36,36)"><path d="M0.750,0.433C0.274,0.158 -0.274,0.158 -0.750,0.433" fill="none" stroke="#000" stroke-width="0.34" stroke-linecap="round" stroke-linejoin="round" clip-path="url(#hx)"/></g></g><g transform="translate(1174.00,881.78)"><g transform="scale(36)"><path d="M1.0000,0.0000L0.5000,0.8660L-0.5000,0.8660L-1.0000,0.0000L-0.5000,-0.8660L0.5000,-0.8660Z" fill="#000"/></g><g transform="rotate(0) scale(36,36)"><path d="M0.5,0.866L1.0,0.0L0.5,-0.866L-0.5,-0.866L-1.0,0.0L-0.5,0.866L0.5,0.866Z" fill="#fff" fill-rule="nonzero" clip-path="url(#hx)"/></g></g><g transform="translate(1228.00,601.18)"><g transform="scale(36)"><path d="M1.0000,0.0000L0.5000,0.8660L-0.5000,0.8660L-1.0000,0.0000L-0.5000,-0.8660L0.5000,-0.8660Z" fill="#000"/></g><g transform="rotate(60) scale(36,36)"><path d="M0.5,0.866L1.0,0.0L0.5,-0.866L-0.5,-0.866L-1.0,0.0L-0.5,0.866L0.5,0.866Z" fill="#fff" fill-rule="nonzero" clip-path="url(#hx)"/></g></g><g transform="translate(1228.00,663.54)"><g transform="scale(36)"><path d="M1.0000,0.0000L0.5000,0.8660L-0.5000,0.8660L-1.0000,0.0000L-0.5000,-0.8660L0.5000,-0.8660Z" fill="#000"/></g><g transform="rotate(60) scale(36,36)"><path d="M0.5,0.866L1.0,0.0L0.5,-0.866L-0.5,-0.866L-1.0,0.0L-0.5,0.866L0.5,0.866Z" fill="#fff" fill-rule="nonzero" clip-path="url(#hx)"/></g></g><g transform="translate(1228.00,725.89)"><g transform="scale(36)"><path d="M1.0000,0.0000L0.5000,0.8660L-0.5000,0.8660L-1.0000,0.0000L-0.5000,-0.8660L0.5000,-0.8660Z" fill="#000"/></g><g transform="rotate(60) scale(36,36)"><path d="M0.5,0.866L1.0,0.0L0.5,-0.866L-0.5,-0.866L-1.0,0.0L-0.5,0.866L0.5,0.866Z" fill="#fff" fill-rule="nonzero" clip-path="url(#hx)"/></g></g><g transform="translate(1228.00,788.25)"><g transform="scale(36)"><path d="M1.0000,0.0000L0.5000,0.8660L-0.5000,0.8660L-1.0000,0.0000L-0.5000,-0.8660L0.5000,-0.8660Z" fill="#000"/></g><g transform="rotate(0) scale(36,36)"><path d="M0.5,0.866L1.0,0.0L0.5,-0.866L-0.5,-0.866L-1.0,0.0L-0.5,0.866L0.5,0.866Z" fill="#fff" fill-rule="nonzero" clip-path="url(#hx)"/></g></g><g transform="translate(1228.00,850.60)"><g transform="scale(36)"><path d="M1.0000,0.0000L0.5000,0.8660L-0.5000,0.8660L-1.0000,0.0000L-0.5000,-0.8660L0.5000,-0.8660Z" fill="#000"/></g><g transform="rotate(0) scale(36,36)"><path d="M0.5,0.866L1.0,0.0L0.5,-0.866L-0.5,-0.866L-1.0,0.0L-0.5,0.866L0.5,0.866Z" fill="#fff" fill-rule="nonzero" clip-path="url(#hx)"/></g></g><g transform="translate(1228.00,912.95)"><g transform="scale(36)"><path d="M1.0000,0.0000L0.5000,0.8660L-0.5000,0.8660L-1.0000,0.0000L-0.5000,-0.8660L0.5000,-0.8660Z" fill="#000"/></g><g transform="rotate(0) scale(36,36)"><path d="M0.5,0.866L1.0,0.0L0.5,-0.866L-0.5,-0.866L-1.0,0.0L-0.5,0.866L0.5,0.866Z" fill="#fff" fill-rule="nonzero" clip-path="url(#hx)"/></g></g><g transform="translate(1282.00,570.01)"><g transform="scale(36)"><path d="M1.0000,0.0000L0.5000,0.8660L-0.5000,0.8660L-1.0000,0.0000L-0.5000,-0.8660L0.5000,-0.8660Z" fill="#000"/></g><g transform="rotate(60) scale(36,36)"><path d="M0.5,0.866L1.0,0.0L0.5,-0.866L-0.5,-0.866L-1.0,0.0L-0.5,0.866L0.5,0.866Z" fill="#fff" fill-rule="nonzero" clip-path="url(#hx)"/></g></g><g transform="translate(1282.00,632.36)"><g transform="scale(36)"><path d="M1.0000,0.0000L0.5000,0.8660L-0.5000,0.8660L-1.0000,0.0000L-0.5000,-0.8660L0.5000,-0.8660Z" fill="#fff"/></g><g transform="rotate(0) scale(36,36)"><path d="M0.750,0.433C0.274,0.158 -0.274,0.158 -0.750,0.433" fill="none" stroke="#000" stroke-width="0.34" stroke-linecap="round" stroke-linejoin="round" clip-path="url(#hx)"/></g></g><g transform="translate(1282.00,694.72)"><g transform="scale(36)"><path d="M1.0000,0.0000L0.5000,0.8660L-0.5000,0.8660L-1.0000,0.0000L-0.5000,-0.8660L0.5000,-0.8660Z" fill="#fff"/></g><g transform="rotate(0) scale(36,36)"><path d="M0.750,0.433C0.274,0.158 -0.274,0.158 -0.750,0.433" fill="none" stroke="#000" stroke-width="0.34" stroke-linecap="round" stroke-linejoin="round" clip-path="url(#hx)"/></g></g><g transform="translate(1282.00,757.07)"><g transform="scale(36)"><path d="M1.0000,0.0000L0.5000,0.8660L-0.5000,0.8660L-1.0000,0.0000L-0.5000,-0.8660L0.5000,-0.8660Z" fill="#fff"/></g><g transform="rotate(0) scale(36,36)"><path d="M0.750,0.433C0.274,0.158 -0.274,0.158 -0.750,0.433" fill="none" stroke="#000" stroke-width="0.34" stroke-linecap="round" stroke-linejoin="round" clip-path="url(#hx)"/></g></g><g transform="translate(1282.00,819.42)"><g transform="scale(36)"><path d="M1.0000,0.0000L0.5000,0.8660L-0.5000,0.8660L-1.0000,0.0000L-0.5000,-0.8660L0.5000,-0.8660Z" fill="#fff"/></g><g transform="rotate(0) scale(36,36)"><path d="M0.750,0.433C0.274,0.158 -0.274,0.158 -0.750,0.433" fill="none" stroke="#000" stroke-width="0.34" stroke-linecap="round" stroke-linejoin="round" clip-path="url(#hx)"/></g></g><g transform="translate(1282.00,881.78)"><g transform="scale(36)"><path d="M1.0000,0.0000L0.5000,0.8660L-0.5000,0.8660L-1.0000,0.0000L-0.5000,-0.8660L0.5000,-0.8660Z" fill="#000"/></g><g transform="rotate(0) scale(36,36)"><path d="M0.5,0.866L1.0,0.0L0.5,-0.866L-0.5,-0.866L-1.0,0.0L-0.5,0.866L0.5,0.866Z" fill="#fff" fill-rule="nonzero" clip-path="url(#hx)"/></g></g><g transform="translate(1336.00,601.18)"><g transform="scale(36)"><path d="M1.0000,0.0000L0.5000,0.8660L-0.5000,0.8660L-1.0000,0.0000L-0.5000,-0.8660L0.5000,-0.8660Z" fill="#000"/></g><g transform="rotate(60) scale(36,36)"><path d="M0.5,0.866L1.0,0.0L0.5,-0.866L-0.5,-0.866L-1.0,0.0L-0.5,0.866L0.5,0.866Z" fill="#fff" fill-rule="nonzero" clip-path="url(#hx)"/></g></g><g transform="translate(1336.00,663.54)"><g transform="scale(36)"><path d="M1.0000,0.0000L0.5000,0.8660L-0.5000,0.8660L-1.0000,0.0000L-0.5000,-0.8660L0.5000,-0.8660Z" fill="#000"/></g><g transform="rotate(60) scale(36,36)"><path d="M0.5,0.866L1.0,0.0L0.5,-0.866L-0.5,-0.866L-1.0,0.0L-0.5,0.866L0.5,0.866Z" fill="#fff" fill-rule="nonzero" clip-path="url(#hx)"/></g></g><g transform="translate(1336.00,725.89)"><g transform="scale(36)"><path d="M1.0000,0.0000L0.5000,0.8660L-0.5000,0.8660L-1.0000,0.0000L-0.5000,-0.8660L0.5000,-0.8660Z" fill="#000"/></g><g transform="rotate(60) scale(36,36)"><path d="M0.5,0.866L1.0,0.0L0.5,-0.866L-0.5,-0.866L-1.0,0.0L-0.5,0.866L0.5,0.866Z" fill="#fff" fill-rule="nonzero" clip-path="url(#hx)"/></g></g><g transform="translate(1336.00,788.25)"><g transform="scale(36)"><path d="M1.0000,0.0000L0.5000,0.8660L-0.5000,0.8660L-1.0000,0.0000L-0.5000,-0.8660L0.5000,-0.8660Z" fill="#000"/></g><g transform="rotate(0) scale(36,36)"><path d="M0.5,0.866L1.0,0.0L0.5,-0.866L-0.5,-0.866L-1.0,0.0L-0.5,0.866L0.5,0.866Z" fill="#fff" fill-rule="nonzero" clip-path="url(#hx)"/></g></g><g transform="translate(1336.00,850.60)"><g transform="scale(36)"><path d="M1.0000,0.0000L0.5000,0.8660L-0.5000,0.8660L-1.0000,0.0000L-0.5000,-0.8660L0.5000,-0.8660Z" fill="#000"/></g><g transform="rotate(60) scale(36,36)"><path d="M0.5,0.866L1.0,0.0L0.5,-0.866L-0.5,-0.866L-1.0,0.0L-0.5,0.866L0.5,0.866Z" fill="#fff" fill-rule="nonzero" clip-path="url(#hx)"/></g></g><g transform="translate(1390.00,757.07)"><g transform="scale(36)"><path d="M1.0000,0.0000L0.5000,0.8660L-0.5000,0.8660L-1.0000,0.0000L-0.5000,-0.8660L0.5000,-0.8660Z" fill="#000"/></g><g transform="rotate(60) scale(36,36)"><path d="M0.5,0.866L1.0,0.0L0.5,-0.866L-0.5,-0.866L-1.0,0.0L-0.5,0.866L0.5,0.866Z" fill="#fff" fill-rule="nonzero" clip-path="url(#hx)"/></g></g><g transform="translate(1390.00,819.42)"><g transform="scale(36)"><path d="M1.0000,0.0000L0.5000,0.8660L-0.5000,0.8660L-1.0000,0.0000L-0.5000,-0.8660L0.5000,-0.8660Z" fill="#000"/></g><g transform="rotate(60) scale(36,36)"><path d="M0.5,0.866L1.0,0.0L0.5,-0.866L-0.5,-0.866L-1.0,0.0L-0.5,0.866L0.5,0.866Z" fill="#fff" fill-rule="nonzero" clip-path="url(#hx)"/></g></g><g transform="translate(1390.00,881.78)"><g transform="scale(36)"><path d="M1.0000,0.0000L0.5000,0.8660L-0.5000,0.8660L-1.0000,0.0000L-0.5000,-0.8660L0.5000,-0.8660Z" fill="#000"/></g><g transform="rotate(60) scale(36,36)"><path d="M0.5,0.866L1.0,0.0L0.5,-0.866L-0.5,-0.866L-1.0,0.0L-0.5,0.866L0.5,0.866Z" fill="#fff" fill-rule="nonzero" clip-path="url(#hx)"/></g></g></svg>