<svg xmlns="http://www.w3.org/2000/svg" width="890" height="1037" viewBox="0 0 890 1037"><rect width="890" height="1037" fill="#f2f2f0"/><defs><clipPath id="hx" clipPathUnits="userSpaceOnUse"><path d="M1.0000,0.0000L0.5000,0.8660L-0.5000,0.8660L-1.0000,0.0000L-0.5000,-0.8660L0.5000,-0.8660Z"/></clipPath></defs><g transform="translate(148.00,164.71)"><g transform="scale(36)"><path d="M1.0000,0.0000L0.5000,0.8660L-0.5000,0.8660L-1.0000,0.0000L-0.5000,-0.8660L0.5000,-0.8660Z" fill="#fff"/></g><g transform="rotate(0) scale(36,36)"><path d="M0.5,-0.866L0.5,0.866L1.0,-0.0L0.5,-0.866Z" fill="#000" fill-rule="nonzero" clip-path="url(#hx)"/></g></g><g transform="translate(202.00,133.53)"><g transform="scale(36)"><path d="M1.0000,0.0000L0.5000,0.8660L-0.5000,0.8660L-1.0000,0.0000L-0.5000,-0.8660L0.5000,-0.8660Z" fill="#000"/></g><g transform="rotate(0) scale(36,36)"><path d="M0.5,-0.866L0.5,0.866L1.0,-0.0L0.5,-0.866Z" fill="#fff" fill-rule="nonzero" clip-path="url(#hx)"/></g></g><g transform="translate(202.00,195.88)"><g transform="scale(36)"><path d="M1.0000,0.0000L0.5000,0.8660L-0.5000,0.8660L-1.0000,0.0000L-0.5000,-0.8660L0.5000,-0.8660Z" fill="#000"/></g><g transform="rotate(120) scale(36,36)"><path d="M0.5,-0.866L0.5,0.866L1.0,-0.0L0.5,-0.866Z" fill="#fff" fill-rule="nonzero" clip-path="url(#hx)"/></g></g><g transform="translate(256.00,164.71)"><g transform="scale(36)"><path d="M1.0000,0.0000L0.5000,0.8660L-0.5000,0.8660L-1.0000,0.0000L-0.5000,-0.8660L0.5000,-0.8660Z" fill="#000"/></g><g transform="rotate(240) scale(36,36)"><path d="M0.5,-0.866L0.5,0.866L1.0,-0.0L0.5,-0.866Z" fill="#fff" fill-rule="nonzero" clip-path="url(#hx)"/></g></g><g transform="translate(256.00,227.06)"><g transform="scale(36)"><path d="M1.0000,0.0000L0.5000,0.8660L-0.5000,0.8660L-1.0000,0.0000L-0.5000,-0.8660L0.5000,-0.8660Z" fill="#000"/></g><g transform="rotate(300) scale(36,36)"><path d="M0.5,-0.866L0.5,0.866L1.0,-0.0L0.5,-0.866Z" fill="#fff" fill-rule="nonzero" clip-path="url(#hx)"/></g></g><g transform="translate(310.00,133.53)"><g transform="scale(36)"><path d="M1.0000,0.0000L0.5000,0.8660L-0.5000,0.8660L-1.0000,0.0000L-0.5000,-0.8660L0.5000,-0.8660Z" fill="#000"/></g><g transform="rotate(0) scale(36,36)"><path d="M0.5,-0.866L0.5,0.866L1.0,-0.0L0.5,-0.866Z" fill="#fff" fill-rule="nonzero" clip-path="url(#hx)"/></g></g><g transform="translate(310.00,195.88)"><g transform="scale(36)"><path d="M1.0000,0.0000L0.5000,0.8660L-0.5000,0.8660L-1.0000,0.0000L-0.5000,-0.8660L0.5000,-0.8660Z" fill="#000"/></g><g transform="rotate(0) scale(36,36)"><path d="M0.5,-0.866L0.5,0.866L1.0,-0.0L0.5,-0.866Z" fill="#fff" fill-rule="nonzero" clip-path="url(#hx)"/></g></g><g transform="translate(310.00,258.24)"><g transform="scale(36)"><path d="M1.0000,0.0000L0.5000,0.8660L-0.5000,0.8660L-1.0000,0.0000L-0.5000,-0.8660L0.5000,-0.8660Z" fill="#000"/></g><g transform="rotate(0) scale(36,36)"><path d="M0.5,-0.866L0.5,0.866L1.0,-0.0L0.5,-0.866Z" fill="#fff" fill-rule="nonzero" clip-path="url(#hx)"/></g></g><g transform="translate(364.00,164.71)"><g transform="scale(36)"><path d="M1.0000,0.0000L0.5000,0.8660L-0.5000,0.8660L-1.0000,0.0000L-0.5000,-0.8660L0.5000,-0.8660Z" fill="#000"/></g><g transform="rotate(0) scale(36,36)"><path d="M0.5,-0.866L0.5,0.866L1.0,-0.0L0.5,-0.866Z" fill="#fff" fill-rule="nonzero" clip-path="url(#hx)"/><path d="M-0.509,-0.866L-1.009,-0.0L-0.509,0.866L-0.509,-0.866Z" fill="#fff" fill-rule="nonzero" clip-path="url(#hx)"/></g></g><g transform="translate(364.00,227.06)"><g transform="scale(36)"><path d="M1.0000,0.0000L0.5000,0.8660L-0.5000,0.8660L-1.0000,0.0000L-0.5000,-0.8660L0.5000,-0.8660Z" fill="#fff"/></g><g transform="rotate(0) scale(36,36)"><path d="M0.5,0.866L0.051,0.089C0.028,0.05 -0.029,0.05 -0.052,0.089L-0.5,0.866L0.5,0.866Z" fill="#000" fill-rule="nonzero" clip-path="url(#hx)"/><path d="M0.052,-0.091L0.5,-0.868L-0.5,-0.868L-0.051,-0.091C-0.028,-0.051 0.029,-0.051 0.052,-0.091Z" fill="#000" fill-rule="nonzero" clip-path="url(#hx)"/></g></g><g transform="translate(364.00,289.42)"><g transform="scale(36)"><path d="M1.0000,0.0000L0.5000,0.8660L-0.5000,0.8660L-1.0000,0.0000L-0.5000,-0.8660L0.5000,-0.8660Z" fill="#000"/></g><g transform="rotate(0) scale(36,36)"><path d="M0.5,0.866L0.051,0.089C0.028,0.05 -0.029,0.05 -0.052,0.089L-0.5,0.866L0.5,0.866Z" fill="#fff" fill-rule="nonzero" clip-path="url(#hx)"/><path d="M0.052,-0.091L0.5,-0.868L-0.5,-0.868L-0.051,-0.091C-0.028,-0.051 0.029,-0.051 0.052,-0.091Z" fill="#fff" fill-rule="nonzero" clip-path="url(#hx)"/></g></g><g transform="translate(418.00,382.95)"><g transform="scale(36)"><path d="M1.0000,0.0000L0.5000,0.8660L-0.5000,0.8660L-1.0000,0.0000L-0.5000,-0.8660L0.5000,-0.8660Z" fill="#fff"/></g><g transform="rotate(0) scale(36,36)"><path d="M0.5,-0.866L0.5,0.866L1.0,-0.0L0.5,-0.866Z" fill="#000" fill-rule="nonzero" clip-path="url(#hx)"/><path d="M-0.509,-0.866L-1.009,-0.0L-0.509,0.866L-0.509,-0.866Z" fill="#000" fill-rule="nonzero" clip-path="url(#hx)"/></g></g><g transform="translate(418.00,445.30)"><g transform="scale(36)"><path d="M1.0000,0.0000L0.5000,0.8660L-0.5000,0.8660L-1.0000,0.0000L-0.5000,-0.8660L0.5000,-0.8660Z" fill="#000"/></g><g transform="rotate(0) scale(36,36)"><path d="M0.5,-0.866L0.5,0.866L1.0,-0.0L0.5,-0.866Z" fill="#fff" fill-rule="nonzero" clip-path="url(#hx)"/><path d="M-0.509,-0.866L-1.009,-0.0L-0.509,0.866L-0.509,-0.866Z" fill="#fff" fill-rule="nonzero" clip-path="url(#hx)"/></g></g><g transform="translate(418.00,507.65)"><g transform="scale(36)"><path d="M1.0000,0.0000L0.5000,0.8660L-0.5000,0.8660L-1.0000,0.0000L-0.5000,-0.8660L0.5000,-0.8660Z" fill="#fff"/></g><g transform="rotate(0) scale(36,36)"><path d="M0.5,-0.866L0.5,0.866L1.0,-0.0L0.5,-0.866Z" fill="#000" fill-rule="nonzero" clip-path="url(#hx)"/><path d="M-0.509,-0.866L-1.009,-0.0L-0.509,0.866L-0.509,-0.866Z" fill="#000" fill-rule="nonzero" clip-path="url(#hx)"/></g></g><g transform="translate(418.00,570.01)"><g transform="scale(36)"><path d="M1.0000,0.0000L0.5000,0.8660L-0.5000,0.8660L-1.0000,0.0000L-0.5000,-0.8660L0.5000,-0.8660Z" fill="#000"/></g><g transform="rotate(0) scale(36,36)"><path d="M0.5,-0.866L0.5,0.866L1.0,-0.0L0.5,-0.866Z" fill="#fff" fill-rule="nonzero" clip-path="url(#hx)"/><path d="M-0.509,-0.866L-1.009,-0.0L-0.509,0.866L-0.509,-0.866Z" fill="#fff" fill-rule="nonzero" clip-path="url(#hx)"/></g></g><g transform="translate(472.00,414.12)"><g transform="scale(36)"><path d="M1.0000,0.0000L0.5000,0.8660L-0.5000,0.8660L-1.0000,0.0000L-0.5000,-0.8660L0.5000,-0.8660Z" fill="#fff"/></g><g transform="rotate(0) scale(36,36)"><path d="M0.5,-0.866L0.5,0.866L1.0,-0.0L0.5,-0.866Z" fill="#000" fill-rule="nonzero" clip-path="url(#hx)"/><path d="M-0.509,-0.866L-1.009,-0.0L-0.509,0.866L-0.509,-0.866Z" fill="#000" fill-rule="nonzero" clip-path="url(#hx)"/></g></g><g transform="translate(472.00,476.48)"><g transform="scale(36)"><path d="M1.0000,0.0000L0.5000,0.8660L-0.5000,0.8660L-1.0000,0.0000L-0.5000,-0.8660L0.5000,-0.8660Z" fill="#000"/></g><g transform="rotate(0) scale(36,36)"><path d="M0.5,-0.866L0.5,0.866L1.0,-0.0L0.5,-0.866Z" fill="#fff" fill-rule="nonzero" clip-path="url(#hx)"/><path d="M-0.509,-0.866L-1.009,-0.0L-0.509,0.866L-0.509,-0.866Z" fill="#fff" fill-rule="nonzero" clip-path="url(#hx)"/></g></g><g transform="translate(472.00,538.83)"><g transform="scale(36)"><path d="M1.0000,0.0000L0.5000,0.8660L-0.5000,0.8660L-1.0000,0.0000L-0.5000,-0.8660L0.5000,-0.8660Z" fill="#fff"/></g><g transform="rotate(0) scale(36,36)"><path d="M0.5,-0.866L0.5,0.866L1.0,-0.0L0.5,-0.866Z" fill="#000" fill-rule="nonzero" clip-path="url(#hx)"/><path d="M-0.509,-0.866L-1.009,-0.0L-0.509,0.866L-0.509,-0.866Z" fill="#000" fill-rule="nonzero" clip-path="url(#hx)"/></g></g><g transform="translate(472.00,601.18)"><g transform="scale(36)"><path d="M1.0000,0.0000L0.5000,0.8660L-0.5000,0.8660L-1.0000,0.0000L-0.5000,-0.8660L0.5000,-0.8660Z" fill="#000"/></g><g transform="rotate(0) scale(36,36)"><path d="M0.5,-0.866L0.5,0.866L1.0,-0.0L0.5,-0.866Z" fill="#fff" fill-rule="nonzero" clip-path="url(#hx)"/><path d="M-0.509,-0.866L-1.009,-0.0L-0.509,0.866L-0.509,-0.866Z" fill="#fff" fill-rule="nonzero" clip-path="url(#hx)"/></g></g><g transform="translate(526.00,382.95)"><g transform="scale(36)"><path d="M1.0000,0.0000L0.5000,0.8660L-0.5000,0.8660L-1.0000,0.0000L-0.5000,-0.8660L0.5000,-0.8660Z" fill="#fff"/></g><g transform="rotate(0) scale(36,36)"><path d="M0.5,-0.866L0.5,0.866L1.0,-0.0L0.5,-0.866Z" fill="#000" fill-rule="nonzero" clip-path="url(#hx)"/><path d="M-0.509,-0.866L-1.009,-0.0L-0.509,0.866L-0.509,-0.866Z" fill="#000" fill-rule="nonzero" clip-path="url(#hx)"/></g></g><g transform="translate(526.00,445.30)"><g transform="scale(36)"><path d="M1.0000,0.0000L0.5000,0.8660L-0.5000,0.8660L-1.0000,0.0000L-0.5000,-0.8660L0.5000,-0.8660Z" fill="#000"/></g><g transform="rotate(0) scale(36,36)"><path d="M0.5,-0.866L0.5,0.866L1.0,-0.0L0.5,-0.866Z" fill="#fff" fill-rule="nonzero" clip-path="url(#hx)"/><path d="M-0.509,-0.866L-1.009,-0.0L-0.509,0.866L-0.509,-0.866Z" fill="#fff" fill-rule="nonzero" clip-path="url(#hx)"/></g></g><g transform="translate(526.00,507.65)"><g transform="scale(36)"><path d="M1.0000,0.0000L0.5000,0.8660L-0.5000,0.8660L-1.0000,0.0000L-0.5000,-0.8660L0.5000,-0.8660Z" fill="#fff"/></g><g transform="rotate(0) scale(36,36)"><path d="M0.5,-0.866L0.5,0.866L1.0,-0.0L0.5,-0.866Z" fill="#000" fill-rule="nonzero" clip-path="url(#hx)"/><path d="M-0.509,-0.866L-1.009,-0.0L-0.509,0.866L-0.509,-0.866Z" fill="#000" fill-rule="nonzero" clip-path="url(#hx)"/></g></g><g transform="translate(526.00,570.01)"><g transform="scale(36)"><path d="M1.0000,0.0000L0.5000,0.8660L-0.5000,0.8660L-1.0000,0.0000L-0.5000,-0.8660L0.5000,-0.8660Z" fill="#000"/></g><g transform="rotate(0) scale(36,36)"><path d="M0.5,-0.866L0.5,0.866L1.0,-0.0L0.5,-0.866Z" fill="#fff" fill-rule="nonzero" clip-path="url(#hx)"/><path d="M-0.509,-0.866L-1.009,-0.0L-0.509,0.866L-0.509,-0.866Z" fill="#fff" fill-rule="nonzero" clip-path="url(#hx)"/></g></g><g transform="translate(580.00,414.12)"><g transform="scale(36)"><path d="M1.0000,0.0000L0.5000,0.8660L-0.5000,0.8660L-1.0000,0.0000L-0.5000,-0.8660L0.5000,-0.8660Z" fill="#fff"/></g><g transform="rotate(0) scale(36,36)"><path d="M0.5,-0.866L0.5,0.866L1.0,-0.0L0.5,-0.866Z" fill="#000" fill-rule="nonzero" clip-path="url(#hx)"/><path d="M-0.509,-0.866L-1.009,-0.0L-0.509,0.866L-0.509,-0.866Z" fill="#000" fill-rule="nonzero" clip-path="url(#hx)"/></g></g><g transform="translate(580.00,476.48)"><g transform="scale(36)"><path d="M1.0000,0.0000L0.5000,0.8660L-0.5000,0.8660L-1.0000,0.0000L-0.5000,-0.8660L0.5000,-0.8660Z" fill="#000"/></g><g transform="rotate(0) scale(36,36)"><path d="M0.5,-0.866L0.5,0.866L1.0,-0.0L0.5,-0.866Z" fill="#fff" fill-rule="nonzero" clip-path="url(#hx)"/><path d="M-0.509,-0.866L-1.009,-0.0L-0.509,0.866L-0.509,-0.866Z" fill="#fff" fill-rule="nonzero" clip-path="url(#hx)"/></g></g><g transform="translate(580.00,538.83)"><g transform="scale(36)"><path d="M1.0000,0.0000L0.5000,0.8660L-0.5000,0.8660L-1.0000,0.0000L-0.5000,-0.8660L0.5000,-0.8660Z" fill="#fff"/></g><g transform="rotate(0) scale(36,36)"><path d="M0.5,-0.866L0.5,0.866L1.0,-0.0L0.5,-0.866Z" fill="#000" fill-rule="nonzero" clip-path="url(#hx)"/><path d="M-0.509,-0.866L-1.009,-0.0L-0.509,0.866L-0.509,-0.866Z" fill="#000" fill-rule="nonzero" clip-path="url(#hx)"/></g></g><g transform="translate(580.00,601.18)"><g transform="scale(36)"><path d="M1.0000,0.0000L0.5000,0.8660L-0.5000,0.8660L-1.0000,0.0000L-0.5000,-0.8660L0.5000,-0.8660Z" fill="#000"/></g><g transform="rotate(0) scale(36,36)"><path d="M0.5,-0.866L0.5,0.866L1.0,-0.0L0.5,-0.866Z" fill="#fff" fill-rule="nonzero" clip-path="url(#hx)"/><path d="M-0.509,-0.866L-1.009,-0.0L-0.509,0.866L-0.509,-0.866Z" fill="#fff" fill-rule="nonzero" clip-path="url(#hx)"/></g></g><g transform="translate(634.00,382.95)"><g transform="scale(36)"><path d="M1.0000,0.0000L0.5000,0.8660L-0.5000,0.8660L-1.0000,0.0000L-0.5000,-0.8660L0.5000,-0.8660Z" fill="#fff"/></g><g transform="rotate(0) scale(36,36)"><path d="M0.5,-0.866L0.5,0.866L1.0,-0.0L0.5,-0.866Z" fill="#000" fill-rule="nonzero" clip-path="url(#hx)"/><path d="M-0.509,-0.866L-1.009,-0.0L-0.509,0.866L-0.509,-0.866Z" fill="#000" fill-rule="nonzero" clip-path="url(#hx)"/></g></g><g transform="translate(634.00,445.30)"><g transform="scale(36)"><path d="M1.0000,0.0000L0.5000,0.8660L-0.5000,0.8660L-1.0000,0.0000L-0.5000,-0.8660L0.5000,-0.8660Z" fill="#000"/></g><g transform="rotate(0) scale(36,36)"><path d="M0.5,-0.866L0.5,0.866L1.0,-0.0L0.5,-0.866Z" fill="#fff" fill-rule="nonzero" clip-path="url(#hx)"/><path d="M-0.509,-0.866L-1.009,-0.0L-0.509,0.866L-0.509,-0.866Z" fill="#fff" fill-rule="nonzero" clip-path="url(#hx)"/></g></g><g transform="translate(634.00,507.65)"><g transform="scale(36)"><path d="M1.0000,0.0000L0.5000,0.8660L-0.5000,0.8660L-1.0000,0.0000L-0.5000,-0.8660L0.5000,-0.8660Z" fill="#fff"/></g><g transform="rotate(0) scale(36,36)"><path d="M0.5,-0.866L0.5,0.866L1.0,-0.0L0.5,-0.866Z" fill="#000" fill-rule="nonzero" clip-path="url(#hx)"/><path d="M-0.509,-0.866L-1.009,-0.0L-0.509,0.866L-0.509,-0.866Z" fill="#000" fill-rule="nonzero" clip-path="url(#hx)"/></g></g><g transform="translate(634.00,570.01)"><g transform="scale(36)"><path d="M1.0000,0.0000L0.5000,0.8660L-0.5000,0.8660L-1.0000,0.0000L-0.5000,-0.8660L0.5000,-0.8660Z" fill="#000"/></g><g transform="rotate(0) scale(36,36)"><path d="M0.5,-0.866L0.5,0.866L1.0,-0.0L0.5,-0.866Z" fill="#fff" fill-rule="nonzero" clip-path="url(#hx)"/><path d="M-0.509,-0.866L-1.009,-0.0L-0.509,0.866L-0.509,-0.866Z" fill="#fff" fill-rule="nonzero" clip-path="url(#hx)"/></g></g><g transform="translate(688.00,414.12)"><g transform="scale(36)"><path d="M1.0000,0.0000L0.5000,0.8660L-0.5000,0.8660L-1.0000,0.0000L-0.5000,-0.8660L0.5000,-0.8660Z" fill="#fff"/></g><g transform="rotate(0) scale(36,36)"><path d="M0.5,-0.866L0.5,0.866L1.0,-0.0L0.5,-0.866Z" fill="#000" fill-rule="nonzero" clip-path="url(#hx)"/><path d="M-0.509,-0.866L-1.009,-0.0L-0.509,0.866L-0.509,-0.866Z" fill="#000" fill-rule="nonzero" clip-path="url(#hx)"/></g></g><g transform="translate(688.00,476.48)"><g transform="scale(36)"><path d="M1.0000,0.0000L0.5000,0.8660L-0.5000,0.8660L-1.0000,0.0000L-0.5000,-0.8660L0.5000,-0.8660Z" fill="#000"/></g><g transform="rotate(0) scale(36,36)"><path d="M0.5,-0.866L0.5,0.866L1.0,-0.0L0.5,-0.866Z" fill="#fff" fill-rule="nonzero" clip-path="url(#hx)"/><path d="M-0.509,-0.866L-1.009,-0.0L-0.509,0.866L-0.509,-0.866Z" fill="#fff" fill-rule="nonzero" clip-path="url(#hx)"/></g></g><g transform="translate(688.00,538.83)"><g transform="scale(36)"><path d="M1.0000,0.0000L0.5000,0.8660L-0.5000,0.8660L-1.0000,0.0000L-0.5000,-0.8660L0.5000,-0.8660Z" fill="#fff"/></g><g transform="rotate(0) scale(36,36)"><path d="M0.5,-0.866L0.5,0.866L1.0,-0.0L0.5,-0.866Z" fill="#000" fill-rule="nonzero" clip-path="url(#hx)"/><path d="M-0.509,-0.866L-1.009,-0.0L-0.509,0.866L-0.509,-0.866Z" fill="#000" fill-rule="nonzero" clip-path="url(#hx)"/></g></g><g transform="translate(688.00,601.18)"><g transform="scale(36)"><path d="M1.0000,0.0000L0.5000,0.8660L-0.5000,0.8660L-1.0000,0.0000L-0.5000,-0.8660L0.5000,-0.8660Z" fill="#000"/></g><g transform="rotate(0) scale(36,36)"><path d="M0.5,-0.866L0.5,0.866L1.0,-0.0L0.5,-0.866Z" fill="#fff" fill-rule="nonzero" clip-path="url(#hx)"/><path d="M-0.509,-0.866L-1.009,-0.0L-0.509,0.866L-0.509,-0.866Z" fill="#fff" fill-rule="nonzero" clip-path="url(#hx)"/></g></g><g transform="translate(742.00,382.95)"><g transform="scale(36)"><path d="M1.0000,0.0000L0.5000,0.8660L-0.5000,0.8660L-1.0000,0.0000L-0.5000,-0.8660L0.5000,-0.8660Z" fill="#fff"/></g><g transform="rotate(0) scale(36,36)"><path d="M0.5,-0.866L0.5,0.866L1.0,-0.0L0.5,-0.866Z" fill="#000" fill-rule="nonzero" clip-path="url(#hx)"/><path d="M-0.509,-0.866L-1.009,-0.0L-0.509,0.866L-0.509,-0.866Z" fill="#000" fill-rule="nonzero" clip-path="url(#hx)"/></g></g><g transform="translate(742.00,445.30)"><g transform="scale(36)"><path d="M1.0000,0.0000L0.5000,0.8660L-0.5000,0.8660L-1.0000,0.0000L-0.5000,-0.8660L0.5000,-0.8660Z" fill="#000"/></g><g transform="rotate(0) scale(36,36)"><path d="M0.5,-0.866L0.5,0.866L1.0,-0.0L0.5,-0.866Z" fill="#fff" fill-rule="nonzero" clip-path="url(#hx)"/><path d="M-0.509,-0.866L-1.009,-0.0L-0.509,0.866L-0.509,-0.866Z" fill="#fff" fill-rule="nonzero" clip-path="url(#hx)"/></g></g><g transform="translate(742.00,507.65)"><g transform="scale(36)"><path d="M1.0000,0.0000L0.5000,0.8660L-0.5000,0.8660L-1.0000,0.0000L-0.5000,-0.8660L0.5000,-0.8660Z" fill="#fff"/></g><g transform="rotate(0) scale(36,36)"><path d="M0.5,-0.866L0.5,0.866L1.0,-0.0L0.5,-0.866Z" fill="#000" fill-rule="nonzero" clip-path="url(#hx)"/><path d="M-0.509,-0.866L-1.009,-0.0L-0.509,0.866L-0.509,-0.866Z" fill="#000" fill-rule="nonzero" clip-path="url(#hx)"/></g></g><g transform="translate(742.00,570.01)"><g transform="scale(36)"><path d="M1.0000,0.0000L0.5000,0.8660L-0.5000,0.8660L-1.0000,0.0000L-0.5000,-0.8660L0.5000,-0.8660Z" fill="#000"/></g><g transform="rotate(0) scale(36,36)"><path d="M0.5,-0.866L0.5,0.866L1.0,-0.0L0.5,-0.866Z" fill="#fff" fill-rule="nonzero" clip-path="url(#hx)"/><path d="M-0.509,-0.866L-1.009,-0.0L-0.509,0.866L-0.509,-0.866Z" fill="#fff" fill-rule="nonzero" clip-path="url(#hx)"/></g></g></svg>